<?xml version="1.0" encoding="utf-8"?>
<!-- Generator: Adobe Illustrator 20.0.0, SVG Export Plug-In . SVG Version: 6.00 Build 0)  -->
<svg version="1.1" id="Layer_1" xmlns="http://www.w3.org/2000/svg" xmlns:xlink="http://www.w3.org/1999/xlink" x="0px" y="0px"
	 viewBox="0 0 100 100" style="enable-background:new 0 0 100 100;" xml:space="preserve">
<style type="text/css">
	.st0{fill:#FFFFFF;}
	.st1{fill:#402E51;}
</style>
<g>
	<path class="st0" d="M50.3,96.4c-25.5,0-46.2-20.7-46.2-46.2S24.8,4,50.3,4c25.5,0,46.2,20.7,46.2,46.2S75.7,96.4,50.3,96.4z"/>
	<path class="st1" d="M50.3,6c24.4,0,44.2,19.8,44.2,44.2S74.6,94.4,50.3,94.4S6.1,74.6,6.1,50.2S25.9,6,50.3,6 M50.3,2
		C23.6,2,2.1,23.6,2.1,50.2s21.6,48.2,48.2,48.2s48.2-21.6,48.2-48.2S76.9,2,50.3,2L50.3,2z"/>
</g>
<polygon class="st1" points="82.7,51.4 33.6,79.7 33.6,23 "/>
</svg>
