<?xml version="1.0" encoding="utf-8"?>
<!-- Generator: Adobe Illustrator 20.0.0, SVG Export Plug-In . SVG Version: 6.00 Build 0)  -->
<svg version="1.1" id="Objects" xmlns="http://www.w3.org/2000/svg" xmlns:xlink="http://www.w3.org/1999/xlink" x="0px" y="0px"
	 viewBox="0 0 703.8 585.9" style="enable-background:new 0 0 703.8 585.9;" xml:space="preserve">
<style type="text/css">
	.st0{display:none;fill:#3F2E51;}
	.st1{display:none;fill:#FFFFFF;stroke:#3F2E51;stroke-width:3;stroke-miterlimit:10;}
	.st2{fill:#FFFFFF;}
	.st3{fill:#92AF1F;stroke:#FFFFFF;stroke-width:3;stroke-miterlimit:10;}
	.st4{fill:#FFFFFF;stroke:#92AF1F;stroke-width:3;stroke-miterlimit:10;}
	.st5{fill:none;}
	.st6{fill:#3F2E51;}
	.st7{font-family:'Lato-Regular';}
	.st8{font-size:18px;}
	.st9{font-size:17px;}
</style>
<rect x="-126.4" class="st0" width="800" height="599.9"/>
<circle class="st1" cx="284.6" cy="77.9" r="21.9"/>
<circle class="st1" cx="284.6" cy="169.9" r="21.9"/>
<circle class="st1" cx="284.6" cy="262" r="21.9"/>
<circle class="st1" cx="284.6" cy="354" r="21.9"/>
<circle class="st1" cx="284.6" cy="446" r="21.9"/>
<circle class="st1" cx="284.6" cy="538" r="21.9"/>
<circle class="st1" cx="284.6" cy="630.1" r="21.9"/>
<circle class="st1" cx="284.6" cy="722.1" r="21.9"/>
<rect x="149.1" y="19.5" class="st2" width="2.2" height="547.2"/>
<circle class="st3" cx="150.2" cy="53.2" r="7.4"/>
<circle class="st3" cx="150.2" cy="120.9" r="7.4"/>
<circle class="st3" cx="150.2" cy="189.7" r="7.4"/>
<circle class="st3" cx="150.2" cy="257.5" r="7.4"/>
<circle class="st3" cx="150.2" cy="326.9" r="7.4"/>
<circle class="st3" cx="150.2" cy="394.6" r="7.4"/>
<circle class="st3" cx="150.2" cy="464.1" r="7.4"/>
<circle class="st3" cx="150.2" cy="531.8" r="7.4"/>
<rect x="208.3" y="36.3" class="st4" width="477.4" height="34"/>
<rect x="208.3" y="104.9" class="st4" width="477.4" height="31.9"/>
<rect x="208.3" y="173.5" class="st4" width="477.4" height="31.9"/>
<rect x="208.3" y="242.2" class="st4" width="477.4" height="31.9"/>
<rect x="208.3" y="310.8" class="st4" width="477.4" height="31.9"/>
<rect x="208.3" y="379.5" class="st4" width="477.4" height="31.9"/>
<rect x="208.3" y="448.1" class="st4" width="477.4" height="31.9"/>
<rect x="208.3" y="516.7" class="st4" width="477.4" height="31.9"/>
<circle class="st2" cx="168.9" cy="54.3" r="2.1"/>
<circle class="st2" cx="176" cy="54.3" r="2.1"/>
<circle class="st2" cx="183" cy="54.3" r="2.1"/>
<circle class="st2" cx="189.8" cy="54.3" r="2.1"/>
<circle class="st2" cx="196.1" cy="54.3" r="2.1"/>
<circle class="st2" cx="168.9" cy="122.1" r="2.1"/>
<circle class="st2" cx="176" cy="122.1" r="2.1"/>
<circle class="st2" cx="183" cy="122.1" r="2.1"/>
<circle class="st2" cx="189.8" cy="122.1" r="2.1"/>
<circle class="st2" cx="196.1" cy="122.1" r="2.1"/>
<circle class="st2" cx="170.5" cy="188.7" r="2.1"/>
<circle class="st2" cx="177.7" cy="188.7" r="2.1"/>
<circle class="st2" cx="184.7" cy="188.7" r="2.1"/>
<circle class="st2" cx="191.4" cy="188.7" r="2.1"/>
<circle class="st2" cx="197.8" cy="188.7" r="2.1"/>
<circle class="st2" cx="171.2" cy="326.4" r="2.1"/>
<circle class="st2" cx="178.3" cy="326.4" r="2.1"/>
<circle class="st2" cx="185.3" cy="326.4" r="2.1"/>
<circle class="st2" cx="192" cy="326.4" r="2.1"/>
<circle class="st2" cx="198.4" cy="326.4" r="2.1"/>
<circle class="st2" cx="171.5" cy="532.3" r="2.1"/>
<circle class="st2" cx="178.6" cy="532.3" r="2.1"/>
<circle class="st2" cx="185.6" cy="532.3" r="2.1"/>
<circle class="st2" cx="192.3" cy="532.3" r="2.1"/>
<circle class="st2" cx="198.7" cy="532.3" r="2.1"/>
<circle class="st2" cx="169.9" cy="257.9" r="2.1"/>
<circle class="st2" cx="177" cy="257.9" r="2.1"/>
<circle class="st2" cx="184" cy="257.9" r="2.1"/>
<circle class="st2" cx="190.8" cy="257.9" r="2.1"/>
<circle class="st2" cx="197.1" cy="257.9" r="2.1"/>
<circle class="st2" cx="170.2" cy="396" r="2.1"/>
<circle class="st2" cx="177.3" cy="396" r="2.1"/>
<circle class="st2" cx="184.3" cy="396" r="2.1"/>
<circle class="st2" cx="191" cy="396" r="2.1"/>
<circle class="st2" cx="197.4" cy="396" r="2.1"/>
<circle class="st2" cx="170.2" cy="465.1" r="2.1"/>
<circle class="st2" cx="177.3" cy="465.1" r="2.1"/>
<circle class="st2" cx="184.3" cy="465.1" r="2.1"/>
<circle class="st2" cx="191" cy="465.1" r="2.1"/>
<circle class="st2" cx="197.4" cy="465.1" r="2.1"/>
<rect x="203.6" y="46.1" class="st5" width="482.1" height="16.5"/>
<text transform="matrix(1 0 0 1 213.4659 59.3334)" class="st6 st7 st8">Experiencing issues in IT contracting, team comes together.</text>
<rect x="203.6" y="113.8" class="st5" width="484.1" height="16.5"/>
<text transform="matrix(1 0 0 1 237.6426 127.0724)" class="st6 st7 st8">Starts research and analysis of wider industry impact.</text>
<rect x="203" y="182.6" class="st5" width="487.2" height="16.5"/>
<text transform="matrix(1 0 0 1 221.1074 195.1247)" class="st6 st7 st9">Pathway set for Ideas: Design, Solutions and Implementation.</text>
<rect x="203.6" y="250.3" class="st5" width="486.8" height="18.4"/>
<text transform="matrix(1 0 0 1 210.5313 263.5896)" class="st6 st7 st8">Team forms an entity &amp; starts running pilots with companies.</text>
<rect x="203.6" y="319.3" class="st5" width="482.1" height="18.4"/>
<text transform="matrix(1 0 0 1 361.8557 332.6128)" class="st6 st7 st8">Development begins.</text>
<rect x="203.6" y="386.8" class="st5" width="484.1" height="18.4"/>
<text transform="matrix(1 0 0 1 217.2678 400.1097)" class="st6 st7 st8">Right Comply goes into Beta and welcomes early adopters.</text>
<rect x="204" y="456.4" class="st5" width="481.6" height="18.4"/>
<text transform="matrix(1 0 0 1 301.9816 469.6636)" class="st6 st7 st8">Right Comply formally incorporated.</text>
<rect x="209.7" y="525.2" class="st5" width="476" height="18.4"/>
<text transform="matrix(1 0 0 1 354.9643 538.4869)" class="st6 st7 st8">Right Comply launched.</text>
<g>
	<path class="st2" d="M37.3,61.8h-6.2c-0.1,0-0.2-0.1-0.2-0.2v-0.1c0-0.1,0-0.2,0.1-0.3c0.5-0.8,1.1-1.7,1.8-2.7
		c0.7-1,1.3-1.8,1.6-2.3c0.4-0.5,0.7-1.1,1-1.7c0.3-0.6,0.4-1.3,0.4-1.8c0-0.6-0.2-1.1-0.5-1.4c-0.3-0.4-0.8-0.6-1.4-0.6
		c-0.6,0-1,0.2-1.4,0.5c-0.3,0.4-0.6,0.8-0.7,1.3c-0.1,0.2-0.2,0.3-0.3,0.3c-0.1,0-0.1,0-0.2-0.1c-0.1-0.1-0.1-0.1-0.1-0.2v-1.3
		c0-0.2,0.3-0.5,0.9-0.8c0.6-0.3,1.2-0.4,2-0.4c1,0,1.8,0.3,2.4,0.8c0.6,0.5,0.9,1.2,0.9,2.1c0,0.5-0.1,1.1-0.4,1.6
		c-0.3,0.6-0.6,1.1-0.9,1.5s-0.9,1.1-1.6,2c-0.7,0.9-1.4,1.7-1.9,2.4h4.1c0.4,0,0.6-0.1,0.7-0.3c0.1-0.2,0.2-0.3,0.3-0.3
		c0.2,0,0.2,0.1,0.2,0.3l-0.1,1.1c0,0.2-0.1,0.3-0.1,0.4C37.5,61.8,37.4,61.8,37.3,61.8z"/>
	<path class="st2" d="M40.8,60.3c-0.7-1.1-1.1-2.6-1.1-4.3c0-1.8,0.4-3.2,1.1-4.3c0.7-1.1,1.8-1.7,3.2-1.7s2.5,0.6,3.2,1.7
		c0.7,1.1,1.1,2.6,1.1,4.3c0,1.8-0.4,3.2-1.1,4.3C46.5,61.4,45.4,62,44,62S41.6,61.4,40.8,60.3z M44,50.7c-1.8,0-2.8,1.8-2.8,5.3
		s0.9,5.3,2.8,5.3s2.8-1.8,2.8-5.3S45.9,50.7,44,50.7z"/>
	<path class="st2" d="M55.3,61.6c0,0.1,0,0.1-0.1,0.2c0,0-0.1,0.1-0.2,0.1l-2.3-0.1l-2.4,0.1c-0.2,0-0.3-0.1-0.3-0.2
		c0-0.2,0.1-0.2,0.2-0.2l0.9,0c0.2,0,0.4-0.1,0.6-0.2c0.2-0.1,0.3-0.3,0.3-0.5v-9.2c0-0.4-0.2-0.6-0.7-0.6c0,0,0,0-0.1,0l-1.1,0
		c-0.1,0-0.2-0.1-0.2-0.2c0-0.1,0.1-0.2,0.2-0.3l3-0.4c0.2,0,0.2,0.1,0.2,0.2v10.5c0,0.4,0.3,0.6,0.7,0.7l0.9,0
		C55.2,61.4,55.3,61.5,55.3,61.6z"/>
	<path class="st2" d="M62.1,56.4c0.6,0.5,0.9,1.2,0.9,1.9c0,0.7-0.2,1.4-0.5,1.9c-0.4,0.5-0.8,0.9-1.4,1.2c-1.2,0.6-2.4,0.9-3.8,0.9
		c-0.3,0-0.4-0.1-0.4-0.3c0-0.1,0-0.2,0.1-0.2c0.1-0.1,0.2-0.1,0.3-0.1c1.2-0.1,2.2-0.4,3-0.9c0.8-0.5,1.1-1.2,1.1-2.1
		c0-0.7-0.3-1.3-0.8-1.7c-0.5-0.4-1.2-0.6-2.1-0.6c-0.3,0-0.5-0.1-0.5-0.3c0-0.1,0.1-0.2,0.2-0.3c1.1-0.6,1.8-1.2,2.3-1.7
		c0.4-0.5,0.6-1,0.6-1.6c0-0.5-0.1-0.9-0.4-1.2c-0.3-0.3-0.6-0.4-1.1-0.4c-0.4,0-0.8,0.1-1,0.2c-0.3,0.2-0.5,0.3-0.6,0.5
		c-0.1,0.2-0.3,0.4-0.4,0.8c-0.2,0.4-0.3,0.5-0.5,0.5c-0.1,0-0.1,0-0.2-0.1s-0.1-0.1-0.1-0.2v-1.3c0-0.2,0.3-0.5,0.8-0.7
		c0.5-0.3,1.2-0.4,2-0.4c0.8,0,1.5,0.2,2.1,0.6c0.6,0.4,0.9,0.9,0.9,1.7c0,0.7-0.3,1.3-1,1.9c-0.5,0.4-1.1,0.9-1.8,1.3
		C60.7,55.5,61.5,55.8,62.1,56.4z"/>
	<path class="st2" d="M76.5,58.8c0,1-0.4,1.8-1.2,2.4c-0.8,0.5-1.7,0.8-2.8,0.8c-1.1,0-2-0.1-2.7-0.4c-0.7-0.3-1.1-0.6-1.1-0.9v-1.9
		c0-0.2,0.1-0.3,0.3-0.3c0.1,0,0.2,0.1,0.3,0.3c0.3,0.9,0.7,1.5,1.1,1.9c0.5,0.4,1.1,0.6,1.9,0.6c0.8,0,1.5-0.2,2-0.6
		c0.5-0.4,0.8-0.9,0.8-1.6c0-0.7-0.4-1.3-1.2-1.8c-0.4-0.2-0.8-0.4-1.2-0.6c-0.4-0.2-0.9-0.4-1.3-0.7c-0.4-0.2-0.8-0.5-1.2-0.7
		c-0.8-0.6-1.2-1.4-1.2-2.3c0-0.9,0.4-1.6,1.1-2.2c0.7-0.5,1.5-0.8,2.5-0.8c1,0,1.8,0.1,2.4,0.4c0.7,0.2,1,0.5,1,0.8v1.7
		c0,0.2-0.1,0.3-0.2,0.3c-0.2,0-0.3-0.1-0.4-0.3c-0.2-0.7-0.5-1.2-0.9-1.6c-0.4-0.3-0.9-0.5-1.7-0.5c-0.7,0-1.3,0.2-1.8,0.5
		c-0.4,0.4-0.6,0.8-0.6,1.3c0,0.5,0.2,1,0.6,1.4c0.4,0.4,1,0.7,1.6,1c0.6,0.3,1.2,0.6,1.8,0.9c0.6,0.3,1.1,0.7,1.6,1.2
		C76.3,57.6,76.5,58.2,76.5,58.8z"/>
	<path class="st2" d="M82.7,50.2c1.3,0,2.3,0.3,3,0.9s1.1,1.4,1.1,2.3c0,1-0.3,1.8-1,2.4c-0.7,0.6-1.6,1-2.8,1h-2
		c-0.2,0-0.3,0.1-0.3,0.2v3.7c0,0.2,0.1,0.4,0.2,0.5c0.1,0.1,0.3,0.2,0.5,0.2l0.7,0c0.1,0,0.2,0.1,0.2,0.2c0,0.1-0.1,0.2-0.2,0.2
		L80,61.8l-1.8,0.1c-0.2,0-0.3-0.1-0.3-0.2c0-0.2,0.1-0.2,0.2-0.3l0.5,0c0.5,0,0.7-0.3,0.7-0.7v-9.5c0-0.4-0.3-0.6-0.8-0.7l-0.5,0
		c-0.1,0-0.2-0.1-0.2-0.2c0-0.2,0.1-0.2,0.2-0.2l2.3,0.1H82.7z M84.5,55.3c0.5-0.5,0.7-1.1,0.7-1.9c0-0.8-0.2-1.4-0.7-1.8
		c-0.5-0.5-1.2-0.7-2.1-0.7h-1c-0.4,0-0.7,0.2-0.7,0.7v4.2c0,0.1,0.1,0.2,0.2,0.2h1.5C83.2,56,84,55.8,84.5,55.3z"/>
	<path class="st2" d="M93.4,50.2c1.1,0,1.9,0.3,2.6,0.8c0.7,0.5,1,1.3,1,2.2c0,0.9-0.3,1.6-1,2.2s-1.4,0.9-2.2,0.9l0,0
		c0.2,0.1,0.4,0.2,0.5,0.4l2.5,4c0.2,0.4,0.6,0.6,1.1,0.7l0.3,0c0.1,0,0.2,0.1,0.2,0.2c0,0.2-0.1,0.2-0.3,0.2c-1.1,0-1.7-0.1-2-0.1
		c-0.3,0-0.5-0.1-0.6-0.3l-2.8-4.7c-0.2-0.3-0.5-0.5-0.7-0.5h0h-1.2c-0.2,0-0.3,0.1-0.3,0.2v4.2c0,0.2,0.1,0.4,0.2,0.5
		c0.1,0.1,0.3,0.2,0.5,0.2l0.7,0c0.1,0,0.2,0.1,0.2,0.2c0,0.1-0.1,0.2-0.2,0.2l-2.1-0.1l-1.8,0.1c-0.1,0-0.2-0.1-0.3-0.2
		c0-0.2,0.1-0.2,0.2-0.3l0.5,0c0.5,0,0.7-0.3,0.7-0.7v-9.5c0-0.4-0.3-0.6-0.8-0.7l-0.5,0c-0.1,0-0.2-0.1-0.2-0.2
		c0-0.2,0.1-0.2,0.2-0.2l2.3,0.1H93.4z M94.7,54.9c0.5-0.4,0.8-1,0.8-1.7c0-0.7-0.3-1.3-0.8-1.7s-1.2-0.6-1.9-0.6h-1.6
		c-0.4,0-0.7,0.2-0.7,0.7v3.7c0,0.1,0.1,0.2,0.2,0.2h2C93.6,55.5,94.2,55.3,94.7,54.9z"/>
	<path class="st2" d="M99.3,61.9c-0.2,0-0.2-0.1-0.2-0.2c0-0.1,0.1-0.2,0.2-0.2l0.3,0c0.5-0.1,0.7-0.3,0.7-0.7v-9.5
		c0-0.4-0.3-0.6-0.8-0.7l-0.5,0c-0.1,0-0.2-0.1-0.2-0.2c0-0.2,0.1-0.2,0.2-0.2l1.9,0.1l1.6-0.1c0.2,0,0.2,0.1,0.2,0.2
		c0,0.2-0.1,0.2-0.2,0.2l-0.3,0c-0.4,0.1-0.7,0.3-0.7,0.7v9.5c0,0.2,0.1,0.4,0.2,0.5c0.1,0.1,0.3,0.2,0.5,0.2l0.5,0
		c0.1,0,0.2,0.1,0.2,0.2c0,0.1,0,0.1-0.1,0.2c0,0-0.1,0.1-0.2,0.1l-1.9-0.1L99.3,61.9z"/>
	<path class="st2" d="M113.8,59.3v-8.1c0-0.4-0.3-0.6-0.7-0.7l-0.5,0c-0.1,0-0.2-0.1-0.2-0.2c0-0.1,0.1-0.2,0.2-0.2l1.6,0l1.3,0
		c0.2,0,0.2,0.1,0.2,0.2c0,0.1-0.1,0.2-0.2,0.2l-0.3,0c-0.4,0.1-0.7,0.3-0.7,0.7v10.5c0,0.1-0.1,0.2-0.2,0.2h-0.2
		c-0.3,0-0.5-0.1-0.7-0.4l-7-9c0,0-0.1,0-0.1,0c0,0-0.1,0.1-0.1,0.2v8c0,0.4,0.2,0.6,0.7,0.7l0.3,0c0.1,0,0.2,0.1,0.2,0.2
		c0,0.1-0.1,0.2-0.3,0.2l-1.3,0l-1.6,0c-0.2,0-0.2-0.1-0.2-0.2c0-0.1,0.1-0.2,0.2-0.2l0.5,0c0.5-0.1,0.8-0.3,0.8-0.7v-9.5
		c0-0.4-0.2-0.6-0.7-0.7l-0.3,0c-0.1,0-0.2-0.1-0.2-0.2s0.1-0.2,0.3-0.2l1.3,0c0.3,0,0.6,0.1,0.7,0.3l6.9,8.9
		C113.6,59.4,113.7,59.4,113.8,59.3C113.7,59.4,113.8,59.4,113.8,59.3z"/>
	<path class="st2" d="M123.2,50c0.9,0,1.8,0.1,2.5,0.4c0.8,0.3,1.1,0.5,1.1,0.7V53c0,0.1,0,0.2-0.1,0.2c-0.1,0.1-0.1,0.1-0.2,0.1
		c-0.2,0-0.3-0.1-0.4-0.3c-0.2-0.7-0.6-1.3-1.1-1.7c-0.5-0.4-1.2-0.6-1.9-0.6c-1.4,0-2.5,0.5-3.3,1.4c-0.8,0.9-1.2,2.1-1.2,3.5
		c0,0.9,0.2,1.8,0.5,2.7c0.4,0.9,0.9,1.6,1.6,2.1c0.7,0.6,1.4,0.8,2.3,0.8c0.8,0,1.5-0.2,2.1-0.5c0.6-0.3,0.9-0.7,0.9-1.1v-2.1
		c0-0.4-0.3-0.6-0.7-0.7l-0.9-0.1c-0.1,0-0.2-0.1-0.2-0.2s0.1-0.2,0.2-0.2l2.3,0.1l1.6-0.1c0.2,0,0.2,0.1,0.2,0.2
		c0,0.2-0.1,0.2-0.2,0.2l-0.3,0.1c-0.4,0.1-0.7,0.3-0.7,0.7v3.2l0.1,0.9c0,0.2-0.1,0.3-0.2,0.3c-0.1,0-0.2-0.1-0.3-0.2
		c-0.2-0.4-0.5-0.6-0.9-0.6c-0.1,0-0.3,0.1-0.5,0.2c-0.8,0.4-1.6,0.6-2.7,0.6c-1.7,0-3.1-0.6-4.2-1.7c-1.1-1.1-1.6-2.6-1.6-4.3
		c0-1.7,0.6-3.2,1.7-4.3C119.9,50.6,121.4,50,123.2,50z"/>
</g>
<g>
	<path class="st2" d="M22.1,129.1h-6.2c-0.1,0-0.2-0.1-0.2-0.2v-0.1c0-0.1,0-0.2,0.1-0.3c0.5-0.8,1.1-1.7,1.8-2.7
		c0.7-1,1.3-1.8,1.6-2.3c0.4-0.5,0.7-1.1,1-1.7c0.3-0.6,0.4-1.3,0.4-1.8c0-0.6-0.2-1.1-0.5-1.4c-0.3-0.4-0.8-0.6-1.4-0.6
		c-0.6,0-1,0.2-1.4,0.5c-0.3,0.4-0.6,0.8-0.7,1.3c-0.1,0.2-0.2,0.3-0.3,0.3c-0.1,0-0.1,0-0.2-0.1c-0.1-0.1-0.1-0.1-0.1-0.2v-1.3
		c0-0.2,0.3-0.5,0.9-0.8c0.6-0.3,1.2-0.4,2-0.4c1,0,1.8,0.3,2.4,0.8c0.6,0.5,0.9,1.2,0.9,2.1c0,0.5-0.1,1.1-0.4,1.6
		c-0.3,0.6-0.6,1.1-0.9,1.5c-0.3,0.4-0.9,1.1-1.6,2c-0.7,0.9-1.4,1.7-1.9,2.4h4.1c0.4,0,0.6-0.1,0.7-0.3c0.1-0.2,0.2-0.3,0.3-0.3
		c0.2,0,0.2,0.1,0.2,0.3l-0.1,1.1c0,0.2-0.1,0.3-0.1,0.4C22.3,129,22.2,129.1,22.1,129.1z"/>
	<path class="st2" d="M25.6,127.6c-0.7-1.1-1.1-2.6-1.1-4.3c0-1.8,0.4-3.2,1.1-4.3c0.7-1.1,1.8-1.7,3.2-1.7c1.4,0,2.5,0.6,3.2,1.7
		c0.7,1.1,1.1,2.6,1.1,4.3c0,1.8-0.4,3.2-1.1,4.3c-0.7,1.1-1.8,1.7-3.2,1.7C27.4,129.3,26.4,128.7,25.6,127.6z M28.8,118
		c-1.8,0-2.8,1.8-2.8,5.3s0.9,5.3,2.8,5.3c1.8,0,2.8-1.8,2.8-5.3S30.7,118,28.8,118z"/>
	<path class="st2" d="M40.1,128.9c0,0.1,0,0.1-0.1,0.2c0,0-0.1,0.1-0.2,0.1l-2.3-0.1l-2.4,0.1c-0.2,0-0.3-0.1-0.3-0.2
		c0-0.2,0.1-0.2,0.2-0.2l0.9,0c0.2,0,0.4-0.1,0.6-0.2c0.2-0.1,0.3-0.3,0.3-0.5v-9.2c0-0.4-0.2-0.6-0.7-0.6c0,0,0,0-0.1,0l-1.1,0
		c-0.1,0-0.2-0.1-0.2-0.2s0.1-0.2,0.2-0.3l3-0.4c0.2,0,0.2,0.1,0.2,0.2V128c0,0.4,0.3,0.6,0.7,0.7l0.9,0
		C40,128.7,40.1,128.8,40.1,128.9z"/>
	<path class="st2" d="M46.9,123.6c0.6,0.5,0.9,1.2,0.9,1.9c0,0.7-0.2,1.4-0.5,1.9c-0.4,0.5-0.8,0.9-1.4,1.2
		c-1.2,0.6-2.4,0.9-3.8,0.9c-0.3,0-0.4-0.1-0.4-0.3c0-0.1,0-0.2,0.1-0.2c0.1-0.1,0.2-0.1,0.3-0.1c1.2-0.1,2.2-0.4,3-0.9
		c0.8-0.5,1.1-1.2,1.1-2.1c0-0.7-0.3-1.3-0.8-1.7c-0.5-0.4-1.2-0.6-2.1-0.6c-0.3,0-0.5-0.1-0.5-0.3c0-0.1,0.1-0.2,0.2-0.3
		c1.1-0.6,1.8-1.2,2.3-1.7c0.4-0.5,0.6-1,0.6-1.6c0-0.5-0.1-0.9-0.4-1.2c-0.3-0.3-0.6-0.4-1.1-0.4c-0.4,0-0.8,0.1-1,0.2
		c-0.3,0.2-0.5,0.3-0.6,0.5c-0.1,0.2-0.3,0.4-0.4,0.8c-0.2,0.4-0.3,0.5-0.5,0.5c-0.1,0-0.1,0-0.2-0.1c0-0.1-0.1-0.1-0.1-0.2v-1.3
		c0-0.2,0.3-0.5,0.8-0.7c0.5-0.3,1.2-0.4,2-0.4c0.8,0,1.5,0.2,2.1,0.6c0.6,0.4,0.9,0.9,0.9,1.7c0,0.7-0.3,1.3-1,1.9
		c-0.5,0.4-1.1,0.9-1.8,1.3C45.5,122.8,46.3,123.1,46.9,123.6z"/>
	<path class="st2" d="M61.3,126.1c0,1-0.4,1.8-1.2,2.4c-0.8,0.5-1.7,0.8-2.8,0.8c-1.1,0-2-0.1-2.7-0.4c-0.7-0.3-1.1-0.6-1.1-0.9V126
		c0-0.2,0.1-0.3,0.3-0.3c0.1,0,0.2,0.1,0.3,0.3c0.3,0.9,0.7,1.5,1.1,1.9c0.5,0.4,1.1,0.6,1.9,0.6c0.8,0,1.5-0.2,2-0.6
		c0.5-0.4,0.8-0.9,0.8-1.6c0-0.7-0.4-1.3-1.2-1.8c-0.4-0.2-0.8-0.4-1.2-0.6c-0.4-0.2-0.9-0.4-1.3-0.7c-0.4-0.2-0.8-0.5-1.2-0.7
		c-0.8-0.6-1.2-1.4-1.2-2.3c0-0.9,0.4-1.6,1.1-2.2c0.7-0.5,1.5-0.8,2.5-0.8s1.8,0.1,2.4,0.4c0.7,0.2,1,0.5,1,0.8v1.7
		c0,0.2-0.1,0.3-0.2,0.3s-0.3-0.1-0.4-0.3c-0.2-0.7-0.5-1.2-0.9-1.6c-0.4-0.3-0.9-0.5-1.7-0.5c-0.7,0-1.3,0.2-1.8,0.5
		c-0.4,0.4-0.6,0.8-0.6,1.3c0,0.5,0.2,1,0.6,1.4c0.4,0.4,1,0.7,1.6,1c0.6,0.3,1.2,0.6,1.8,0.9c0.6,0.3,1.1,0.7,1.6,1.2
		S61.3,125.4,61.3,126.1z"/>
	<path class="st2" d="M63.9,124.8v-6.3c0-0.4-0.3-0.6-0.8-0.7l-0.5,0c-0.1,0-0.2-0.1-0.2-0.2c0-0.2,0.1-0.2,0.2-0.2l1.9,0.1l1.6-0.1
		c0.2,0,0.2,0.1,0.2,0.2c0,0.2-0.1,0.2-0.2,0.2l-0.3,0c-0.4,0.1-0.7,0.3-0.7,0.7v6.3c0,1,0.3,1.8,0.9,2.4c0.6,0.6,1.4,0.9,2.5,0.9
		s1.8-0.3,2.5-0.9s0.9-1.4,0.9-2.4v-6.3c0-0.4-0.2-0.6-0.7-0.7l-0.3,0c-0.1,0-0.2-0.1-0.2-0.2s0.1-0.2,0.2-0.2l1.3,0l1.6,0
		c0.2,0,0.2,0.1,0.2,0.2s-0.1,0.2-0.2,0.2l-0.5,0c-0.5,0.1-0.8,0.3-0.8,0.7v6.3c0,1.4-0.4,2.5-1.3,3.3c-0.8,0.8-1.9,1.2-3.2,1.2
		c-1.3,0-2.4-0.4-3.2-1.2C64.3,127.2,63.9,126.1,63.9,124.8z"/>
	<path class="st2" d="M90.4,128.9c0,0.1,0,0.1-0.1,0.2c-0.1,0-0.1,0.1-0.2,0.1l-1.9-0.1l-1.6,0.1c-0.2,0-0.2-0.1-0.2-0.2
		c0-0.1,0.1-0.2,0.2-0.2l0.3,0c0.5-0.1,0.7-0.3,0.7-0.7l-0.1-7.9c0-0.1,0-0.2-0.1-0.2c0,0-0.1,0-0.1,0.1l-4.5,9.1
		c-0.1,0.1-0.1,0.1-0.2,0.1c-0.1,0-0.1,0-0.2-0.1l-4.5-8.8c0,0,0,0-0.1,0c-0.1,0-0.1,0.1-0.1,0.2l-0.1,7.6c0,0.4,0.2,0.6,0.7,0.7
		l0.3,0c0.1,0,0.2,0.1,0.2,0.2c0,0.1-0.1,0.2-0.3,0.2l-1.4,0l-1.6,0c-0.2,0-0.2-0.1-0.2-0.2c0-0.1,0.1-0.2,0.2-0.2l0.5,0
		c0.5-0.1,0.8-0.3,0.8-0.7l0.2-9.5c0-0.4-0.2-0.6-0.7-0.7l-0.3,0c-0.1,0-0.2-0.1-0.2-0.2c0-0.1,0.1-0.2,0.2-0.2l1.5,0
		c0.4,0,0.6,0.1,0.7,0.3l4.7,9.3l4.6-9.3c0.1-0.2,0.3-0.3,0.7-0.3l1.5,0c0.2,0,0.3,0.1,0.3,0.2c0,0.1-0.1,0.2-0.2,0.2l-0.3,0
		c-0.4,0-0.6,0.3-0.6,0.7L89,128c0,0.2,0.1,0.4,0.2,0.5c0.1,0.1,0.3,0.2,0.5,0.2l0.5,0C90.3,128.7,90.4,128.8,90.4,128.9z"/>
	<path class="st2" d="M106.4,128.9c0,0.1,0,0.1-0.1,0.2c-0.1,0-0.1,0.1-0.2,0.1l-1.9-0.1l-1.6,0.1c-0.2,0-0.2-0.1-0.2-0.2
		c0-0.1,0.1-0.2,0.2-0.2l0.3,0c0.5-0.1,0.7-0.3,0.7-0.7l-0.1-7.9c0-0.1,0-0.2-0.1-0.2c0,0-0.1,0-0.1,0.1l-4.5,9.1
		c-0.1,0.1-0.1,0.1-0.2,0.1c-0.1,0-0.1,0-0.2-0.1l-4.5-8.8c0,0,0,0-0.1,0c-0.1,0-0.1,0.1-0.1,0.2l-0.1,7.6c0,0.4,0.2,0.6,0.7,0.7
		l0.3,0c0.1,0,0.2,0.1,0.2,0.2c0,0.1-0.1,0.2-0.3,0.2l-1.4,0l-1.6,0c-0.2,0-0.2-0.1-0.2-0.2c0-0.1,0.1-0.2,0.2-0.2l0.5,0
		c0.5-0.1,0.8-0.3,0.8-0.7l0.2-9.5c0-0.4-0.2-0.6-0.7-0.7l-0.3,0c-0.1,0-0.2-0.1-0.2-0.2c0-0.1,0.1-0.2,0.2-0.2l1.5,0
		c0.4,0,0.6,0.1,0.7,0.3l4.7,9.3l4.6-9.3c0.1-0.2,0.3-0.3,0.7-0.3l1.5,0c0.2,0,0.3,0.1,0.3,0.2c0,0.1-0.1,0.2-0.2,0.2l-0.3,0
		c-0.4,0-0.6,0.3-0.6,0.7l0.2,9.5c0,0.2,0.1,0.4,0.2,0.5c0.1,0.1,0.3,0.2,0.5,0.2l0.5,0C106.3,128.7,106.4,128.8,106.4,128.9z"/>
	<path class="st2" d="M115.6,129.1h-6.2l-1.9,0.1c-0.2,0-0.2-0.1-0.2-0.2c0-0.1,0.1-0.2,0.2-0.2l0.5,0c0.2,0,0.4-0.1,0.5-0.2
		c0.1-0.1,0.2-0.3,0.2-0.5v-9.5c0-0.4-0.3-0.6-0.8-0.7l-0.5,0c-0.1,0-0.2-0.1-0.2-0.2c0-0.1,0.1-0.2,0.2-0.2l1.9,0.1h5.9
		c0.2,0,0.4,0.1,0.5,0.2c0.1,0.1,0.2,0.3,0.2,0.5l0.2,1.5c0,0.2-0.1,0.3-0.2,0.3c-0.2,0-0.3-0.1-0.4-0.3c-0.2-0.5-0.4-0.9-0.7-1.1
		c-0.3-0.2-0.8-0.3-1.4-0.3H111c-0.2,0-0.4,0.1-0.6,0.2c-0.1,0.1-0.2,0.3-0.2,0.6v3.5c0,0.1,0.1,0.2,0.2,0.2h3.1
		c0.2,0,0.3,0,0.4-0.1c0.1-0.1,0.1-0.1,0.2-0.2c0-0.1,0.1-0.2,0.1-0.4l0.1-0.2c0-0.1,0.1-0.2,0.3-0.2c0.1,0,0.2,0.1,0.2,0.2
		l-0.1,1.4l0.1,1.3c0,0.1-0.1,0.2-0.2,0.2c-0.1,0-0.2-0.1-0.2-0.2l0-0.3c-0.1-0.6-0.3-0.9-0.7-0.9h-3.1c-0.1,0-0.2,0.1-0.2,0.2v3.9
		c0,0.2,0.1,0.4,0.2,0.6s0.3,0.2,0.6,0.2h2.7c0.6,0,1.1-0.1,1.5-0.4c0.4-0.3,0.7-0.7,0.9-1.2c0.1-0.2,0.1-0.3,0.3-0.3s0.2,0,0.3,0.1
		c0,0.1,0.1,0.1,0.1,0.2l-0.3,1.7c0,0.2-0.1,0.3-0.2,0.5C116,129,115.8,129.1,115.6,129.1z"/>
	<path class="st2" d="M123.5,117.4c1.1,0,1.9,0.3,2.6,0.8c0.7,0.5,1,1.3,1,2.2c0,0.9-0.3,1.6-1,2.2c-0.7,0.6-1.4,0.9-2.2,0.9l0,0
		c0.2,0.1,0.4,0.2,0.5,0.4l2.5,4c0.2,0.4,0.6,0.6,1.1,0.7l0.3,0c0.1,0,0.2,0.1,0.2,0.2c0,0.2-0.1,0.2-0.3,0.2c-1.1,0-1.7-0.1-2-0.1
		c-0.3,0-0.5-0.1-0.6-0.3l-2.8-4.7c-0.2-0.3-0.5-0.5-0.7-0.5h0h-1.2c-0.2,0-0.3,0.1-0.3,0.2v4.2c0,0.2,0.1,0.4,0.2,0.5
		c0.1,0.1,0.3,0.2,0.5,0.2l0.7,0c0.1,0,0.2,0.1,0.2,0.2c0,0.1-0.1,0.2-0.2,0.2l-2.1-0.1l-1.8,0.1c-0.1,0-0.2-0.1-0.3-0.2
		c0-0.2,0.1-0.2,0.2-0.3l0.5,0c0.5,0,0.7-0.3,0.7-0.7v-9.5c0-0.4-0.3-0.6-0.8-0.7l-0.5,0c-0.1,0-0.2-0.1-0.2-0.2
		c0-0.2,0.1-0.2,0.2-0.2l2.3,0.1H123.5z M124.8,122.2c0.5-0.4,0.8-1,0.8-1.7s-0.3-1.3-0.8-1.7c-0.5-0.4-1.2-0.6-1.9-0.6h-1.6
		c-0.4,0-0.7,0.2-0.7,0.7v3.7c0,0.1,0.1,0.2,0.2,0.2h2C123.7,122.8,124.3,122.6,124.8,122.2z"/>
</g>
<g>
	<path class="st2" d="M57.8,196.6h-6.2c-0.1,0-0.2-0.1-0.2-0.2v-0.1c0-0.1,0-0.2,0.1-0.3c0.5-0.8,1.1-1.7,1.8-2.7
		c0.7-1,1.3-1.8,1.6-2.3c0.4-0.5,0.7-1.1,1-1.7c0.3-0.6,0.4-1.3,0.4-1.8c0-0.6-0.2-1.1-0.5-1.4c-0.3-0.4-0.8-0.6-1.4-0.6
		c-0.6,0-1,0.2-1.4,0.5c-0.3,0.4-0.6,0.8-0.7,1.3c-0.1,0.2-0.2,0.3-0.3,0.3c-0.1,0-0.1,0-0.2-0.1c-0.1-0.1-0.1-0.1-0.1-0.2v-1.3
		c0-0.2,0.3-0.5,0.9-0.8c0.6-0.3,1.2-0.4,2-0.4c1,0,1.8,0.3,2.4,0.8c0.6,0.5,0.9,1.2,0.9,2.1c0,0.5-0.1,1.1-0.4,1.6
		c-0.3,0.6-0.6,1.1-0.9,1.5c-0.3,0.4-0.9,1.1-1.6,2c-0.7,0.9-1.4,1.7-1.9,2.4h4.1c0.4,0,0.6-0.1,0.7-0.3c0.1-0.2,0.2-0.3,0.3-0.3
		c0.2,0,0.2,0.1,0.2,0.3l-0.1,1.1c0,0.2-0.1,0.3-0.1,0.4C58,196.5,57.9,196.6,57.8,196.6z"/>
	<path class="st2" d="M61.3,195.1c-0.7-1.1-1.1-2.6-1.1-4.3c0-1.8,0.4-3.2,1.1-4.3c0.7-1.1,1.8-1.7,3.2-1.7c1.4,0,2.5,0.6,3.2,1.7
		c0.7,1.1,1.1,2.6,1.1,4.3c0,1.8-0.4,3.2-1.1,4.3c-0.7,1.1-1.8,1.7-3.2,1.7C63.1,196.8,62.1,196.2,61.3,195.1z M64.5,185.5
		c-1.8,0-2.8,1.8-2.8,5.3c0,3.5,0.9,5.3,2.8,5.3s2.8-1.8,2.8-5.3C67.3,187.2,66.4,185.5,64.5,185.5z"/>
	<path class="st2" d="M75.8,196.4c0,0.1,0,0.1-0.1,0.2c0,0-0.1,0.1-0.2,0.1l-2.3-0.1l-2.4,0.1c-0.2,0-0.3-0.1-0.3-0.2
		c0-0.2,0.1-0.2,0.2-0.2l0.9,0c0.2,0,0.4-0.1,0.6-0.2c0.2-0.1,0.3-0.3,0.3-0.5v-9.2c0-0.4-0.2-0.6-0.7-0.6c0,0,0,0-0.1,0l-1.1,0
		c-0.1,0-0.2-0.1-0.2-0.2s0.1-0.2,0.2-0.3l3-0.4c0.2,0,0.2,0.1,0.2,0.2v10.5c0,0.4,0.3,0.6,0.7,0.7l0.9,0
		C75.7,196.2,75.8,196.2,75.8,196.4z"/>
	<path class="st2" d="M82.6,191.1c0.6,0.5,0.9,1.2,0.9,1.9c0,0.7-0.2,1.4-0.5,1.9c-0.4,0.5-0.8,0.9-1.4,1.2
		c-1.2,0.6-2.4,0.9-3.8,0.9c-0.3,0-0.4-0.1-0.4-0.3c0-0.1,0-0.2,0.1-0.2c0.1-0.1,0.2-0.1,0.3-0.1c1.2-0.1,2.2-0.4,3-0.9
		c0.8-0.5,1.1-1.2,1.1-2.1c0-0.7-0.3-1.3-0.8-1.7c-0.5-0.4-1.2-0.6-2.1-0.6c-0.3,0-0.5-0.1-0.5-0.3c0-0.1,0.1-0.2,0.2-0.3
		c1.1-0.6,1.8-1.2,2.3-1.7c0.4-0.5,0.6-1,0.6-1.6c0-0.5-0.1-0.9-0.4-1.2c-0.3-0.3-0.6-0.4-1.1-0.4c-0.4,0-0.8,0.1-1,0.2
		c-0.3,0.2-0.5,0.3-0.6,0.5c-0.1,0.2-0.3,0.4-0.4,0.8c-0.2,0.4-0.3,0.5-0.5,0.5c-0.1,0-0.1,0-0.2-0.1c0-0.1-0.1-0.1-0.1-0.2v-1.3
		c0-0.2,0.3-0.5,0.8-0.7c0.5-0.3,1.2-0.4,2-0.4c0.8,0,1.5,0.2,2.1,0.6c0.6,0.4,0.9,0.9,0.9,1.7c0,0.7-0.3,1.3-1,1.9
		c-0.5,0.4-1.1,0.9-1.8,1.3C81.2,190.3,82,190.6,82.6,191.1z"/>
	<path class="st2" d="M97.7,187.1c0,0.2-0.1,0.3-0.2,0.3c-0.2,0-0.3-0.1-0.4-0.3c-0.2-0.5-0.4-0.9-0.7-1.1c-0.3-0.2-0.8-0.3-1.4-0.3
		h-2.4c-0.2,0-0.4,0.1-0.6,0.2c-0.1,0.1-0.2,0.3-0.2,0.6v3.7c0,0.1,0.1,0.2,0.2,0.2h2.9c0.1,0,0.3,0,0.4-0.1
		c0.1-0.1,0.2-0.1,0.2-0.2c0-0.1,0.1-0.2,0.1-0.4l0.1-0.2c0-0.1,0.1-0.2,0.2-0.2c0.2,0,0.2,0.1,0.2,0.2l-0.1,1.4l0.1,1.4
		c0,0.2-0.1,0.2-0.2,0.2c-0.1,0-0.2-0.1-0.2-0.2l0-0.3c0-0.3-0.1-0.5-0.2-0.6c-0.1-0.1-0.3-0.2-0.5-0.2h-2.9c-0.1,0-0.2,0.1-0.2,0.2
		v4.1c0,0.4,0.2,0.6,0.7,0.7l0.5,0c0.1,0,0.2,0.1,0.2,0.2c0,0.2-0.1,0.2-0.2,0.2l-1.9-0.1l-1.9,0.1c-0.2,0-0.2-0.1-0.2-0.2
		c0-0.1,0.1-0.2,0.2-0.2l0.5,0c0.2,0,0.4-0.1,0.5-0.2c0.1-0.1,0.2-0.3,0.2-0.5V186c0-0.4-0.3-0.6-0.8-0.7l-0.5,0
		c-0.1,0-0.2-0.1-0.2-0.2c0-0.1,0.1-0.2,0.2-0.2l1.9,0.1h5.7c0.2,0,0.4,0.1,0.5,0.2c0.1,0.1,0.2,0.3,0.2,0.5L97.7,187.1z"/>
	<path class="st2" d="M99.4,195.5c0,0.1,0,0.1,0,0.2c0,0.1,0,0.2,0.1,0.3c0.1,0.1,0.2,0.2,0.4,0.2l0.4,0c0.1,0,0.2,0.1,0.2,0.2
		c0,0.2-0.1,0.2-0.2,0.2l-1.4-0.1l-1.5,0.1c-0.2,0-0.2-0.1-0.2-0.2c0-0.1,0.1-0.2,0.2-0.2l0.3,0c0.5-0.1,0.8-0.3,1-0.7l4.3-10.5
		c0-0.1,0.2-0.2,0.4-0.2c0.2,0,0.4,0.1,0.4,0.2l4.3,10.5c0.1,0.4,0.5,0.6,0.9,0.7l0.3,0c0,0,0.1,0,0.1,0.1c0,0,0,0.1,0,0.1
		c0,0.2-0.1,0.2-0.2,0.2l-1.9-0.1l-1.7,0.1c-0.2,0-0.2-0.1-0.2-0.2c0-0.2,0.1-0.2,0.2-0.3l0.4,0c0.1,0,0.3-0.1,0.4-0.2
		c0.1-0.1,0.1-0.2,0.1-0.3s0-0.2,0-0.2l-1-2.5c0-0.1-0.1-0.2-0.3-0.2h-4.3c-0.1,0-0.2,0.1-0.3,0.2L99.4,195.5z M101,192h3.7
		c0.1,0,0.2-0.1,0.1-0.2l-2-5.1l-2,5.1C100.8,192,100.8,192,101,192z"/>
	<path class="st2" d="M112.5,186v9c0,0.2,0.1,0.4,0.2,0.6c0.1,0.1,0.3,0.2,0.6,0.2h2.4c0.6,0,1.1-0.1,1.5-0.4
		c0.4-0.3,0.7-0.7,0.9-1.2c0.1-0.2,0.2-0.3,0.3-0.3c0.2,0,0.3,0.1,0.2,0.3l-0.3,1.7c0,0.2-0.1,0.3-0.2,0.5c-0.1,0.1-0.3,0.2-0.5,0.2
		h-5.9l-1.9,0.1c-0.2,0-0.2-0.1-0.2-0.2c0-0.1,0.1-0.2,0.2-0.2l0.5,0c0.2,0,0.4-0.1,0.5-0.2c0.1-0.1,0.2-0.3,0.2-0.5V186
		c0-0.4-0.3-0.6-0.8-0.7l-0.5,0c-0.1,0-0.2-0.1-0.2-0.2c0-0.2,0.1-0.2,0.2-0.2l1.9,0.1l1.6-0.1c0.2,0,0.2,0.1,0.2,0.2
		c0,0.2-0.1,0.2-0.2,0.2l-0.3,0C112.7,185.4,112.5,185.7,112.5,186z"/>
	<path class="st2" d="M122.4,186v9c0,0.2,0.1,0.4,0.2,0.6c0.1,0.1,0.3,0.2,0.6,0.2h2.4c0.6,0,1.1-0.1,1.5-0.4
		c0.4-0.3,0.7-0.7,0.9-1.2c0.1-0.2,0.2-0.3,0.3-0.3s0.3,0.1,0.2,0.3l-0.3,1.7c0,0.2-0.1,0.3-0.2,0.5c-0.1,0.1-0.3,0.2-0.5,0.2h-5.9
		l-1.9,0.1c-0.2,0-0.2-0.1-0.2-0.2c0-0.1,0.1-0.2,0.2-0.2l0.5,0c0.2,0,0.4-0.1,0.5-0.2c0.1-0.1,0.2-0.3,0.2-0.5V186
		c0-0.4-0.3-0.6-0.8-0.7l-0.5,0c-0.1,0-0.2-0.1-0.2-0.2c0-0.2,0.1-0.2,0.2-0.2l1.9,0.1l1.6-0.1c0.2,0,0.2,0.1,0.2,0.2
		c0,0.2-0.1,0.2-0.2,0.2l-0.3,0C122.6,185.4,122.4,185.7,122.4,186z"/>
</g>
<g>
	<path class="st2" d="M101.3,263.7H95c-0.1,0-0.2-0.1-0.2-0.2v-0.1c0-0.1,0-0.2,0.1-0.3c0.5-0.8,1.1-1.7,1.8-2.7
		c0.7-1,1.3-1.8,1.6-2.3c0.4-0.5,0.7-1.1,1-1.7c0.3-0.6,0.4-1.3,0.4-1.8c0-0.6-0.2-1.1-0.5-1.4c-0.3-0.4-0.8-0.6-1.4-0.6
		c-0.6,0-1,0.2-1.4,0.5c-0.3,0.4-0.6,0.8-0.7,1.3c-0.1,0.2-0.2,0.3-0.3,0.3c-0.1,0-0.1,0-0.2-0.1c-0.1-0.1-0.1-0.1-0.1-0.2v-1.3
		c0-0.2,0.3-0.5,0.9-0.8c0.6-0.3,1.2-0.4,2-0.4c1,0,1.8,0.3,2.4,0.8c0.6,0.5,0.9,1.2,0.9,2.1c0,0.5-0.1,1.1-0.4,1.6
		c-0.3,0.6-0.6,1.1-0.9,1.5c-0.3,0.4-0.9,1.1-1.6,2c-0.7,0.9-1.4,1.7-1.9,2.4h4.1c0.4,0,0.6-0.1,0.7-0.3c0.1-0.2,0.2-0.3,0.3-0.3
		c0.2,0,0.2,0.1,0.2,0.3l-0.1,1.1c0,0.2-0.1,0.3-0.1,0.4C101.5,263.7,101.4,263.7,101.3,263.7z"/>
	<path class="st2" d="M104.8,262.3c-0.7-1.1-1.1-2.6-1.1-4.3c0-1.8,0.4-3.2,1.1-4.3c0.7-1.1,1.8-1.7,3.2-1.7c1.4,0,2.5,0.6,3.2,1.7
		c0.7,1.1,1.1,2.6,1.1,4.3c0,1.8-0.4,3.2-1.1,4.3c-0.7,1.1-1.8,1.7-3.2,1.7C106.6,263.9,105.5,263.4,104.8,262.3z M108,252.6
		c-1.8,0-2.8,1.8-2.8,5.3c0,3.5,0.9,5.3,2.8,5.3s2.8-1.8,2.8-5.3C110.7,254.4,109.8,252.6,108,252.6z"/>
	<path class="st2" d="M119.2,263.6c0,0.1,0,0.1-0.1,0.2c0,0-0.1,0.1-0.2,0.1l-2.3-0.1l-2.4,0.1c-0.2,0-0.3-0.1-0.3-0.2
		c0-0.2,0.1-0.2,0.2-0.2l0.9,0c0.2,0,0.4-0.1,0.6-0.2c0.2-0.1,0.3-0.3,0.3-0.5v-9.2c0-0.4-0.2-0.6-0.7-0.6c0,0,0,0-0.1,0l-1.1,0
		c-0.1,0-0.2-0.1-0.2-0.2s0.1-0.2,0.2-0.3l3-0.4c0.2,0,0.2,0.1,0.2,0.2v10.5c0,0.4,0.3,0.6,0.7,0.7l0.9,0
		C119.2,263.3,119.2,263.4,119.2,263.6z"/>
	<path class="st2" d="M128.6,260.2c0,0.2-0.1,0.3-0.3,0.3H127v2.9c0,0.2-0.1,0.3-0.3,0.3H126c-0.2,0-0.3-0.1-0.3-0.3v-2.9h-5.2
		c-0.1,0-0.2-0.1-0.2-0.2v-0.2c0-0.1,0-0.2,0.1-0.3l5.6-7.7c0.1-0.2,0.3-0.2,0.4-0.2h0.3c0.1,0,0.2,0,0.3,0.1s0.1,0.2,0.1,0.3v7.2
		h1.2c0.2,0,0.3,0.1,0.3,0.3V260.2z M125.6,259.6v-5.7l-3.9,5.4c0,0.1-0.1,0.1-0.1,0.2s0,0.1,0.1,0.1H125.6z"/>
</g>
<g>
	<path class="st2" d="M103.1,336h-6.2c-0.1,0-0.2-0.1-0.2-0.2v-0.1c0-0.1,0-0.2,0.1-0.3c0.5-0.8,1.1-1.7,1.8-2.7
		c0.7-1,1.3-1.8,1.6-2.3c0.4-0.5,0.7-1.1,1-1.7c0.3-0.6,0.4-1.3,0.4-1.8c0-0.6-0.2-1.1-0.5-1.4c-0.3-0.4-0.8-0.6-1.4-0.6
		c-0.6,0-1,0.2-1.4,0.5c-0.3,0.4-0.6,0.8-0.7,1.3c-0.1,0.2-0.2,0.3-0.3,0.3c-0.1,0-0.1,0-0.2-0.1c-0.1-0.1-0.1-0.1-0.1-0.2v-1.3
		c0-0.2,0.3-0.5,0.9-0.8c0.6-0.3,1.2-0.4,2-0.4c1,0,1.8,0.3,2.4,0.8c0.6,0.5,0.9,1.2,0.9,2.1c0,0.5-0.1,1.1-0.4,1.6
		c-0.3,0.6-0.6,1.1-0.9,1.5s-0.9,1.1-1.6,2c-0.7,0.9-1.4,1.7-1.9,2.4h4.1c0.4,0,0.6-0.1,0.7-0.3c0.1-0.2,0.2-0.3,0.3-0.3
		c0.2,0,0.2,0.1,0.2,0.3l-0.1,1.1c0,0.2-0.1,0.3-0.2,0.4C103.3,335.9,103.2,336,103.1,336z"/>
	<path class="st2" d="M106.6,334.5c-0.7-1.1-1.1-2.6-1.1-4.3c0-1.8,0.4-3.2,1.1-4.3c0.8-1.1,1.8-1.7,3.2-1.7c1.4,0,2.5,0.6,3.2,1.7
		c0.7,1.1,1.1,2.6,1.1,4.3c0,1.8-0.4,3.2-1.1,4.3c-0.7,1.1-1.8,1.7-3.2,1.7C108.4,336.2,107.3,335.6,106.6,334.5z M109.8,324.9
		c-1.8,0-2.8,1.8-2.8,5.3c0,3.5,0.9,5.3,2.8,5.3s2.8-1.8,2.8-5.3C112.5,326.6,111.6,324.9,109.8,324.9z"/>
	<path class="st2" d="M121,335.8c0,0.1,0,0.1-0.1,0.2c0,0-0.1,0.1-0.2,0.1l-2.3-0.1l-2.4,0.1c-0.2,0-0.3-0.1-0.3-0.2
		c0-0.2,0.1-0.2,0.2-0.2l0.9,0c0.2,0,0.4-0.1,0.6-0.2c0.2-0.1,0.3-0.3,0.3-0.5v-9.2c0-0.4-0.2-0.6-0.7-0.6c0,0,0,0-0.1,0l-1.1,0
		c-0.1,0-0.2-0.1-0.2-0.2s0.1-0.2,0.2-0.2l3-0.4c0.2,0,0.3,0.1,0.3,0.2v10.5c0,0.4,0.3,0.6,0.7,0.7l0.9,0
		C121,335.6,121,335.6,121,335.8z"/>
	<path class="st2" d="M128.1,325.7h-3.7l-0.3,2.6c1.4,0.2,2.4,0.6,3.3,1.3c0.8,0.7,1.2,1.5,1.2,2.5c0,0.7-0.2,1.3-0.5,1.8
		c-0.3,0.5-0.8,1-1.4,1.3c-1.1,0.7-2.3,1-3.5,1c-0.3,0-0.4-0.1-0.4-0.3c0-0.2,0.1-0.3,0.4-0.3c1.1-0.1,2-0.5,2.8-1
		c0.8-0.6,1.2-1.2,1.2-2.1c0-0.8-0.3-1.5-1-2c-0.7-0.5-1.5-0.8-2.6-0.9c-0.1,0-0.2,0-0.3-0.1c0,0,0-0.1,0-0.3l0.6-4.8
		c0-0.1,0.1-0.2,0.2-0.2h4.4c0.1,0,0.1,0,0.1,0.1c0,0,0,0.1,0,0.1l-0.1,1C128.3,325.7,128.2,325.7,128.1,325.7z"/>
</g>
<g>
	<path class="st2" d="M35.9,402.6h-6.2c-0.1,0-0.2-0.1-0.2-0.2v-0.1c0-0.1,0-0.2,0.1-0.3c0.5-0.8,1.1-1.7,1.8-2.7
		c0.7-1,1.3-1.8,1.6-2.3c0.4-0.5,0.7-1.1,1-1.7c0.3-0.6,0.4-1.3,0.4-1.8c0-0.6-0.2-1.1-0.5-1.4c-0.3-0.4-0.8-0.6-1.4-0.6
		c-0.6,0-1,0.2-1.4,0.5c-0.3,0.4-0.6,0.8-0.7,1.3c-0.1,0.2-0.2,0.3-0.3,0.3c-0.1,0-0.1,0-0.2-0.1c-0.1-0.1-0.1-0.1-0.1-0.2v-1.3
		c0-0.2,0.3-0.5,0.9-0.8c0.6-0.3,1.2-0.4,2-0.4c1,0,1.8,0.3,2.4,0.8c0.6,0.5,0.9,1.2,0.9,2.1c0,0.5-0.1,1.1-0.4,1.6
		c-0.3,0.6-0.6,1.1-0.9,1.5s-0.9,1.1-1.6,2c-0.7,0.9-1.4,1.7-1.9,2.4h4.1c0.4,0,0.6-0.1,0.7-0.3c0.1-0.2,0.2-0.3,0.3-0.3
		c0.2,0,0.2,0.1,0.2,0.3l-0.1,1.1c0,0.2-0.1,0.3-0.2,0.4C36.1,402.5,36,402.6,35.9,402.6z"/>
	<path class="st2" d="M39.4,401.1c-0.7-1.1-1.1-2.6-1.1-4.3c0-1.8,0.4-3.2,1.1-4.3c0.8-1.1,1.8-1.7,3.2-1.7c1.4,0,2.5,0.6,3.2,1.7
		c0.7,1.1,1.1,2.6,1.1,4.3c0,1.8-0.4,3.2-1.1,4.3c-0.7,1.1-1.8,1.7-3.2,1.7C41.2,402.7,40.1,402.2,39.4,401.1z M42.6,391.4
		c-1.8,0-2.8,1.8-2.8,5.3c0,3.5,0.9,5.3,2.8,5.3s2.8-1.8,2.8-5.3C45.3,393.2,44.4,391.4,42.6,391.4z"/>
	<path class="st2" d="M53.8,402.4c0,0.1,0,0.1-0.1,0.2c0,0-0.1,0.1-0.2,0.1l-2.3-0.1l-2.4,0.1c-0.2,0-0.3-0.1-0.3-0.2
		c0-0.2,0.1-0.2,0.2-0.2l0.9,0c0.2,0,0.4-0.1,0.6-0.2c0.2-0.1,0.3-0.3,0.3-0.5v-9.2c0-0.4-0.2-0.6-0.7-0.6c0,0,0,0-0.1,0l-1.1,0
		c-0.1,0-0.2-0.1-0.2-0.2s0.1-0.2,0.2-0.3l3-0.4c0.2,0,0.3,0.1,0.3,0.2v10.5c0,0.4,0.3,0.6,0.7,0.7l0.9,0
		C53.8,402.1,53.8,402.2,53.8,402.4z"/>
	<path class="st2" d="M63.1,399.2c0,1-0.4,1.8-1,2.5c-0.7,0.7-1.6,1.1-2.7,1.1c-1.1,0-2-0.4-2.7-1.1c-0.7-0.7-1-1.8-1-3.2
		c0-1.4,0.5-2.8,1.5-4.3c1-1.5,2.3-2.6,3.9-3.4c0,0,0.1,0,0.1,0s0.2,0,0.3,0.1c0.1,0,0.1,0.1,0.1,0.3s-0.1,0.3-0.3,0.4
		c-2.1,1.3-3.4,2.9-4,5.1c0.6-0.5,1.3-0.8,2.2-0.8c1.1,0,2,0.3,2.6,1C62.8,397.4,63.1,398.2,63.1,399.2z M57.8,401.2
		c0.4,0.5,0.9,0.8,1.6,0.8s1.2-0.3,1.6-0.8c0.4-0.5,0.6-1.2,0.6-2.1c0-0.8-0.2-1.5-0.6-2c-0.4-0.5-0.9-0.7-1.6-0.7
		c-0.7,0-1.2,0.2-1.6,0.7c-0.4,0.5-0.6,1.1-0.6,2C57.2,400,57.4,400.7,57.8,401.2z"/>
	<path class="st2" d="M76.5,399.5c0,1-0.4,1.8-1.2,2.4c-0.8,0.5-1.7,0.8-2.8,0.8c-1.1,0-2-0.1-2.7-0.4c-0.7-0.3-1.1-0.6-1.1-0.9
		v-1.9c0-0.2,0.1-0.3,0.3-0.3c0.1,0,0.2,0.1,0.3,0.3c0.3,0.9,0.7,1.5,1.1,1.9c0.5,0.4,1.1,0.6,1.9,0.6s1.5-0.2,2-0.6
		c0.5-0.4,0.8-0.9,0.8-1.6c0-0.7-0.4-1.3-1.2-1.8c-0.4-0.2-0.8-0.4-1.2-0.6s-0.9-0.4-1.3-0.7c-0.4-0.2-0.8-0.5-1.2-0.7
		c-0.8-0.6-1.2-1.4-1.2-2.3s0.4-1.6,1.1-2.2c0.7-0.5,1.5-0.8,2.5-0.8c1,0,1.8,0.1,2.4,0.4c0.7,0.2,1,0.5,1,0.8v1.7
		c0,0.2-0.1,0.3-0.2,0.3c-0.2,0-0.3-0.1-0.4-0.3c-0.2-0.7-0.5-1.2-0.9-1.6s-0.9-0.5-1.7-0.5c-0.7,0-1.3,0.2-1.8,0.5
		c-0.4,0.4-0.6,0.8-0.6,1.3c0,0.5,0.2,1,0.6,1.4c0.4,0.4,1,0.7,1.6,1c0.6,0.3,1.2,0.6,1.8,0.9c0.6,0.3,1.1,0.7,1.6,1.2
		C76.3,398.3,76.5,398.9,76.5,399.5z"/>
	<path class="st2" d="M82.7,390.9c1.3,0,2.3,0.3,3,0.9c0.7,0.6,1.1,1.4,1.1,2.3c0,1-0.3,1.8-1,2.4c-0.7,0.6-1.6,1-2.8,1h-2
		c-0.2,0-0.3,0.1-0.3,0.2v3.7c0,0.2,0.1,0.4,0.2,0.5c0.1,0.1,0.3,0.2,0.5,0.2l0.7,0c0.1,0,0.2,0.1,0.2,0.2c0,0.1-0.1,0.2-0.2,0.2
		l-2.1-0.1l-1.8,0.1c-0.2,0-0.3-0.1-0.3-0.2c0-0.2,0.1-0.2,0.2-0.2l0.5,0c0.5,0,0.7-0.3,0.7-0.7V392c0-0.4-0.3-0.6-0.8-0.7l-0.5,0
		c-0.1,0-0.2-0.1-0.2-0.2c0-0.2,0.1-0.2,0.2-0.2l2.3,0.1H82.7z M84.5,396c0.5-0.5,0.7-1.1,0.7-1.9c0-0.8-0.2-1.4-0.7-1.8
		c-0.5-0.5-1.2-0.7-2.1-0.7h-1c-0.4,0-0.7,0.2-0.7,0.7v4.2c0,0.1,0.1,0.2,0.2,0.2h1.5C83.2,396.7,84,396.5,84.5,396z"/>
	<path class="st2" d="M93.4,390.9c1.1,0,1.9,0.3,2.6,0.8c0.7,0.5,1,1.3,1,2.2c0,0.9-0.3,1.6-1,2.2c-0.7,0.6-1.4,0.9-2.2,0.9l0,0
		c0.2,0.1,0.4,0.2,0.5,0.4l2.5,4c0.2,0.4,0.6,0.6,1.1,0.7l0.3,0c0.1,0,0.2,0.1,0.2,0.2c0,0.2-0.1,0.2-0.3,0.2c-1.1,0-1.7-0.1-2-0.1
		c-0.3,0-0.5-0.1-0.6-0.3l-2.8-4.7c-0.2-0.3-0.5-0.5-0.7-0.5h0h-1.2c-0.2,0-0.3,0.1-0.3,0.2v4.2c0,0.2,0.1,0.4,0.2,0.5
		c0.1,0.1,0.3,0.2,0.5,0.2l0.7,0c0.1,0,0.2,0.1,0.2,0.2c0,0.1-0.1,0.2-0.2,0.2l-2.1-0.1l-1.8,0.1c-0.1,0-0.2-0.1-0.3-0.2
		c0-0.2,0.1-0.2,0.2-0.2l0.5,0c0.5,0,0.7-0.3,0.7-0.7V392c0-0.4-0.3-0.6-0.8-0.7l-0.5,0c-0.1,0-0.2-0.1-0.2-0.2
		c0-0.2,0.1-0.2,0.2-0.2l2.3,0.1H93.4z M94.7,395.6c0.5-0.4,0.8-1,0.8-1.7c0-0.7-0.3-1.3-0.8-1.7c-0.5-0.4-1.2-0.6-1.9-0.6h-1.6
		c-0.4,0-0.7,0.2-0.7,0.7v3.7c0,0.1,0.1,0.2,0.2,0.2h2C93.6,396.3,94.2,396.1,94.7,395.6z"/>
	<path class="st2" d="M99.3,402.6c-0.2,0-0.2-0.1-0.2-0.2c0-0.1,0.1-0.2,0.2-0.2l0.3,0c0.5-0.1,0.7-0.3,0.7-0.7V392
		c0-0.4-0.3-0.6-0.8-0.7l-0.5,0c-0.1,0-0.2-0.1-0.2-0.2c0-0.2,0.1-0.2,0.2-0.2l1.9,0.1l1.6-0.1c0.2,0,0.3,0.1,0.3,0.2
		c0,0.2-0.1,0.2-0.2,0.2l-0.3,0c-0.4,0.1-0.7,0.3-0.7,0.7v9.5c0,0.2,0.1,0.4,0.2,0.5c0.1,0.1,0.3,0.2,0.5,0.2l0.5,0
		c0.1,0,0.2,0.1,0.2,0.2c0,0.1,0,0.1-0.1,0.2c0,0-0.1,0.1-0.2,0.1l-1.9-0.1L99.3,402.6z"/>
	<path class="st2" d="M113.8,400.1V392c0-0.4-0.3-0.6-0.8-0.7l-0.5,0c-0.1,0-0.2-0.1-0.2-0.2s0.1-0.2,0.2-0.2l1.6,0l1.3,0
		c0.2,0,0.2,0.1,0.2,0.2s-0.1,0.2-0.2,0.2l-0.3,0c-0.4,0.1-0.7,0.3-0.7,0.7v10.5c0,0.1-0.1,0.2-0.2,0.2h-0.2c-0.3,0-0.5-0.1-0.7-0.4
		l-7-9c0,0-0.1,0-0.1,0c0,0-0.1,0.1-0.1,0.2v8c0,0.4,0.2,0.6,0.7,0.7l0.3,0c0.1,0,0.2,0.1,0.2,0.2s-0.1,0.2-0.3,0.2l-1.3,0l-1.6,0
		c-0.2,0-0.2-0.1-0.2-0.2s0.1-0.2,0.2-0.2l0.5,0c0.5-0.1,0.8-0.3,0.8-0.7V392c0-0.4-0.2-0.6-0.7-0.7l-0.3,0c-0.1,0-0.2-0.1-0.2-0.2
		s0.1-0.2,0.3-0.2l1.3,0c0.3,0,0.6,0.1,0.7,0.3l6.9,8.9C113.6,400.2,113.7,400.2,113.8,400.1C113.7,400.2,113.8,400.1,113.8,400.1z"
		/>
	<path class="st2" d="M123.2,390.7c0.9,0,1.8,0.1,2.5,0.4c0.8,0.3,1.1,0.5,1.1,0.7v1.9c0,0.1,0,0.2-0.1,0.2c0,0.1-0.1,0.1-0.2,0.1
		c-0.2,0-0.3-0.1-0.4-0.3c-0.2-0.7-0.6-1.3-1.1-1.7c-0.5-0.4-1.2-0.6-1.9-0.6c-1.4,0-2.5,0.5-3.3,1.4c-0.8,0.9-1.2,2.1-1.2,3.5
		c0,0.9,0.2,1.8,0.5,2.7c0.4,0.9,0.9,1.6,1.6,2.1s1.4,0.8,2.3,0.8s1.5-0.2,2.1-0.5c0.6-0.3,0.9-0.7,0.9-1.1v-2.1
		c0-0.4-0.3-0.6-0.7-0.7l-0.9-0.1c-0.1,0-0.2-0.1-0.2-0.2s0.1-0.2,0.2-0.2l2.3,0.1l1.6-0.1c0.2,0,0.2,0.1,0.2,0.2
		c0,0.2-0.1,0.2-0.2,0.2l-0.3,0.1c-0.4,0.1-0.7,0.3-0.7,0.7v3.2l0.1,0.9c0,0.2-0.1,0.3-0.2,0.3c-0.1,0-0.2-0.1-0.3-0.2
		c-0.2-0.4-0.5-0.6-0.9-0.6c-0.1,0-0.3,0.1-0.5,0.2c-0.8,0.4-1.6,0.6-2.7,0.6c-1.7,0-3.1-0.6-4.2-1.7c-1.1-1.1-1.6-2.6-1.6-4.3
		s0.6-3.2,1.7-4.3S121.4,390.7,123.2,390.7z"/>
</g>
<g>
	<path class="st2" d="M55,471.7h-6.2c-0.1,0-0.2-0.1-0.2-0.2v-0.1c0-0.1,0-0.2,0.1-0.3c0.5-0.8,1.1-1.7,1.8-2.7
		c0.7-1,1.3-1.8,1.6-2.3c0.4-0.5,0.7-1.1,1-1.7c0.3-0.6,0.4-1.3,0.4-1.8c0-0.6-0.2-1.1-0.5-1.4c-0.3-0.4-0.8-0.6-1.4-0.6
		c-0.6,0-1,0.2-1.4,0.5s-0.6,0.8-0.7,1.3c-0.1,0.2-0.2,0.3-0.3,0.3c-0.1,0-0.1,0-0.2-0.1c-0.1-0.1-0.1-0.1-0.1-0.2V461
		c0-0.2,0.3-0.5,0.9-0.8c0.6-0.3,1.2-0.4,2-0.4c1,0,1.8,0.3,2.4,0.8c0.6,0.5,0.9,1.2,0.9,2.1c0,0.5-0.1,1.1-0.4,1.6
		c-0.3,0.6-0.6,1.1-0.9,1.5s-0.9,1.1-1.6,2c-0.7,0.9-1.4,1.7-1.9,2.4h4.1c0.4,0,0.6-0.1,0.7-0.3c0.1-0.2,0.2-0.3,0.3-0.3
		c0.2,0,0.2,0.1,0.2,0.3l-0.1,1.1c0,0.2-0.1,0.3-0.1,0.4C55.2,471.7,55.1,471.7,55,471.7z"/>
	<path class="st2" d="M58.5,470.2c-0.7-1.1-1.1-2.6-1.1-4.3c0-1.8,0.4-3.2,1.1-4.3c0.8-1.1,1.8-1.7,3.2-1.7c1.4,0,2.5,0.6,3.2,1.7
		c0.7,1.1,1.1,2.6,1.1,4.3c0,1.8-0.4,3.2-1.1,4.3c-0.7,1.1-1.8,1.7-3.2,1.7C60.3,471.9,59.3,471.3,58.5,470.2z M61.7,460.6
		c-1.8,0-2.8,1.8-2.8,5.3c0,3.5,0.9,5.3,2.8,5.3c1.8,0,2.8-1.8,2.8-5.3C64.5,462.4,63.6,460.6,61.7,460.6z"/>
	<path class="st2" d="M73,471.5c0,0.1,0,0.1-0.1,0.2c0,0-0.1,0.1-0.2,0.1l-2.3-0.1l-2.4,0.1c-0.2,0-0.3-0.1-0.3-0.2
		c0-0.2,0.1-0.2,0.2-0.2l0.9,0c0.2,0,0.4-0.1,0.6-0.2c0.2-0.1,0.3-0.3,0.3-0.5v-9.2c0-0.4-0.2-0.6-0.7-0.6c0,0,0,0-0.1,0l-1.1,0
		c-0.1,0-0.2-0.1-0.2-0.2s0.1-0.2,0.2-0.3l3-0.4c0.2,0,0.3,0.1,0.3,0.2v10.5c0,0.4,0.3,0.6,0.7,0.7l0.9,0
		C72.9,471.3,73,471.4,73,471.5z"/>
	<path class="st2" d="M82.3,468.3c0,1-0.4,1.8-1,2.5c-0.7,0.7-1.6,1.1-2.7,1.1c-1.1,0-2-0.4-2.7-1.1c-0.7-0.7-1-1.8-1-3.2
		s0.5-2.8,1.5-4.3c1-1.5,2.3-2.6,3.9-3.4c0,0,0.1,0,0.1,0c0.1,0,0.2,0,0.3,0.1c0.1,0,0.1,0.1,0.1,0.3s-0.1,0.3-0.3,0.4
		c-2.1,1.3-3.4,2.9-4,5.1c0.6-0.5,1.3-0.8,2.2-0.8c1.1,0,2,0.3,2.6,1C82,466.5,82.3,467.4,82.3,468.3z M76.9,470.4
		c0.4,0.5,0.9,0.8,1.6,0.8c0.7,0,1.2-0.3,1.6-0.8c0.4-0.5,0.6-1.2,0.6-2.1c0-0.8-0.2-1.5-0.6-2c-0.4-0.5-0.9-0.7-1.6-0.7
		c-0.7,0-1.2,0.2-1.6,0.7c-0.4,0.5-0.6,1.1-0.6,2C76.3,469.2,76.5,469.9,76.9,470.4z"/>
	<path class="st2" d="M96.3,462.3c0,0.2-0.1,0.3-0.2,0.3s-0.3-0.1-0.4-0.3c-0.2-0.5-0.4-0.9-0.7-1.1c-0.3-0.2-0.8-0.3-1.4-0.3h-2.4
		c-0.2,0-0.4,0.1-0.6,0.2c-0.2,0.1-0.2,0.3-0.2,0.6v3.7c0,0.1,0.1,0.2,0.2,0.2h2.9c0.1,0,0.3,0,0.4-0.1c0.1-0.1,0.2-0.1,0.2-0.2
		c0-0.1,0.1-0.2,0.1-0.4l0.1-0.2c0-0.1,0.1-0.2,0.2-0.2c0.2,0,0.2,0.1,0.2,0.2l-0.1,1.4l0.1,1.4c0,0.2-0.1,0.2-0.2,0.2
		c-0.1,0-0.2-0.1-0.2-0.2l0-0.3c0-0.3-0.1-0.5-0.2-0.6c-0.1-0.1-0.3-0.2-0.5-0.2h-2.9c-0.1,0-0.2,0.1-0.2,0.2v4.1
		c0,0.4,0.2,0.6,0.7,0.7l0.5,0c0.1,0,0.2,0.1,0.2,0.2c0,0.2-0.1,0.2-0.2,0.2l-1.9-0.1l-1.9,0.1c-0.2,0-0.2-0.1-0.2-0.2
		s0.1-0.2,0.2-0.2l0.5,0c0.2,0,0.4-0.1,0.5-0.2c0.1-0.1,0.2-0.3,0.2-0.5v-9.5c0-0.4-0.3-0.6-0.8-0.7l-0.5,0c-0.1,0-0.2-0.1-0.2-0.2
		s0.1-0.2,0.2-0.2l1.9,0.1h5.7c0.2,0,0.4,0.1,0.5,0.2c0.1,0.1,0.2,0.3,0.2,0.5L96.3,462.3z"/>
	<path class="st2" d="M98.1,470.6c0,0.1,0,0.1,0,0.2s0,0.2,0.1,0.3c0.1,0.1,0.2,0.2,0.4,0.2l0.4,0c0.1,0,0.2,0.1,0.2,0.2
		c0,0.2-0.1,0.2-0.3,0.2l-1.4-0.1l-1.5,0.1c-0.2,0-0.2-0.1-0.2-0.2s0.1-0.2,0.2-0.2l0.3,0c0.5-0.1,0.8-0.3,1-0.7l4.3-10.5
		c0-0.1,0.2-0.2,0.4-0.2c0.2,0,0.4,0.1,0.4,0.2l4.3,10.5c0.1,0.4,0.5,0.6,0.9,0.7l0.3,0c0,0,0.1,0,0.1,0.1c0,0,0,0.1,0,0.1
		c0,0.2-0.1,0.2-0.2,0.2l-1.9-0.1l-1.7,0.1c-0.2,0-0.2-0.1-0.2-0.2c0-0.2,0.1-0.2,0.2-0.2l0.4,0c0.1,0,0.3-0.1,0.4-0.2
		c0.1-0.1,0.1-0.2,0.1-0.3s0-0.2,0-0.2l-1-2.5c0-0.1-0.1-0.2-0.3-0.2h-4.3c-0.1,0-0.2,0.1-0.3,0.2L98.1,470.6z M99.6,467.1h3.7
		c0.1,0,0.2-0.1,0.1-0.2l-2-5.1l-2,5.1C99.4,467.1,99.5,467.1,99.6,467.1z"/>
	<path class="st2" d="M111.1,461.2v9c0,0.2,0.1,0.4,0.2,0.6c0.1,0.1,0.3,0.2,0.6,0.2h2.4c0.6,0,1.1-0.1,1.5-0.4s0.7-0.7,0.9-1.2
		c0.1-0.2,0.2-0.3,0.3-0.3c0.2,0,0.3,0.1,0.2,0.3l-0.3,1.7c0,0.2-0.1,0.3-0.2,0.5c-0.1,0.1-0.3,0.2-0.5,0.2h-5.9l-1.9,0.1
		c-0.2,0-0.2-0.1-0.2-0.2s0.1-0.2,0.2-0.2l0.5,0c0.2,0,0.4-0.1,0.5-0.2c0.1-0.1,0.2-0.3,0.2-0.5v-9.5c0-0.4-0.3-0.6-0.8-0.7l-0.5,0
		c-0.1,0-0.2-0.1-0.2-0.2c0-0.2,0.1-0.2,0.2-0.2l1.9,0.1l1.6-0.1c0.2,0,0.2,0.1,0.2,0.2c0,0.2-0.1,0.2-0.2,0.2l-0.3,0
		C111.3,460.6,111.1,460.8,111.1,461.2z"/>
	<path class="st2" d="M121,461.2v9c0,0.2,0.1,0.4,0.2,0.6c0.1,0.1,0.3,0.2,0.6,0.2h2.4c0.6,0,1.1-0.1,1.5-0.4s0.7-0.7,0.9-1.2
		c0.1-0.2,0.2-0.3,0.3-0.3c0.2,0,0.3,0.1,0.2,0.3l-0.3,1.7c0,0.2-0.1,0.3-0.2,0.5c-0.1,0.1-0.3,0.2-0.5,0.2h-5.9l-1.9,0.1
		c-0.2,0-0.2-0.1-0.2-0.2s0.1-0.2,0.2-0.2l0.5,0c0.2,0,0.4-0.1,0.5-0.2c0.1-0.1,0.2-0.3,0.2-0.5v-9.5c0-0.4-0.3-0.6-0.8-0.7l-0.5,0
		c-0.1,0-0.2-0.1-0.2-0.2c0-0.2,0.1-0.2,0.2-0.2l1.9,0.1l1.6-0.1c0.2,0,0.2,0.1,0.2,0.2c0,0.2-0.1,0.2-0.2,0.2l-0.3,0
		C121.2,460.6,121,460.8,121,461.2z"/>
</g>
<g>
	<path class="st2" d="M36.4,537.2h-6.2c-0.1,0-0.2-0.1-0.2-0.2v-0.1c0-0.1,0-0.2,0.1-0.3c0.5-0.8,1.1-1.7,1.8-2.7
		c0.7-1,1.3-1.8,1.6-2.3c0.4-0.5,0.7-1.1,1-1.7c0.3-0.6,0.4-1.3,0.4-1.8c0-0.6-0.2-1.1-0.5-1.4c-0.3-0.4-0.8-0.6-1.4-0.6
		c-0.6,0-1,0.2-1.4,0.5s-0.6,0.8-0.7,1.3c-0.1,0.2-0.2,0.3-0.3,0.3c-0.1,0-0.1,0-0.2-0.1c-0.1-0.1-0.1-0.1-0.1-0.2v-1.3
		c0-0.2,0.3-0.5,0.9-0.8c0.6-0.3,1.2-0.4,2-0.4c1,0,1.8,0.3,2.4,0.8c0.6,0.5,0.9,1.2,0.9,2.1c0,0.5-0.1,1.1-0.4,1.6
		c-0.3,0.6-0.6,1.1-0.9,1.5c-0.3,0.4-0.9,1.1-1.6,2c-0.7,0.9-1.4,1.7-1.9,2.4h4.1c0.4,0,0.6-0.1,0.7-0.3c0.1-0.2,0.2-0.3,0.3-0.3
		c0.2,0,0.2,0.1,0.2,0.3l-0.1,1.1c0,0.2-0.1,0.3-0.1,0.4C36.6,537.1,36.5,537.2,36.4,537.2z"/>
	<path class="st2" d="M39.9,535.7c-0.7-1.1-1.1-2.6-1.1-4.3c0-1.8,0.4-3.2,1.1-4.3c0.8-1.1,1.8-1.7,3.2-1.7c1.4,0,2.5,0.6,3.2,1.7
		c0.7,1.1,1.1,2.6,1.1,4.3c0,1.8-0.4,3.2-1.1,4.3c-0.7,1.1-1.8,1.7-3.2,1.7C41.7,537.3,40.6,536.8,39.9,535.7z M43.1,526
		c-1.8,0-2.8,1.8-2.8,5.3c0,3.5,0.9,5.3,2.8,5.3c1.8,0,2.8-1.8,2.8-5.3C45.8,527.8,44.9,526,43.1,526z"/>
	<path class="st2" d="M54.4,537c0,0.1,0,0.1-0.1,0.2c0,0-0.1,0.1-0.2,0.1l-2.3-0.1l-2.4,0.1c-0.2,0-0.3-0.1-0.3-0.2
		c0-0.2,0.1-0.2,0.2-0.2l0.9,0c0.2,0,0.4-0.1,0.6-0.2c0.2-0.1,0.3-0.3,0.3-0.5v-9.2c0-0.4-0.2-0.6-0.7-0.6c0,0,0,0-0.1,0l-1.1,0
		c-0.1,0-0.2-0.1-0.2-0.2c0-0.1,0.1-0.2,0.2-0.2l3-0.4c0.2,0,0.3,0.1,0.3,0.2V536c0,0.4,0.3,0.6,0.7,0.7l0.9,0
		C54.3,536.7,54.4,536.8,54.4,537z"/>
	<path class="st2" d="M61.9,525.5c0.1,0,0.2,0.1,0.2,0.2c0,0,0,0.1,0,0.1c-1.7,4.9-2.8,8.7-3.5,11.2c0,0.1-0.1,0.2-0.2,0.2h-1.1
		c-0.1,0-0.1,0-0.1-0.1s0-0.1,0-0.1c0.5-1.5,1.7-4.8,3.8-10h-4.2c-0.4,0-0.6,0.1-0.7,0.3c-0.1,0.2-0.2,0.3-0.3,0.3
		c-0.1,0-0.2-0.1-0.2-0.3c0,0,0-0.4,0.1-1.1c0-0.2,0.1-0.3,0.1-0.4c0.1-0.1,0.2-0.1,0.3-0.1H61.9z"/>
	<path class="st2" d="M75.1,534.1c0,1-0.4,1.8-1.2,2.4c-0.8,0.5-1.7,0.8-2.8,0.8c-1.1,0-2-0.1-2.7-0.4c-0.7-0.3-1.1-0.6-1.1-0.9
		v-1.9c0-0.2,0.1-0.3,0.3-0.3c0.1,0,0.2,0.1,0.3,0.3c0.3,0.9,0.7,1.5,1.1,1.9c0.5,0.4,1.1,0.6,1.9,0.6s1.5-0.2,2-0.6
		c0.5-0.4,0.8-0.9,0.8-1.6c0-0.7-0.4-1.3-1.2-1.8c-0.4-0.2-0.8-0.4-1.2-0.6c-0.4-0.2-0.9-0.4-1.3-0.7c-0.4-0.2-0.8-0.5-1.2-0.7
		c-0.8-0.6-1.2-1.4-1.2-2.3s0.4-1.6,1.1-2.2c0.7-0.5,1.5-0.8,2.5-0.8c1,0,1.8,0.1,2.4,0.4c0.7,0.2,1,0.5,1,0.8v1.7
		c0,0.2-0.1,0.3-0.2,0.3c-0.2,0-0.3-0.1-0.4-0.3c-0.2-0.7-0.5-1.2-0.9-1.6c-0.4-0.3-0.9-0.5-1.7-0.5s-1.3,0.2-1.8,0.5
		c-0.4,0.4-0.6,0.8-0.6,1.3c0,0.5,0.2,1,0.6,1.4c0.4,0.4,1,0.7,1.6,1c0.6,0.3,1.2,0.6,1.8,0.9c0.6,0.3,1.1,0.7,1.6,1.2
		C74.9,532.9,75.1,533.5,75.1,534.1z"/>
	<path class="st2" d="M81.3,525.5c1.3,0,2.3,0.3,3,0.9c0.7,0.6,1.1,1.4,1.1,2.3c0,1-0.3,1.8-1,2.4c-0.7,0.6-1.6,1-2.8,1h-2
		c-0.2,0-0.3,0.1-0.3,0.2v3.7c0,0.2,0.1,0.4,0.2,0.5c0.1,0.1,0.3,0.2,0.5,0.2l0.7,0c0.1,0,0.2,0.1,0.2,0.2c0,0.1-0.1,0.2-0.2,0.2
		l-2.1-0.1l-1.8,0.1c-0.2,0-0.3-0.1-0.3-0.2c0-0.2,0.1-0.2,0.2-0.2l0.5,0c0.5,0,0.7-0.3,0.7-0.7v-9.5c0-0.4-0.3-0.6-0.8-0.7l-0.5,0
		c-0.1,0-0.2-0.1-0.2-0.2c0-0.2,0.1-0.2,0.2-0.2l2.3,0.1H81.3z M83.1,530.6c0.5-0.5,0.7-1.1,0.7-1.9c0-0.8-0.2-1.4-0.7-1.8
		c-0.5-0.5-1.2-0.7-2.1-0.7h-1c-0.4,0-0.7,0.2-0.7,0.7v4.2c0,0.1,0.1,0.2,0.2,0.2H81C81.9,531.4,82.6,531.1,83.1,530.6z"/>
	<path class="st2" d="M92,525.5c1.1,0,1.9,0.3,2.6,0.8c0.7,0.5,1,1.3,1,2.2c0,0.9-0.3,1.6-1,2.2c-0.7,0.6-1.4,0.9-2.2,0.9l0,0
		c0.2,0.1,0.4,0.2,0.5,0.4l2.5,4c0.2,0.4,0.6,0.6,1.1,0.7l0.3,0c0.1,0,0.2,0.1,0.2,0.2c0,0.2-0.1,0.2-0.3,0.2c-1.1,0-1.7-0.1-2-0.1
		c-0.3,0-0.5-0.1-0.6-0.3l-2.8-4.7c-0.2-0.3-0.5-0.5-0.7-0.5h0h-1.2c-0.2,0-0.3,0.1-0.3,0.2v4.2c0,0.2,0.1,0.4,0.2,0.5
		c0.1,0.1,0.3,0.2,0.5,0.2l0.7,0c0.1,0,0.2,0.1,0.2,0.2c0,0.1-0.1,0.2-0.2,0.2l-2.1-0.1l-1.8,0.1c-0.1,0-0.2-0.1-0.3-0.2
		c0-0.2,0.1-0.2,0.2-0.2l0.5,0c0.5,0,0.7-0.3,0.7-0.7v-9.5c0-0.4-0.3-0.6-0.8-0.7l-0.5,0c-0.1,0-0.2-0.1-0.2-0.2
		c0-0.2,0.1-0.2,0.2-0.2l2.3,0.1H92z M93.4,530.2c0.5-0.4,0.8-1,0.8-1.7s-0.3-1.3-0.8-1.7c-0.5-0.4-1.2-0.6-1.9-0.6h-1.6
		c-0.4,0-0.7,0.2-0.7,0.7v3.7c0,0.1,0.1,0.2,0.2,0.2h2C92.2,530.9,92.9,530.7,93.4,530.2z"/>
	<path class="st2" d="M97.9,537.2c-0.2,0-0.2-0.1-0.2-0.2c0-0.1,0.1-0.2,0.2-0.2l0.3,0c0.5-0.1,0.7-0.3,0.7-0.7v-9.5
		c0-0.4-0.3-0.6-0.8-0.7l-0.5,0c-0.1,0-0.2-0.1-0.2-0.2c0-0.2,0.1-0.2,0.2-0.2l1.9,0.1l1.6-0.1c0.2,0,0.3,0.1,0.3,0.2
		c0,0.2-0.1,0.2-0.2,0.2l-0.3,0c-0.4,0.1-0.7,0.3-0.7,0.7v9.5c0,0.2,0.1,0.4,0.2,0.5c0.1,0.1,0.3,0.2,0.5,0.2l0.5,0
		c0.1,0,0.2,0.1,0.2,0.2c0,0.1,0,0.1-0.1,0.2c0,0-0.1,0.1-0.2,0.1l-1.9-0.1L97.9,537.2z"/>
	<path class="st2" d="M112.4,534.7v-8.1c0-0.4-0.3-0.6-0.8-0.7l-0.5,0c-0.1,0-0.2-0.1-0.2-0.2c0-0.1,0.1-0.2,0.2-0.2l1.6,0l1.3,0
		c0.2,0,0.2,0.1,0.2,0.2c0,0.1-0.1,0.2-0.2,0.2l-0.3,0c-0.4,0.1-0.7,0.3-0.7,0.7v10.5c0,0.1-0.1,0.2-0.2,0.2h-0.2
		c-0.3,0-0.5-0.1-0.7-0.4l-7-9c0,0-0.1,0-0.1,0c0,0-0.1,0.1-0.1,0.2v8c0,0.4,0.2,0.6,0.7,0.7l0.3,0c0.1,0,0.2,0.1,0.2,0.2
		c0,0.1-0.1,0.2-0.3,0.2l-1.3,0l-1.6,0c-0.2,0-0.2-0.1-0.2-0.2c0-0.1,0.1-0.2,0.2-0.2l0.5,0c0.5-0.1,0.8-0.3,0.8-0.7v-9.5
		c0-0.4-0.2-0.6-0.7-0.7l-0.3,0c-0.1,0-0.2-0.1-0.2-0.2s0.1-0.2,0.3-0.2l1.3,0c0.3,0,0.6,0.1,0.7,0.3l6.9,8.9
		C112.3,534.8,112.3,534.8,112.4,534.7C112.4,534.8,112.4,534.7,112.4,534.7z"/>
	<path class="st2" d="M121.8,525.3c0.9,0,1.8,0.1,2.5,0.4c0.8,0.3,1.1,0.5,1.1,0.7v1.9c0,0.1,0,0.2-0.1,0.2c0,0.1-0.1,0.1-0.2,0.1
		c-0.2,0-0.3-0.1-0.4-0.3c-0.2-0.7-0.6-1.3-1.1-1.7c-0.5-0.4-1.2-0.6-1.9-0.6c-1.4,0-2.5,0.5-3.3,1.4c-0.8,0.9-1.2,2.1-1.2,3.5
		c0,0.9,0.2,1.8,0.5,2.7c0.4,0.9,0.9,1.6,1.6,2.1c0.7,0.6,1.4,0.8,2.3,0.8s1.5-0.2,2.1-0.5c0.6-0.3,0.9-0.7,0.9-1.1v-2.1
		c0-0.4-0.3-0.6-0.7-0.7l-0.9-0.1c-0.1,0-0.2-0.1-0.2-0.2s0.1-0.2,0.2-0.2l2.3,0.1l1.6-0.1c0.2,0,0.2,0.1,0.2,0.2
		c0,0.2-0.1,0.2-0.2,0.2l-0.3,0.1c-0.4,0.1-0.7,0.3-0.7,0.7v3.2l0.1,0.9c0,0.2-0.1,0.3-0.2,0.3c-0.1,0-0.2-0.1-0.3-0.2
		c-0.2-0.4-0.5-0.6-0.9-0.6c-0.1,0-0.3,0.1-0.5,0.2c-0.8,0.4-1.6,0.6-2.7,0.6c-1.7,0-3.1-0.6-4.2-1.7c-1.1-1.1-1.6-2.6-1.6-4.3
		c0-1.7,0.6-3.2,1.7-4.3C118.6,525.9,120,525.3,121.8,525.3z"/>
</g>
</svg>
