<?xml version="1.0" encoding="utf-8"?>
<!-- Generator: Adobe Illustrator 20.0.0, SVG Export Plug-In . SVG Version: 6.00 Build 0)  -->
<svg version="1.1" id="Objects" xmlns="http://www.w3.org/2000/svg" xmlns:xlink="http://www.w3.org/1999/xlink" x="0px" y="0px"
	 viewBox="0 0 673.6 585.9" style="enable-background:new 0 0 673.6 585.9;" xml:space="preserve">
<style type="text/css">
	.st0{display:none;fill:#3F2E51;}
	.st1{display:none;fill:#FFFFFF;stroke:#3F2E51;stroke-width:3;stroke-miterlimit:10;}
	.st2{fill:#FFFFFF;}
	.st3{fill:#92AF1F;stroke:#FFFFFF;stroke-width:3;stroke-miterlimit:10;}
	.st4{fill:#FFFFFF;stroke:#92AF1F;stroke-width:3;stroke-miterlimit:10;}
	.st5{fill:none;}
	.st6{fill:#3F2E51;}
	.st7{font-family:'Lustria-Regular';}
	.st8{font-size:16px;}
	.st9{font-family:'MyriadPro-Regular';}
	.st10{fill:#FFFFFF;stroke:#FFFFFF;stroke-miterlimit:10;}
</style>
<rect x="-126.4" class="st0" width="800" height="599.9"/>
<circle class="st1" cx="284.6" cy="77.9" r="21.9"/>
<circle class="st1" cx="284.6" cy="169.9" r="21.9"/>
<circle class="st1" cx="284.6" cy="262" r="21.9"/>
<circle class="st1" cx="284.6" cy="354" r="21.9"/>
<circle class="st1" cx="284.6" cy="446" r="21.9"/>
<circle class="st1" cx="284.6" cy="538" r="21.9"/>
<circle class="st1" cx="284.6" cy="630.1" r="21.9"/>
<circle class="st1" cx="284.6" cy="722.1" r="21.9"/>
<rect x="149.1" y="19.5" class="st2" width="2.2" height="547.2"/>
<circle class="st3" cx="150.2" cy="53.2" r="7.4"/>
<circle class="st3" cx="150.2" cy="120.9" r="7.4"/>
<circle class="st3" cx="150.2" cy="189.7" r="7.4"/>
<circle class="st3" cx="150.2" cy="257.5" r="7.4"/>
<circle class="st3" cx="150.2" cy="326.9" r="7.4"/>
<circle class="st3" cx="150.2" cy="394.6" r="7.4"/>
<circle class="st3" cx="150.2" cy="464.1" r="7.4"/>
<circle class="st3" cx="150.2" cy="531.8" r="7.4"/>
<rect x="208.3" y="36.3" class="st4" width="477.4" height="34"/>
<rect x="208.3" y="104.9" class="st4" width="477.4" height="31.9"/>
<rect x="208.3" y="173.5" class="st4" width="477.4" height="31.9"/>
<rect x="208.3" y="242.2" class="st4" width="477.4" height="31.9"/>
<rect x="208.3" y="310.8" class="st4" width="477.4" height="31.9"/>
<rect x="208.3" y="379.5" class="st4" width="477.4" height="31.9"/>
<rect x="208.3" y="448.1" class="st4" width="477.4" height="31.9"/>
<rect x="208.3" y="516.7" class="st4" width="477.4" height="31.9"/>
<circle class="st2" cx="168.9" cy="54.3" r="2.1"/>
<circle class="st2" cx="176" cy="54.3" r="2.1"/>
<circle class="st2" cx="183" cy="54.3" r="2.1"/>
<circle class="st2" cx="189.8" cy="54.3" r="2.1"/>
<circle class="st2" cx="196.1" cy="54.3" r="2.1"/>
<circle class="st2" cx="168.9" cy="122.1" r="2.1"/>
<circle class="st2" cx="176" cy="122.1" r="2.1"/>
<circle class="st2" cx="183" cy="122.1" r="2.1"/>
<circle class="st2" cx="189.8" cy="122.1" r="2.1"/>
<circle class="st2" cx="196.1" cy="122.1" r="2.1"/>
<circle class="st2" cx="170.5" cy="188.7" r="2.1"/>
<circle class="st2" cx="177.7" cy="188.7" r="2.1"/>
<circle class="st2" cx="184.7" cy="188.7" r="2.1"/>
<circle class="st2" cx="191.4" cy="188.7" r="2.1"/>
<circle class="st2" cx="197.8" cy="188.7" r="2.1"/>
<circle class="st2" cx="171.2" cy="326.4" r="2.1"/>
<circle class="st2" cx="178.3" cy="326.4" r="2.1"/>
<circle class="st2" cx="185.3" cy="326.4" r="2.1"/>
<circle class="st2" cx="192" cy="326.4" r="2.1"/>
<circle class="st2" cx="198.4" cy="326.4" r="2.1"/>
<circle class="st2" cx="171.5" cy="532.3" r="2.1"/>
<circle class="st2" cx="178.6" cy="532.3" r="2.1"/>
<circle class="st2" cx="185.6" cy="532.3" r="2.1"/>
<circle class="st2" cx="192.3" cy="532.3" r="2.1"/>
<circle class="st2" cx="198.7" cy="532.3" r="2.1"/>
<circle class="st2" cx="169.9" cy="257.9" r="2.1"/>
<circle class="st2" cx="177" cy="257.9" r="2.1"/>
<circle class="st2" cx="184" cy="257.9" r="2.1"/>
<circle class="st2" cx="190.8" cy="257.9" r="2.1"/>
<circle class="st2" cx="197.1" cy="257.9" r="2.1"/>
<circle class="st2" cx="170.2" cy="396" r="2.1"/>
<circle class="st2" cx="177.3" cy="396" r="2.1"/>
<circle class="st2" cx="184.3" cy="396" r="2.1"/>
<circle class="st2" cx="191" cy="396" r="2.1"/>
<circle class="st2" cx="197.4" cy="396" r="2.1"/>
<circle class="st2" cx="170.2" cy="465.1" r="2.1"/>
<circle class="st2" cx="177.3" cy="465.1" r="2.1"/>
<circle class="st2" cx="184.3" cy="465.1" r="2.1"/>
<circle class="st2" cx="191" cy="465.1" r="2.1"/>
<circle class="st2" cx="197.4" cy="465.1" r="2.1"/>
<rect x="203.6" y="46.1" class="st5" width="482.1" height="16.5"/>
<text transform="matrix(1 0 0 1 222.4297 58.8671)" class="st6 st7 st8">Experiencing issues in IT contracting, team comes together.</text>
<rect x="203.6" y="113.8" class="st5" width="484.1" height="16.5"/>
<text transform="matrix(1 0 0 1 247.9785 126.6061)" class="st6 st7 st8">Starts research and analysis of wider industry impact.</text>
<rect x="203" y="182.6" class="st5" width="487.2" height="16.5"/>
<text transform="matrix(1 0 0 1 220.9081 195.3957)"><tspan x="0" y="0" class="st6 st7 st8">Pathway set for Ideas: Design, Solutions </tspan><tspan x="298.2" y="0" class="st6 st9 st8">and </tspan><tspan x="327.2" y="0" class="st6 st7 st8">Implementation.</tspan></text>
<rect x="203.6" y="250.3" class="st5" width="486.8" height="18.4"/>
<text transform="matrix(1 0 0 1 220.627 263.1233)" class="st6 st7 st8">Team forms an entity &amp; starts running pilots with companies.</text>
<rect x="203.6" y="319.3" class="st5" width="482.1" height="18.4"/>
<text transform="matrix(1 0 0 1 365.5871 332.1465)" class="st6 st7 st8">Development begins.</text>
<rect x="203.6" y="386.8" class="st5" width="484.1" height="18.4"/>
<text transform="matrix(1 0 0 1 228.3303 399.6434)" class="st6 st7 st8">Right Comply goes into Beta and welcomes early adopters.</text>
<rect x="204" y="456.4" class="st5" width="481.6" height="18.4"/>
<text transform="matrix(1 0 0 1 308.0548 469.1973)" class="st6 st7 st8">Right Comply formally incorporated.</text>
<rect x="209.7" y="525.2" class="st5" width="476" height="18.4"/>
<text transform="matrix(1 0 0 1 357.7055 538.0206)" class="st6 st7 st8">Right Comply launched.</text>
<g>
	<g>
		<path class="st10" d="M13.8,116.1c0.5,0,1,0.1,1.4,0.2c0.5,0.1,0.8,0.4,1.2,0.7c0.3,0.3,0.6,0.7,0.8,1.1c0.2,0.4,0.3,1,0.3,1.5
			c0,0.5-0.1,0.9-0.2,1.4c-0.1,0.4-0.4,0.8-0.6,1.2c-0.3,0.4-0.6,0.8-0.9,1.1c-0.3,0.4-0.7,0.7-1.1,1.1l-4.1,4.2
			c0.2,0,0.4-0.1,0.6-0.1c0.2,0,0.4,0,0.6,0h5.6c0.1,0,0.2,0,0.2,0.1c0.1,0.1,0.1,0.1,0.1,0.2v0.5H9.5v-0.3c0-0.1,0-0.1,0.1-0.2
			c0-0.1,0.1-0.1,0.1-0.2l4.4-4.5c0.4-0.4,0.7-0.7,1-1.1c0.3-0.3,0.6-0.7,0.8-1.1c0.2-0.4,0.4-0.7,0.5-1.1c0.1-0.4,0.2-0.8,0.2-1.2
			c0-0.5-0.1-0.9-0.2-1.2c-0.2-0.4-0.4-0.6-0.6-0.9c-0.3-0.2-0.6-0.4-0.9-0.5c-0.3-0.1-0.7-0.2-1.1-0.2c-0.4,0-0.8,0.1-1.1,0.2
			c-0.3,0.1-0.7,0.3-0.9,0.5c-0.3,0.2-0.5,0.5-0.7,0.8c-0.2,0.3-0.3,0.6-0.4,1c-0.1,0.2-0.2,0.3-0.4,0.3c0,0,0,0,0,0c0,0,0,0,0,0
			l-0.4-0.1c0.1-0.6,0.2-1.1,0.5-1.5c0.2-0.4,0.5-0.8,0.9-1.1c0.3-0.3,0.8-0.5,1.2-0.7C12.8,116.2,13.3,116.1,13.8,116.1z"/>
	</g>
	<g>
		<path class="st10" d="M28.9,122.7c0,1.1-0.1,2.1-0.4,3c-0.2,0.8-0.6,1.5-1,2.1c-0.4,0.5-0.9,1-1.5,1.2c-0.6,0.3-1.2,0.4-1.8,0.4
			c-0.6,0-1.2-0.1-1.8-0.4c-0.6-0.3-1.1-0.7-1.5-1.2c-0.4-0.5-0.8-1.2-1-2.1c-0.2-0.8-0.4-1.8-0.4-3c0-1.1,0.1-2.1,0.4-3
			c0.2-0.8,0.6-1.5,1-2.1c0.4-0.5,0.9-1,1.5-1.2c0.6-0.3,1.2-0.4,1.8-0.4c0.6,0,1.2,0.1,1.8,0.4c0.6,0.3,1.1,0.7,1.5,1.2
			c0.4,0.5,0.8,1.2,1,2.1C28.8,120.6,28.9,121.6,28.9,122.7z M28,122.7c0-1.1-0.1-2-0.3-2.7c-0.2-0.7-0.5-1.4-0.8-1.8
			c-0.3-0.5-0.7-0.8-1.2-1c-0.5-0.2-0.9-0.3-1.4-0.3c-0.5,0-1,0.1-1.4,0.3s-0.9,0.6-1.2,1c-0.3,0.5-0.6,1.1-0.8,1.8
			c-0.2,0.7-0.3,1.6-0.3,2.7c0,1.1,0.1,2,0.3,2.7c0.2,0.7,0.5,1.4,0.8,1.8c0.3,0.5,0.7,0.8,1.2,1c0.5,0.2,0.9,0.3,1.4,0.3
			c0.5,0,1-0.1,1.4-0.3c0.5-0.2,0.9-0.6,1.2-1c0.3-0.5,0.6-1.1,0.8-1.8C27.9,124.7,28,123.8,28,122.7z"/>
	</g>
	<g>
		<path class="st10" d="M32.4,128.6h3V118c0-0.2,0-0.4,0-0.7l-2.9,2.5c-0.1,0.1-0.1,0.1-0.2,0.1c-0.1,0-0.2,0-0.2-0.1l-0.3-0.4
			l3.8-3.3h0.7v12.4h2.8v0.7h-6.7V128.6z"/>
	</g>
	<g>
		<path class="st10" d="M45.9,116.1c0.5,0,1,0.1,1.4,0.2c0.4,0.1,0.8,0.3,1.2,0.6c0.3,0.3,0.6,0.6,0.8,1c0.2,0.4,0.3,0.9,0.3,1.4
			c0,0.4-0.1,0.8-0.2,1.1c-0.1,0.3-0.3,0.6-0.5,0.9c-0.2,0.3-0.5,0.5-0.8,0.6c-0.3,0.2-0.7,0.3-1,0.4c1,0.2,1.7,0.5,2.2,1.1
			c0.5,0.6,0.7,1.3,0.7,2.1c0,0.5-0.1,1-0.3,1.5c-0.2,0.5-0.5,0.8-0.9,1.2s-0.8,0.6-1.3,0.8c-0.5,0.2-1.1,0.3-1.7,0.3
			c-0.7,0-1.4-0.1-1.9-0.3c-0.5-0.2-0.9-0.5-1.2-0.8c-0.3-0.3-0.6-0.7-0.7-1.1c-0.2-0.4-0.3-0.8-0.4-1.2l0.3-0.1c0.1,0,0.1,0,0.2,0
			s0.1,0,0.2,0c0.1,0,0.1,0.1,0.1,0.2l0.1,0.2c0,0.1,0.1,0.2,0.2,0.4c0.1,0.2,0.2,0.3,0.3,0.5c0.1,0.2,0.2,0.3,0.4,0.5
			c0.2,0.2,0.4,0.3,0.6,0.5c0.2,0.1,0.5,0.2,0.8,0.3c0.3,0.1,0.7,0.1,1.1,0.1c0.6,0,1-0.1,1.4-0.3c0.4-0.2,0.8-0.4,1-0.7
			c0.3-0.3,0.5-0.6,0.6-1c0.1-0.4,0.2-0.7,0.2-1c0-0.4-0.1-0.8-0.2-1.1c-0.1-0.3-0.3-0.6-0.6-0.9c-0.3-0.2-0.7-0.4-1.2-0.6
			c-0.5-0.1-1.1-0.2-1.8-0.2v-0.6c0.6,0,1.1-0.1,1.5-0.2c0.4-0.1,0.8-0.3,1.1-0.6c0.3-0.2,0.5-0.5,0.7-0.9c0.1-0.3,0.2-0.7,0.2-1.1
			c0-0.5-0.1-0.9-0.2-1.2c-0.2-0.3-0.4-0.6-0.6-0.8c-0.3-0.2-0.6-0.4-0.9-0.5c-0.3-0.1-0.7-0.2-1.1-0.2c-0.4,0-0.8,0.1-1.1,0.2
			s-0.6,0.3-0.9,0.5c-0.3,0.2-0.5,0.5-0.7,0.8c-0.2,0.3-0.3,0.7-0.4,1c0,0.2-0.2,0.3-0.3,0.3c0,0-0.1,0-0.1,0l-0.4-0.1
			c0.1-0.6,0.2-1.1,0.5-1.5c0.2-0.4,0.5-0.8,0.9-1.1c0.3-0.3,0.8-0.5,1.2-0.7C44.8,116.2,45.3,116.1,45.9,116.1z"/>
	</g>
	<g>
		<path class="st10" d="M62.6,117.8c-0.1,0.1-0.1,0.2-0.2,0.2c-0.1,0-0.2-0.1-0.3-0.2c-0.1-0.1-0.3-0.2-0.5-0.4
			c-0.2-0.1-0.5-0.3-0.8-0.4c-0.3-0.1-0.7-0.2-1.2-0.2s-0.9,0.1-1.2,0.2c-0.4,0.1-0.7,0.3-0.9,0.6c-0.2,0.2-0.4,0.5-0.6,0.8
			c-0.1,0.3-0.2,0.6-0.2,1c0,0.4,0.1,0.8,0.3,1.1c0.2,0.3,0.4,0.5,0.7,0.7c0.3,0.2,0.7,0.4,1,0.5c0.4,0.1,0.8,0.3,1.2,0.4
			c0.4,0.1,0.8,0.3,1.2,0.4c0.4,0.2,0.7,0.4,1,0.6c0.3,0.2,0.6,0.5,0.7,0.9c0.2,0.4,0.3,0.8,0.3,1.3c0,0.5-0.1,1.1-0.3,1.5
			c-0.2,0.5-0.5,0.9-0.8,1.3c-0.4,0.4-0.8,0.6-1.3,0.8s-1.1,0.3-1.8,0.3c-0.9,0-1.6-0.2-2.2-0.5c-0.6-0.3-1.2-0.7-1.6-1.2l0.3-0.4
			c0.1-0.1,0.2-0.1,0.3-0.1c0.1,0,0.1,0,0.2,0.1c0.1,0.1,0.2,0.2,0.3,0.3c0.1,0.1,0.3,0.2,0.4,0.3s0.4,0.2,0.6,0.3
			c0.2,0.1,0.5,0.2,0.8,0.3c0.3,0.1,0.6,0.1,1,0.1c0.5,0,1-0.1,1.4-0.2c0.4-0.2,0.7-0.4,1-0.6c0.3-0.3,0.5-0.6,0.6-1
			c0.1-0.4,0.2-0.8,0.2-1.2c0-0.5-0.1-0.8-0.3-1.1c-0.2-0.3-0.4-0.5-0.7-0.7c-0.3-0.2-0.7-0.4-1-0.5c-0.4-0.1-0.8-0.3-1.2-0.4
			c-0.4-0.1-0.8-0.3-1.2-0.4c-0.4-0.2-0.7-0.4-1-0.6c-0.3-0.2-0.6-0.6-0.7-0.9c-0.2-0.4-0.3-0.8-0.3-1.4c0-0.4,0.1-0.9,0.2-1.3
			c0.2-0.4,0.4-0.8,0.7-1.1c0.3-0.3,0.7-0.6,1.2-0.7c0.5-0.2,1-0.3,1.6-0.3c0.7,0,1.3,0.1,1.8,0.3c0.5,0.2,1,0.5,1.5,1L62.6,117.8z"
			/>
	</g>
	<g>
		<path class="st10" d="M70.8,128.6c0.6,0,1.2-0.1,1.7-0.3c0.5-0.2,0.9-0.5,1.3-0.9c0.3-0.4,0.6-0.8,0.8-1.4
			c0.2-0.5,0.3-1.1,0.3-1.7v-8h0.9v8c0,0.7-0.1,1.4-0.3,2c-0.2,0.6-0.6,1.2-1,1.6c-0.4,0.5-0.9,0.8-1.6,1.1
			c-0.6,0.3-1.3,0.4-2.1,0.4c-0.8,0-1.4-0.1-2.1-0.4c-0.6-0.3-1.1-0.6-1.6-1.1c-0.4-0.5-0.8-1-1-1.6c-0.2-0.6-0.3-1.3-0.3-2v-8h0.9
			v8c0,0.6,0.1,1.2,0.3,1.7c0.2,0.5,0.4,1,0.8,1.4c0.3,0.4,0.8,0.7,1.2,0.9C69.6,128.5,70.1,128.6,70.8,128.6z"/>
	</g>
	<g>
		<path class="st10" d="M85.9,126c0-0.1,0.1-0.2,0.1-0.3c0-0.1,0.1-0.2,0.1-0.3l5.1-9c0-0.1,0.1-0.1,0.1-0.1c0,0,0.1,0,0.2,0h0.7v13
			h-0.8v-11.1c0-0.2,0-0.3,0-0.5l-5.1,9.1c-0.1,0.2-0.2,0.2-0.4,0.2h-0.1c-0.2,0-0.3-0.1-0.4-0.2l-5.3-9.1c0,0.2,0,0.3,0,0.5v11.1
			h-0.8v-13h0.6c0.1,0,0.2,0,0.2,0c0.1,0,0.1,0.1,0.2,0.1l5.2,9C85.8,125.6,85.8,125.8,85.9,126z"/>
	</g>
	<g>
		<path class="st10" d="M102.6,126c0-0.1,0.1-0.2,0.1-0.3c0-0.1,0.1-0.2,0.1-0.3l5.1-9c0-0.1,0.1-0.1,0.1-0.1c0,0,0.1,0,0.2,0h0.7
			v13h-0.8v-11.1c0-0.2,0-0.3,0-0.5l-5.1,9.1c-0.1,0.2-0.2,0.2-0.4,0.2h-0.1c-0.2,0-0.3-0.1-0.4-0.2l-5.3-9.1c0,0.2,0,0.3,0,0.5
			v11.1h-0.8v-13h0.6c0.1,0,0.2,0,0.2,0c0.1,0,0.1,0.1,0.2,0.1l5.2,9C102.5,125.6,102.5,125.8,102.6,126z"/>
	</g>
	<g>
		<path class="st10" d="M120.6,116.3v0.8h-6.8v5.3h5.7v0.8h-5.7v5.4h6.8v0.8h-7.8v-13H120.6z"/>
	</g>
	<g>
		<path class="st10" d="M124.9,123.4v5.9H124v-13h3.3c1.5,0,2.6,0.3,3.4,0.9c0.7,0.6,1.1,1.4,1.1,2.5c0,0.5-0.1,0.9-0.3,1.4
			c-0.2,0.4-0.4,0.8-0.7,1.1c-0.3,0.3-0.7,0.6-1.2,0.8c-0.5,0.2-1,0.3-1.5,0.4c0.1,0.1,0.3,0.2,0.4,0.4l4.5,5.6h-0.8
			c-0.1,0-0.2,0-0.3-0.1s-0.1-0.1-0.2-0.2l-4.2-5.3c-0.1-0.1-0.2-0.2-0.3-0.3c-0.1-0.1-0.3-0.1-0.6-0.1H124.9z M124.9,122.7h2.3
			c0.6,0,1.1-0.1,1.5-0.2s0.8-0.3,1.2-0.6c0.3-0.3,0.6-0.6,0.7-0.9c0.2-0.4,0.2-0.8,0.2-1.2c0-0.9-0.3-1.6-0.9-2.1
			c-0.6-0.4-1.5-0.7-2.6-0.7h-2.4V122.7z"/>
	</g>
</g>
<g>
	<g>
		<path class="st10" d="M28.4,46.2c0.5,0,1,0.1,1.4,0.2c0.5,0.1,0.8,0.4,1.2,0.7c0.3,0.3,0.6,0.7,0.8,1.1c0.2,0.4,0.3,1,0.3,1.5
			c0,0.5-0.1,0.9-0.2,1.4c-0.1,0.4-0.4,0.8-0.6,1.2c-0.3,0.4-0.6,0.8-0.9,1.1c-0.3,0.4-0.7,0.7-1.1,1.1l-4.1,4.2
			c0.2,0,0.4-0.1,0.6-0.1c0.2,0,0.4,0,0.6,0h5.6c0.1,0,0.2,0,0.2,0.1c0.1,0.1,0.1,0.1,0.1,0.2v0.5h-8.4v-0.3c0-0.1,0-0.1,0.1-0.2
			c0-0.1,0.1-0.1,0.1-0.2l4.4-4.5c0.4-0.4,0.7-0.7,1-1.1c0.3-0.3,0.6-0.7,0.8-1.1c0.2-0.4,0.4-0.7,0.5-1.1c0.1-0.4,0.2-0.8,0.2-1.2
			c0-0.5-0.1-0.9-0.2-1.2c-0.2-0.4-0.4-0.6-0.6-0.9c-0.3-0.2-0.6-0.4-0.9-0.5C29.1,47,28.8,47,28.4,47c-0.4,0-0.8,0.1-1.1,0.2
			c-0.3,0.1-0.7,0.3-0.9,0.5c-0.3,0.2-0.5,0.5-0.7,0.8c-0.2,0.3-0.3,0.6-0.4,1c-0.1,0.2-0.2,0.3-0.4,0.3c0,0,0,0,0,0c0,0,0,0,0,0
			l-0.4-0.1c0.1-0.6,0.2-1.1,0.5-1.5c0.2-0.4,0.5-0.8,0.9-1.1c0.3-0.3,0.8-0.5,1.2-0.7C27.4,46.3,27.9,46.2,28.4,46.2z"/>
	</g>
	<g>
		<path class="st10" d="M43.6,52.9c0,1.1-0.1,2.1-0.4,3c-0.2,0.8-0.6,1.5-1,2.1c-0.4,0.5-0.9,1-1.5,1.2c-0.6,0.3-1.2,0.4-1.8,0.4
			c-0.6,0-1.2-0.1-1.8-0.4c-0.6-0.3-1.1-0.7-1.5-1.2c-0.4-0.5-0.8-1.2-1-2.1c-0.2-0.8-0.4-1.8-0.4-3s0.1-2.1,0.4-3
			c0.2-0.8,0.6-1.5,1-2.1c0.4-0.5,0.9-1,1.5-1.2c0.6-0.3,1.2-0.4,1.8-0.4c0.6,0,1.2,0.1,1.8,0.4c0.6,0.3,1.1,0.7,1.5,1.2
			c0.4,0.5,0.8,1.2,1,2.1C43.4,50.8,43.6,51.7,43.6,52.9z M42.6,52.9c0-1.1-0.1-2-0.3-2.7c-0.2-0.7-0.5-1.4-0.8-1.8
			c-0.3-0.5-0.7-0.8-1.2-1c-0.5-0.2-0.9-0.3-1.4-0.3c-0.5,0-1,0.1-1.4,0.3c-0.5,0.2-0.9,0.6-1.2,1c-0.3,0.5-0.6,1.1-0.8,1.8
			c-0.2,0.7-0.3,1.6-0.3,2.7c0,1.1,0.1,2,0.3,2.7c0.2,0.7,0.5,1.4,0.8,1.8c0.3,0.5,0.7,0.8,1.2,1c0.5,0.2,0.9,0.3,1.4,0.3
			c0.5,0,1-0.1,1.4-0.3c0.5-0.2,0.9-0.6,1.2-1c0.3-0.5,0.6-1.1,0.8-1.8C42.5,54.8,42.6,53.9,42.6,52.9z"/>
	</g>
	<g>
		<path class="st10" d="M47.1,58.7h3V48.2c0-0.2,0-0.4,0-0.7L47.2,50c-0.1,0.1-0.1,0.1-0.2,0.1c-0.1,0-0.2,0-0.2-0.1l-0.3-0.4
			l3.8-3.3h0.7v12.4h2.8v0.7h-6.7V58.7z"/>
	</g>
	<g>
		<path class="st10" d="M60.5,46.2c0.5,0,1,0.1,1.4,0.2c0.4,0.1,0.8,0.3,1.2,0.6c0.3,0.3,0.6,0.6,0.8,1c0.2,0.4,0.3,0.9,0.3,1.4
			c0,0.4-0.1,0.8-0.2,1.1c-0.1,0.3-0.3,0.6-0.5,0.9c-0.2,0.3-0.5,0.5-0.8,0.6c-0.3,0.2-0.7,0.3-1,0.4c1,0.2,1.7,0.5,2.2,1.1
			c0.5,0.6,0.7,1.3,0.7,2.1c0,0.5-0.1,1-0.3,1.5c-0.2,0.5-0.5,0.8-0.9,1.2c-0.4,0.3-0.8,0.6-1.3,0.8c-0.5,0.2-1.1,0.3-1.7,0.3
			c-0.7,0-1.4-0.1-1.9-0.3c-0.5-0.2-0.9-0.5-1.2-0.8c-0.3-0.3-0.6-0.7-0.7-1.1c-0.2-0.4-0.3-0.8-0.4-1.2l0.3-0.1c0.1,0,0.1,0,0.2,0
			s0.1,0,0.2,0c0.1,0,0.1,0.1,0.1,0.2l0.1,0.2c0,0.1,0.1,0.2,0.2,0.4c0.1,0.2,0.2,0.3,0.3,0.5c0.1,0.2,0.2,0.3,0.4,0.5
			c0.2,0.2,0.4,0.3,0.6,0.5c0.2,0.1,0.5,0.2,0.8,0.3c0.3,0.1,0.7,0.1,1.1,0.1c0.6,0,1-0.1,1.4-0.3s0.8-0.4,1-0.7
			c0.3-0.3,0.5-0.6,0.6-1c0.1-0.4,0.2-0.7,0.2-1c0-0.4-0.1-0.8-0.2-1.1c-0.1-0.3-0.3-0.6-0.6-0.9c-0.3-0.2-0.7-0.4-1.2-0.6
			c-0.5-0.1-1.1-0.2-1.8-0.2v-0.6c0.6,0,1.1-0.1,1.5-0.2c0.4-0.1,0.8-0.3,1.1-0.6c0.3-0.2,0.5-0.5,0.7-0.9c0.1-0.3,0.2-0.7,0.2-1.1
			c0-0.5-0.1-0.9-0.2-1.2c-0.2-0.3-0.4-0.6-0.6-0.8c-0.3-0.2-0.6-0.4-0.9-0.5C61.2,47,60.8,47,60.5,47c-0.4,0-0.8,0.1-1.1,0.2
			s-0.6,0.3-0.9,0.5c-0.3,0.2-0.5,0.5-0.7,0.8c-0.2,0.3-0.3,0.7-0.4,1c0,0.2-0.2,0.3-0.3,0.3c0,0-0.1,0-0.1,0l-0.4-0.1
			c0.1-0.6,0.2-1.1,0.5-1.5c0.2-0.4,0.5-0.8,0.9-1.1c0.3-0.3,0.8-0.5,1.2-0.7C59.5,46.3,60,46.2,60.5,46.2z"/>
	</g>
	<g>
		<path class="st10" d="M77.3,48c-0.1,0.1-0.1,0.2-0.2,0.2c-0.1,0-0.2-0.1-0.3-0.2c-0.1-0.1-0.3-0.2-0.5-0.4
			c-0.2-0.1-0.5-0.3-0.8-0.4c-0.3-0.1-0.7-0.2-1.2-0.2c-0.5,0-0.9,0.1-1.2,0.2c-0.4,0.1-0.7,0.3-0.9,0.6c-0.2,0.2-0.4,0.5-0.6,0.8
			c-0.1,0.3-0.2,0.6-0.2,1c0,0.4,0.1,0.8,0.3,1.1c0.2,0.3,0.4,0.5,0.7,0.7c0.3,0.2,0.7,0.4,1,0.5c0.4,0.1,0.8,0.3,1.2,0.4
			c0.4,0.1,0.8,0.3,1.2,0.4c0.4,0.2,0.7,0.4,1,0.6c0.3,0.2,0.6,0.5,0.7,0.9c0.2,0.4,0.3,0.8,0.3,1.3c0,0.5-0.1,1.1-0.3,1.5
			c-0.2,0.5-0.5,0.9-0.8,1.3c-0.4,0.4-0.8,0.6-1.3,0.8c-0.5,0.2-1.1,0.3-1.8,0.3c-0.9,0-1.6-0.2-2.2-0.5c-0.6-0.3-1.2-0.7-1.6-1.2
			l0.3-0.4c0.1-0.1,0.2-0.1,0.3-0.1c0.1,0,0.1,0,0.2,0.1c0.1,0.1,0.2,0.2,0.3,0.3c0.1,0.1,0.3,0.2,0.4,0.3c0.2,0.1,0.4,0.2,0.6,0.3
			c0.2,0.1,0.5,0.2,0.8,0.3c0.3,0.1,0.6,0.1,1,0.1c0.5,0,1-0.1,1.4-0.2c0.4-0.2,0.7-0.4,1-0.6c0.3-0.3,0.5-0.6,0.6-1
			c0.1-0.4,0.2-0.8,0.2-1.2c0-0.5-0.1-0.8-0.3-1.1c-0.2-0.3-0.4-0.5-0.7-0.7c-0.3-0.2-0.7-0.4-1-0.5c-0.4-0.1-0.8-0.3-1.2-0.4
			c-0.4-0.1-0.8-0.3-1.2-0.4c-0.4-0.2-0.7-0.4-1-0.6c-0.3-0.2-0.6-0.6-0.7-0.9s-0.3-0.8-0.3-1.4c0-0.4,0.1-0.9,0.2-1.3
			c0.2-0.4,0.4-0.8,0.7-1.1c0.3-0.3,0.7-0.6,1.2-0.7c0.5-0.2,1-0.3,1.6-0.3c0.7,0,1.3,0.1,1.8,0.3c0.5,0.2,1,0.5,1.5,1L77.3,48z"/>
	</g>
	<g>
		<path class="st10" d="M81.8,54.1v5.2h-0.9v-13h3.4c1.5,0,2.7,0.3,3.4,1c0.8,0.7,1.2,1.6,1.2,2.9c0,0.6-0.1,1.1-0.3,1.6
			c-0.2,0.5-0.5,0.9-0.9,1.2c-0.4,0.3-0.9,0.6-1.5,0.8c-0.6,0.2-1.2,0.3-1.9,0.3H81.8z M81.8,53.4h2.4c0.6,0,1.1-0.1,1.5-0.2
			c0.5-0.2,0.8-0.4,1.2-0.7c0.3-0.3,0.6-0.6,0.7-1c0.2-0.4,0.3-0.8,0.3-1.3c0-1-0.3-1.8-0.9-2.3c-0.6-0.5-1.5-0.8-2.8-0.8h-2.4V53.4
			z"/>
	</g>
	<g>
		<path class="st10" d="M92.7,53.5v5.9h-0.9v-13h3.3c1.5,0,2.6,0.3,3.4,0.9c0.7,0.6,1.1,1.4,1.1,2.5c0,0.5-0.1,0.9-0.3,1.4
			c-0.2,0.4-0.4,0.8-0.7,1.1c-0.3,0.3-0.7,0.6-1.2,0.8c-0.5,0.2-1,0.3-1.5,0.4c0.1,0.1,0.3,0.2,0.4,0.4l4.5,5.6h-0.8
			c-0.1,0-0.2,0-0.3-0.1c-0.1,0-0.1-0.1-0.2-0.2l-4.2-5.3c-0.1-0.1-0.2-0.2-0.3-0.3c-0.1-0.1-0.3-0.1-0.6-0.1H92.7z M92.7,52.8H95
			c0.6,0,1.1-0.1,1.5-0.2c0.5-0.1,0.8-0.3,1.2-0.6c0.3-0.3,0.6-0.6,0.7-0.9c0.2-0.4,0.2-0.8,0.2-1.2c0-0.9-0.3-1.6-0.9-2.1
			c-0.6-0.4-1.5-0.7-2.6-0.7h-2.4V52.8z"/>
	</g>
	<g>
		<path class="st10" d="M104.4,59.4h-0.9v-13h0.9V59.4z"/>
	</g>
	<g>
		<path class="st10" d="M109.2,46.4c0,0,0.1,0.1,0.2,0.1l8.4,11.3c0-0.2,0-0.4,0-0.5V46.4h0.8v13h-0.4c-0.1,0-0.3-0.1-0.3-0.2
			l-8.4-11.3c0,0.2,0,0.4,0,0.5v10.9h-0.8v-13h0.5C109.1,46.4,109.2,46.4,109.2,46.4z"/>
	</g>
	<g>
		<path class="st10" d="M128.1,58.8c0.4,0,0.9,0,1.2-0.1c0.4,0,0.7-0.1,1-0.2c0.3-0.1,0.6-0.2,0.9-0.3c0.3-0.1,0.6-0.3,0.9-0.4v-3.5
			h-2.5c-0.1,0-0.1,0-0.2-0.1c0,0-0.1-0.1-0.1-0.1v-0.5h3.6v4.6c-0.3,0.2-0.7,0.4-1,0.6c-0.3,0.2-0.7,0.3-1.1,0.4
			c-0.4,0.1-0.8,0.2-1.3,0.3c-0.5,0.1-1,0.1-1.5,0.1c-0.9,0-1.8-0.2-2.6-0.5c-0.8-0.3-1.4-0.8-2-1.3c-0.6-0.6-1-1.3-1.3-2.1
			c-0.3-0.8-0.5-1.7-0.5-2.7c0-1,0.2-1.9,0.5-2.7c0.3-0.8,0.7-1.5,1.3-2.1c0.6-0.6,1.2-1,2.1-1.3c0.8-0.3,1.7-0.5,2.7-0.5
			c0.5,0,1,0,1.4,0.1c0.4,0.1,0.8,0.2,1.2,0.3c0.4,0.1,0.7,0.3,1,0.5c0.3,0.2,0.6,0.4,0.9,0.7l-0.2,0.4c-0.1,0.1-0.1,0.1-0.2,0.1
			c-0.1,0-0.1,0-0.2,0c-0.1,0-0.2-0.1-0.4-0.3c-0.2-0.1-0.4-0.3-0.7-0.4c-0.3-0.1-0.7-0.3-1.1-0.4c-0.4-0.1-1-0.2-1.6-0.2
			c-0.8,0-1.6,0.1-2.3,0.4c-0.7,0.3-1.3,0.7-1.7,1.2c-0.5,0.5-0.9,1.1-1.1,1.8c-0.3,0.7-0.4,1.5-0.4,2.4c0,0.9,0.1,1.7,0.4,2.5
			c0.3,0.7,0.6,1.3,1.1,1.9c0.5,0.5,1,0.9,1.7,1.2C126.5,58.6,127.3,58.8,128.1,58.8z"/>
	</g>
</g>
<g>
	<path class="st10" d="M52.6,182.8c0.5,0,1,0.1,1.4,0.2c0.5,0.1,0.8,0.4,1.2,0.7c0.3,0.3,0.6,0.7,0.8,1.1c0.2,0.4,0.3,1,0.3,1.5
		c0,0.5-0.1,0.9-0.2,1.4c-0.1,0.4-0.4,0.8-0.6,1.2c-0.3,0.4-0.6,0.8-0.9,1.1c-0.3,0.4-0.7,0.7-1.1,1.1l-4.1,4.2
		c0.2,0,0.4-0.1,0.6-0.1c0.2,0,0.4,0,0.6,0h5.6c0.1,0,0.2,0,0.2,0.1c0.1,0.1,0.1,0.1,0.1,0.2v0.5h-8.4v-0.3c0-0.1,0-0.1,0.1-0.2
		c0-0.1,0.1-0.1,0.1-0.2l4.4-4.5c0.4-0.4,0.7-0.7,1-1.1c0.3-0.3,0.6-0.7,0.8-1.1c0.2-0.4,0.4-0.7,0.5-1.1c0.1-0.4,0.2-0.8,0.2-1.2
		c0-0.5-0.1-0.9-0.2-1.2c-0.2-0.4-0.4-0.6-0.6-0.9c-0.3-0.2-0.6-0.4-0.9-0.5c-0.3-0.1-0.7-0.2-1.1-0.2c-0.4,0-0.8,0.1-1.1,0.2
		c-0.3,0.1-0.7,0.3-0.9,0.5c-0.3,0.2-0.5,0.5-0.7,0.8c-0.2,0.3-0.3,0.6-0.4,1c-0.1,0.2-0.2,0.3-0.4,0.3c0,0,0,0,0,0c0,0,0,0,0,0
		l-0.4-0.1c0.1-0.6,0.2-1.1,0.5-1.5c0.2-0.4,0.5-0.8,0.9-1.1c0.3-0.3,0.8-0.5,1.2-0.7C51.5,182.9,52,182.8,52.6,182.8z"/>
	<path class="st10" d="M67.7,189.5c0,1.1-0.1,2.1-0.4,3c-0.2,0.8-0.6,1.5-1,2.1c-0.4,0.5-0.9,1-1.5,1.2c-0.6,0.3-1.2,0.4-1.8,0.4
		c-0.6,0-1.2-0.1-1.8-0.4c-0.6-0.3-1.1-0.7-1.5-1.2c-0.4-0.5-0.8-1.2-1-2.1c-0.2-0.8-0.4-1.8-0.4-3s0.1-2.1,0.4-3
		c0.2-0.8,0.6-1.5,1-2.1c0.4-0.5,0.9-1,1.5-1.2c0.6-0.3,1.2-0.4,1.8-0.4c0.6,0,1.2,0.1,1.8,0.4s1.1,0.7,1.5,1.2
		c0.4,0.5,0.8,1.2,1,2.1C67.6,187.4,67.7,188.3,67.7,189.5z M66.8,189.5c0-1.1-0.1-2-0.3-2.7c-0.2-0.7-0.5-1.4-0.8-1.8
		c-0.3-0.5-0.7-0.8-1.2-1c-0.5-0.2-0.9-0.3-1.4-0.3c-0.5,0-1,0.1-1.4,0.3c-0.5,0.2-0.9,0.6-1.2,1c-0.3,0.5-0.6,1.1-0.8,1.8
		c-0.2,0.7-0.3,1.6-0.3,2.7c0,1.1,0.1,2,0.3,2.7c0.2,0.7,0.5,1.4,0.8,1.8c0.3,0.5,0.7,0.8,1.2,1s0.9,0.3,1.4,0.3
		c0.5,0,1-0.1,1.4-0.3c0.5-0.2,0.9-0.6,1.2-1c0.3-0.5,0.6-1.1,0.8-1.8C66.7,191.4,66.8,190.5,66.8,189.5z"/>
	<path class="st10" d="M71.2,195.3h3v-10.6c0-0.2,0-0.4,0-0.7l-2.9,2.5c-0.1,0.1-0.1,0.1-0.2,0.1c-0.1,0-0.2,0-0.2-0.1l-0.3-0.4
		l3.8-3.3H75v12.4h2.8v0.7h-6.7V195.3z"/>
	<path class="st10" d="M84.6,182.8c0.5,0,1,0.1,1.4,0.2c0.4,0.1,0.8,0.3,1.2,0.6c0.3,0.3,0.6,0.6,0.8,1s0.3,0.9,0.3,1.4
		c0,0.4-0.1,0.8-0.2,1.1c-0.1,0.3-0.3,0.6-0.5,0.9c-0.2,0.3-0.5,0.5-0.8,0.6c-0.3,0.2-0.7,0.3-1,0.4c1,0.2,1.7,0.5,2.2,1.1
		c0.5,0.6,0.7,1.3,0.7,2.1c0,0.5-0.1,1-0.3,1.5c-0.2,0.5-0.5,0.8-0.9,1.2c-0.4,0.3-0.8,0.6-1.3,0.8c-0.5,0.2-1.1,0.3-1.7,0.3
		c-0.7,0-1.4-0.1-1.9-0.3c-0.5-0.2-0.9-0.5-1.2-0.8s-0.6-0.7-0.7-1.1c-0.2-0.4-0.3-0.8-0.4-1.2l0.3-0.1c0.1,0,0.1,0,0.2,0
		c0.1,0,0.1,0,0.2,0c0.1,0,0.1,0.1,0.1,0.2l0.1,0.2c0,0.1,0.1,0.2,0.2,0.4c0.1,0.2,0.2,0.3,0.3,0.5c0.1,0.2,0.2,0.3,0.4,0.5
		c0.2,0.2,0.4,0.3,0.6,0.5c0.2,0.1,0.5,0.2,0.8,0.3c0.3,0.1,0.7,0.1,1.1,0.1c0.6,0,1-0.1,1.4-0.3c0.4-0.2,0.8-0.4,1-0.7
		c0.3-0.3,0.5-0.6,0.6-1c0.1-0.4,0.2-0.7,0.2-1c0-0.4-0.1-0.8-0.2-1.1c-0.1-0.3-0.3-0.6-0.6-0.9c-0.3-0.2-0.7-0.4-1.2-0.6
		c-0.5-0.1-1.1-0.2-1.8-0.2V189c0.6,0,1.1-0.1,1.5-0.2c0.4-0.1,0.8-0.3,1.1-0.6c0.3-0.2,0.5-0.5,0.7-0.9c0.1-0.3,0.2-0.7,0.2-1.1
		c0-0.5-0.1-0.9-0.2-1.2c-0.2-0.3-0.4-0.6-0.6-0.8c-0.3-0.2-0.6-0.4-0.9-0.5c-0.3-0.1-0.7-0.2-1.1-0.2c-0.4,0-0.8,0.1-1.1,0.2
		s-0.6,0.3-0.9,0.5c-0.3,0.2-0.5,0.5-0.7,0.8c-0.2,0.3-0.3,0.7-0.4,1c0,0.2-0.2,0.3-0.3,0.3c0,0-0.1,0-0.1,0l-0.4-0.1
		c0.1-0.6,0.2-1.1,0.5-1.5c0.2-0.4,0.5-0.8,0.9-1.1c0.3-0.3,0.8-0.5,1.2-0.7C83.6,182.9,84.1,182.8,84.6,182.8z"/>
	<path class="st10" d="M102.9,183v0.8h-6.8v5.5h5.9v0.8h-5.9v6h-0.9v-13H102.9z"/>
	<path class="st10" d="M114.4,196h-0.7c-0.1,0-0.2,0-0.2-0.1c-0.1,0-0.1-0.1-0.1-0.2l-1.5-3.8h-6.4l-1.5,3.8c0,0.1-0.1,0.1-0.1,0.2
		c-0.1,0-0.1,0.1-0.2,0.1h-0.7l5.3-13h0.9L114.4,196z M105.7,191.3h5.8l-2.7-6.6c0-0.1-0.1-0.2-0.1-0.4c0-0.1-0.1-0.3-0.1-0.4
		c0,0.1-0.1,0.3-0.1,0.4c0,0.1-0.1,0.3-0.1,0.4L105.7,191.3z"/>
	<path class="st10" d="M117.4,195.2h6.2v0.8h-7.1v-13h0.9V195.2z"/>
	<path class="st10" d="M126.8,195.2h6.2v0.8h-7.1v-13h0.9V195.2z"/>
</g>
<g>
	<path class="st10" d="M96.2,251.9c0.5,0,1,0.1,1.4,0.2c0.5,0.1,0.8,0.4,1.2,0.7c0.3,0.3,0.6,0.7,0.8,1.1c0.2,0.4,0.3,1,0.3,1.5
		c0,0.5-0.1,0.9-0.2,1.4c-0.1,0.4-0.4,0.8-0.6,1.2c-0.3,0.4-0.6,0.8-0.9,1.1c-0.3,0.4-0.7,0.7-1.1,1.1l-4.1,4.2
		c0.2,0,0.4-0.1,0.6-0.1c0.2,0,0.4,0,0.6,0h5.6c0.1,0,0.2,0,0.2,0.1c0.1,0.1,0.1,0.1,0.1,0.2v0.5h-8.4v-0.3c0-0.1,0-0.1,0.1-0.2
		c0-0.1,0.1-0.1,0.1-0.2l4.4-4.5c0.4-0.4,0.7-0.7,1-1.1c0.3-0.3,0.6-0.7,0.8-1.1s0.4-0.7,0.5-1.1c0.1-0.4,0.2-0.8,0.2-1.2
		c0-0.5-0.1-0.9-0.2-1.2c-0.2-0.4-0.4-0.6-0.6-0.9c-0.3-0.2-0.6-0.4-0.9-0.5s-0.7-0.2-1.1-0.2c-0.4,0-0.8,0.1-1.1,0.2
		c-0.3,0.1-0.7,0.3-0.9,0.5c-0.3,0.2-0.5,0.5-0.7,0.8c-0.2,0.3-0.3,0.6-0.4,1c-0.1,0.2-0.2,0.3-0.4,0.3c0,0,0,0,0,0c0,0,0,0,0,0
		l-0.4-0.1c0.1-0.6,0.2-1.1,0.5-1.5c0.2-0.4,0.5-0.8,0.9-1.1c0.3-0.3,0.8-0.5,1.2-0.7C95.2,252,95.7,251.9,96.2,251.9z"/>
	<path class="st10" d="M111.3,258.6c0,1.1-0.1,2.1-0.4,3c-0.2,0.8-0.6,1.5-1,2.1c-0.4,0.5-0.9,1-1.5,1.2c-0.6,0.3-1.2,0.4-1.8,0.4
		c-0.6,0-1.2-0.1-1.8-0.4c-0.6-0.3-1.1-0.7-1.5-1.2c-0.4-0.5-0.8-1.2-1-2.1c-0.2-0.8-0.4-1.8-0.4-3s0.1-2.1,0.4-3
		c0.2-0.8,0.6-1.5,1-2.1c0.4-0.5,0.9-1,1.5-1.2c0.6-0.3,1.2-0.4,1.8-0.4c0.6,0,1.2,0.1,1.8,0.4c0.6,0.3,1.1,0.7,1.5,1.2
		c0.4,0.5,0.8,1.2,1,2.1C111.2,256.5,111.3,257.4,111.3,258.6z M110.4,258.6c0-1.1-0.1-2-0.3-2.7c-0.2-0.7-0.5-1.4-0.8-1.8
		c-0.3-0.5-0.7-0.8-1.2-1c-0.5-0.2-0.9-0.3-1.4-0.3c-0.5,0-1,0.1-1.4,0.3c-0.5,0.2-0.9,0.6-1.2,1c-0.3,0.5-0.6,1.1-0.8,1.8
		c-0.2,0.7-0.3,1.6-0.3,2.7c0,1.1,0.1,2,0.3,2.7c0.2,0.7,0.5,1.4,0.8,1.8c0.3,0.5,0.7,0.8,1.2,1c0.5,0.2,0.9,0.3,1.4,0.3
		c0.5,0,1-0.1,1.4-0.3c0.5-0.2,0.9-0.6,1.2-1c0.3-0.5,0.6-1.1,0.8-1.8C110.3,260.5,110.4,259.6,110.4,258.6z"/>
	<path class="st10" d="M114.8,264.4h3v-10.6c0-0.2,0-0.4,0-0.7l-2.9,2.5c-0.1,0.1-0.1,0.1-0.2,0.1c-0.1,0-0.2,0-0.2-0.1l-0.3-0.4
		l3.8-3.3h0.7v12.4h2.8v0.7h-6.7V264.4z"/>
	<path class="st10" d="M130.5,260.7h2.4v0.5c0,0.1,0,0.1-0.1,0.2c0,0-0.1,0.1-0.2,0.1h-2.1v3.7h-0.8v-3.7h-6.1c-0.1,0-0.2,0-0.2-0.1
		c0,0-0.1-0.1-0.1-0.2l-0.1-0.4l6.5-8.6h0.8V260.7z M129.7,253.9c0-0.1,0-0.2,0-0.3c0-0.1,0-0.2,0-0.4l-5.6,7.5h5.6V253.9z"/>
</g>
<g>
	<path class="st10" d="M97.3,320.5c0.5,0,1,0.1,1.4,0.2c0.5,0.1,0.8,0.4,1.2,0.7c0.3,0.3,0.6,0.7,0.8,1.1c0.2,0.4,0.3,1,0.3,1.5
		c0,0.5-0.1,0.9-0.2,1.4c-0.1,0.4-0.4,0.8-0.6,1.2c-0.3,0.4-0.6,0.8-0.9,1.1c-0.3,0.4-0.7,0.7-1.1,1.1l-4.1,4.2
		c0.2,0,0.4-0.1,0.6-0.1c0.2,0,0.4,0,0.6,0h5.6c0.1,0,0.2,0,0.2,0.1s0.1,0.1,0.1,0.2v0.5h-8.4v-0.3c0-0.1,0-0.1,0.1-0.2
		c0-0.1,0.1-0.1,0.1-0.2l4.4-4.5c0.4-0.4,0.7-0.7,1-1.1c0.3-0.3,0.6-0.7,0.8-1.1c0.2-0.4,0.4-0.7,0.5-1.1c0.1-0.4,0.2-0.8,0.2-1.2
		c0-0.5-0.1-0.9-0.2-1.2c-0.2-0.4-0.4-0.6-0.6-0.9s-0.6-0.4-0.9-0.5c-0.3-0.1-0.7-0.2-1.1-0.2c-0.4,0-0.8,0.1-1.1,0.2
		c-0.3,0.1-0.7,0.3-0.9,0.5c-0.3,0.2-0.5,0.5-0.7,0.8c-0.2,0.3-0.3,0.6-0.4,1c-0.1,0.2-0.2,0.3-0.4,0.3c0,0,0,0,0,0c0,0,0,0,0,0
		l-0.4-0.1c0.1-0.6,0.2-1.1,0.5-1.5c0.2-0.4,0.5-0.8,0.9-1.1c0.3-0.3,0.8-0.5,1.2-0.7C96.2,320.5,96.7,320.5,97.3,320.5z"/>
	<path class="st10" d="M112.4,327.1c0,1.1-0.1,2.1-0.4,3c-0.2,0.8-0.6,1.5-1,2.1c-0.4,0.5-0.9,1-1.5,1.2c-0.6,0.3-1.2,0.4-1.8,0.4
		c-0.6,0-1.2-0.1-1.8-0.4c-0.6-0.3-1.1-0.7-1.5-1.2c-0.4-0.5-0.8-1.2-1-2.1c-0.2-0.8-0.4-1.8-0.4-3c0-1.1,0.1-2.1,0.4-3
		c0.2-0.8,0.6-1.5,1-2.1c0.4-0.5,0.9-1,1.5-1.2c0.6-0.3,1.2-0.4,1.8-0.4c0.6,0,1.2,0.1,1.8,0.4s1.1,0.7,1.5,1.2
		c0.4,0.5,0.8,1.2,1,2.1C112.3,325,112.4,326,112.4,327.1z M111.5,327.1c0-1.1-0.1-2-0.3-2.7c-0.2-0.7-0.5-1.4-0.8-1.8
		c-0.3-0.5-0.7-0.8-1.2-1c-0.5-0.2-0.9-0.3-1.4-0.3c-0.5,0-1,0.1-1.4,0.3c-0.5,0.2-0.9,0.6-1.2,1c-0.3,0.5-0.6,1.1-0.8,1.8
		c-0.2,0.7-0.3,1.6-0.3,2.7c0,1.1,0.1,2,0.3,2.7c0.2,0.7,0.5,1.4,0.8,1.8c0.3,0.5,0.7,0.8,1.2,1c0.5,0.2,0.9,0.3,1.4,0.3
		c0.5,0,1-0.1,1.4-0.3c0.5-0.2,0.9-0.6,1.2-1c0.3-0.5,0.6-1.1,0.8-1.8C111.4,329.1,111.5,328.2,111.5,327.1z"/>
	<path class="st10" d="M115.9,332.9h3v-10.6c0-0.2,0-0.4,0-0.7l-2.9,2.5c-0.1,0.1-0.1,0.1-0.2,0.1c-0.1,0-0.2,0-0.2-0.1l-0.3-0.4
		l3.8-3.3h0.7v12.4h2.8v0.7h-6.7V332.9z"/>
	<path class="st10" d="M132.6,321c0,0.1,0,0.2-0.1,0.3s-0.2,0.1-0.4,0.1h-4.7l-0.8,4.3c0.4-0.1,0.8-0.2,1.2-0.2
		c0.4,0,0.7-0.1,1.1-0.1c0.7,0,1.3,0.1,1.8,0.3c0.5,0.2,0.9,0.5,1.3,0.8c0.3,0.3,0.6,0.8,0.8,1.2c0.2,0.5,0.3,1,0.3,1.6
		c0,0.7-0.1,1.3-0.4,1.8c-0.2,0.5-0.6,1-1,1.4c-0.4,0.4-0.9,0.7-1.4,0.9c-0.5,0.2-1.1,0.3-1.7,0.3c-0.4,0-0.7,0-1-0.1
		c-0.3-0.1-0.6-0.1-0.9-0.3c-0.3-0.1-0.6-0.2-0.8-0.4c-0.2-0.1-0.5-0.3-0.6-0.4l0.3-0.4c0.1-0.1,0.1-0.1,0.3-0.1
		c0.1,0,0.2,0,0.3,0.1c0.2,0.1,0.3,0.2,0.6,0.3c0.2,0.1,0.5,0.2,0.8,0.3s0.7,0.1,1.1,0.1c0.5,0,1-0.1,1.4-0.2
		c0.4-0.2,0.8-0.4,1.1-0.7c0.3-0.3,0.6-0.7,0.8-1.1c0.2-0.4,0.3-1,0.3-1.5c0-0.5-0.1-0.9-0.2-1.3c-0.1-0.4-0.3-0.7-0.6-1
		c-0.3-0.3-0.6-0.5-1.1-0.7c-0.4-0.2-0.9-0.2-1.5-0.2c-0.3,0-0.7,0-1.1,0.1c-0.4,0.1-0.8,0.1-1.2,0.3l-0.6-0.2l1-5.8h5.8V321z"/>
</g>
<g>
	<path class="st10" d="M52.6,458c0.5,0,1,0.1,1.4,0.2c0.5,0.1,0.8,0.4,1.2,0.7c0.3,0.3,0.6,0.7,0.8,1.1c0.2,0.4,0.3,1,0.3,1.5
		c0,0.5-0.1,0.9-0.2,1.4c-0.1,0.4-0.4,0.8-0.6,1.2c-0.3,0.4-0.6,0.8-0.9,1.1c-0.3,0.4-0.7,0.7-1.1,1.1l-4.1,4.2
		c0.2,0,0.4-0.1,0.6-0.1c0.2,0,0.4,0,0.6,0h5.6c0.1,0,0.2,0,0.2,0.1c0.1,0.1,0.1,0.1,0.1,0.2v0.5h-8.4v-0.3c0-0.1,0-0.1,0.1-0.2
		c0-0.1,0.1-0.1,0.1-0.2l4.4-4.5c0.4-0.4,0.7-0.7,1-1.1c0.3-0.3,0.6-0.7,0.8-1.1c0.2-0.4,0.4-0.7,0.5-1.1c0.1-0.4,0.2-0.8,0.2-1.2
		c0-0.5-0.1-0.9-0.2-1.2c-0.2-0.4-0.4-0.6-0.6-0.9c-0.3-0.2-0.6-0.4-0.9-0.5c-0.3-0.1-0.7-0.2-1.1-0.2c-0.4,0-0.8,0.1-1.1,0.2
		c-0.3,0.1-0.7,0.3-0.9,0.5c-0.3,0.2-0.5,0.5-0.7,0.8c-0.2,0.3-0.3,0.6-0.4,1c-0.1,0.2-0.2,0.3-0.4,0.3c0,0,0,0,0,0c0,0,0,0,0,0
		l-0.4-0.1c0.1-0.6,0.2-1.1,0.5-1.5c0.2-0.4,0.5-0.8,0.9-1.1c0.3-0.3,0.8-0.5,1.2-0.7C51.5,458.1,52,458,52.6,458z"/>
	<path class="st10" d="M67.7,464.7c0,1.1-0.1,2.1-0.4,3c-0.2,0.8-0.6,1.5-1,2.1c-0.4,0.5-0.9,1-1.5,1.2c-0.6,0.3-1.2,0.4-1.8,0.4
		c-0.6,0-1.2-0.1-1.8-0.4c-0.6-0.3-1.1-0.7-1.5-1.2c-0.4-0.5-0.8-1.2-1-2.1c-0.2-0.8-0.4-1.8-0.4-3c0-1.1,0.1-2.1,0.4-3
		c0.2-0.8,0.6-1.5,1-2.1c0.4-0.5,0.9-1,1.5-1.2c0.6-0.3,1.2-0.4,1.8-0.4c0.6,0,1.2,0.1,1.8,0.4s1.1,0.7,1.5,1.2
		c0.4,0.5,0.8,1.2,1,2.1C67.6,462.5,67.7,463.5,67.7,464.7z M66.8,464.7c0-1.1-0.1-2-0.3-2.7c-0.2-0.7-0.5-1.4-0.8-1.8
		c-0.3-0.5-0.7-0.8-1.2-1c-0.5-0.2-0.9-0.3-1.4-0.3c-0.5,0-1,0.1-1.4,0.3c-0.5,0.2-0.9,0.6-1.2,1c-0.3,0.5-0.6,1.1-0.8,1.8
		c-0.2,0.7-0.3,1.6-0.3,2.7c0,1.1,0.1,2,0.3,2.7c0.2,0.7,0.5,1.4,0.8,1.8c0.3,0.5,0.7,0.8,1.2,1c0.5,0.2,0.9,0.3,1.4,0.3
		c0.5,0,1-0.1,1.4-0.3c0.5-0.2,0.9-0.6,1.2-1c0.3-0.5,0.6-1.1,0.8-1.8C66.7,466.6,66.8,465.7,66.8,464.7z"/>
	<path class="st10" d="M71.2,470.5h3v-10.6c0-0.2,0-0.4,0-0.7l-2.9,2.5c-0.1,0.1-0.1,0.1-0.2,0.1c-0.1,0-0.2,0-0.2-0.1l-0.3-0.4
		l3.8-3.3H75v12.4h2.8v0.7h-6.7V470.5z"/>
	<path class="st10" d="M84.8,463.4c0.6,0,1.1,0.1,1.5,0.3c0.5,0.2,0.9,0.4,1.2,0.8s0.6,0.7,0.8,1.2c0.2,0.5,0.3,1,0.3,1.6
		c0,0.6-0.1,1.1-0.3,1.6c-0.2,0.5-0.5,0.9-0.9,1.3c-0.4,0.4-0.8,0.6-1.4,0.8c-0.5,0.2-1.1,0.3-1.7,0.3c-0.6,0-1.2-0.1-1.7-0.3
		c-0.5-0.2-0.9-0.5-1.3-0.8c-0.4-0.4-0.6-0.8-0.8-1.3c-0.2-0.5-0.3-1.1-0.3-1.8c0-0.5,0.1-1.1,0.4-1.7c0.3-0.6,0.7-1.4,1.3-2.2
		l3.5-4.8c0.1-0.1,0.3-0.2,0.5-0.2h0.8l-3.9,5.1c-0.2,0.3-0.4,0.5-0.5,0.7c-0.2,0.2-0.3,0.4-0.4,0.7c0.4-0.4,0.8-0.7,1.3-0.9
		C83.6,463.5,84.2,463.4,84.8,463.4z M81.1,467.2c0,0.5,0.1,0.9,0.2,1.3c0.1,0.4,0.4,0.8,0.6,1.1c0.3,0.3,0.6,0.5,1,0.7
		c0.4,0.2,0.8,0.2,1.3,0.2c0.5,0,1-0.1,1.4-0.2c0.4-0.2,0.8-0.4,1.1-0.7c0.3-0.3,0.5-0.6,0.7-1s0.2-0.8,0.2-1.3
		c0-0.5-0.1-0.9-0.2-1.3c-0.2-0.4-0.4-0.7-0.7-1c-0.3-0.3-0.6-0.5-1-0.6c-0.4-0.1-0.8-0.2-1.3-0.2c-0.5,0-1,0.1-1.4,0.3
		c-0.4,0.2-0.8,0.4-1.1,0.7c-0.3,0.3-0.5,0.6-0.7,1C81.2,466.5,81.1,466.9,81.1,467.2z"/>
	<path class="st10" d="M102.9,458.2v0.8h-6.8v5.5h5.9v0.8h-5.9v6h-0.9v-13H102.9z"/>
	<path class="st10" d="M114.4,471.2h-0.7c-0.1,0-0.2,0-0.2-0.1c-0.1,0-0.1-0.1-0.1-0.2l-1.5-3.8h-6.4l-1.5,3.8
		c0,0.1-0.1,0.1-0.1,0.2c-0.1,0-0.1,0.1-0.2,0.1h-0.7l5.3-13h0.9L114.4,471.2z M105.7,466.5h5.8l-2.7-6.6c0-0.1-0.1-0.2-0.1-0.4
		c0-0.1-0.1-0.3-0.1-0.4c0,0.1-0.1,0.3-0.1,0.4c0,0.1-0.1,0.3-0.1,0.4L105.7,466.5z"/>
	<path class="st10" d="M117.4,470.4h6.2v0.8h-7.1v-13h0.9V470.4z"/>
	<path class="st10" d="M126.8,470.4h6.2v0.8h-7.1v-13h0.9V470.4z"/>
</g>
<g>
	<path class="st10" d="M28.4,526.3c0.5,0,1,0.1,1.4,0.2c0.5,0.1,0.8,0.4,1.2,0.7c0.3,0.3,0.6,0.7,0.8,1.1c0.2,0.4,0.3,1,0.3,1.5
		c0,0.5-0.1,0.9-0.2,1.4c-0.1,0.4-0.4,0.8-0.6,1.2c-0.3,0.4-0.6,0.8-0.9,1.1c-0.3,0.4-0.7,0.7-1.1,1.1l-4.1,4.2
		c0.2,0,0.4-0.1,0.6-0.1c0.2,0,0.4,0,0.6,0h5.6c0.1,0,0.2,0,0.2,0.1c0.1,0.1,0.1,0.1,0.1,0.2v0.5h-8.4v-0.3c0-0.1,0-0.1,0.1-0.2
		c0-0.1,0.1-0.1,0.1-0.2l4.4-4.5c0.4-0.4,0.7-0.7,1-1.1c0.3-0.3,0.6-0.7,0.8-1.1c0.2-0.4,0.4-0.7,0.5-1.1c0.1-0.4,0.2-0.8,0.2-1.2
		c0-0.5-0.1-0.9-0.2-1.2c-0.2-0.4-0.4-0.6-0.6-0.9c-0.3-0.2-0.6-0.4-0.9-0.5c-0.3-0.1-0.7-0.2-1.1-0.2c-0.4,0-0.8,0.1-1.1,0.2
		c-0.3,0.1-0.7,0.3-0.9,0.5c-0.3,0.2-0.5,0.5-0.7,0.8c-0.2,0.3-0.3,0.6-0.4,1c-0.1,0.2-0.2,0.3-0.4,0.3c0,0,0,0,0,0c0,0,0,0,0,0
		l-0.4-0.1c0.1-0.6,0.2-1.1,0.5-1.5c0.2-0.4,0.5-0.8,0.9-1.1c0.3-0.3,0.8-0.5,1.2-0.7C27.4,526.4,27.9,526.3,28.4,526.3z"/>
	<path class="st10" d="M43.6,533c0,1.1-0.1,2.1-0.4,3c-0.2,0.8-0.6,1.5-1,2.1c-0.4,0.5-0.9,1-1.5,1.2c-0.6,0.3-1.2,0.4-1.8,0.4
		c-0.6,0-1.2-0.1-1.8-0.4c-0.6-0.3-1.1-0.7-1.5-1.2c-0.4-0.5-0.8-1.2-1-2.1c-0.2-0.8-0.4-1.8-0.4-3s0.1-2.1,0.4-3
		c0.2-0.8,0.6-1.5,1-2.1c0.4-0.5,0.9-1,1.5-1.2c0.6-0.3,1.2-0.4,1.8-0.4c0.6,0,1.2,0.1,1.8,0.4s1.1,0.7,1.5,1.2
		c0.4,0.5,0.8,1.2,1,2.1C43.4,530.8,43.6,531.8,43.6,533z M42.6,533c0-1.1-0.1-2-0.3-2.7c-0.2-0.7-0.5-1.4-0.8-1.8
		c-0.3-0.5-0.7-0.8-1.2-1c-0.5-0.2-0.9-0.3-1.4-0.3c-0.5,0-1,0.1-1.4,0.3c-0.5,0.2-0.9,0.6-1.2,1c-0.3,0.5-0.6,1.1-0.8,1.8
		c-0.2,0.7-0.3,1.6-0.3,2.7c0,1.1,0.1,2,0.3,2.7c0.2,0.7,0.5,1.4,0.8,1.8c0.3,0.5,0.7,0.8,1.2,1c0.5,0.2,0.9,0.3,1.4,0.3
		c0.5,0,1-0.1,1.4-0.3c0.5-0.2,0.9-0.6,1.2-1c0.3-0.5,0.6-1.1,0.8-1.8C42.5,534.9,42.6,534,42.6,533z"/>
	<path class="st10" d="M47.1,538.8h3v-10.6c0-0.2,0-0.4,0-0.7l-2.9,2.5c-0.1,0.1-0.1,0.1-0.2,0.1c-0.1,0-0.2,0-0.2-0.1l-0.3-0.4
		l3.8-3.3h0.7v12.4h2.8v0.7h-6.7V538.8z"/>
	<path class="st10" d="M64.7,526.5v0.4c0,0.1,0,0.2,0,0.3c0,0.1,0,0.1-0.1,0.2l-6,11.8c0,0.1-0.1,0.2-0.2,0.2
		c-0.1,0.1-0.2,0.1-0.3,0.1h-0.6l6-11.8c0.1-0.2,0.2-0.3,0.3-0.4h-7.5c-0.1,0-0.1,0-0.2-0.1c0,0-0.1-0.1-0.1-0.2v-0.6H64.7z"/>
	<path class="st10" d="M77.3,528.1c-0.1,0.1-0.1,0.2-0.2,0.2c-0.1,0-0.2-0.1-0.3-0.2c-0.1-0.1-0.3-0.2-0.5-0.4
		c-0.2-0.1-0.5-0.3-0.8-0.4c-0.3-0.1-0.7-0.2-1.2-0.2c-0.5,0-0.9,0.1-1.2,0.2c-0.4,0.1-0.7,0.3-0.9,0.6c-0.2,0.2-0.4,0.5-0.6,0.8
		c-0.1,0.3-0.2,0.6-0.2,1c0,0.4,0.1,0.8,0.3,1.1c0.2,0.3,0.4,0.5,0.7,0.7c0.3,0.2,0.7,0.4,1,0.5c0.4,0.1,0.8,0.3,1.2,0.4
		c0.4,0.1,0.8,0.3,1.2,0.4c0.4,0.2,0.7,0.4,1,0.6c0.3,0.2,0.6,0.5,0.7,0.9c0.2,0.4,0.3,0.8,0.3,1.3c0,0.5-0.1,1.1-0.3,1.5
		c-0.2,0.5-0.5,0.9-0.8,1.3c-0.4,0.4-0.8,0.6-1.3,0.8c-0.5,0.2-1.1,0.3-1.8,0.3c-0.9,0-1.6-0.2-2.2-0.5c-0.6-0.3-1.2-0.7-1.6-1.2
		l0.3-0.4c0.1-0.1,0.2-0.1,0.3-0.1c0.1,0,0.1,0,0.2,0.1c0.1,0.1,0.2,0.2,0.3,0.3c0.1,0.1,0.3,0.2,0.4,0.3c0.2,0.1,0.4,0.2,0.6,0.3
		c0.2,0.1,0.5,0.2,0.8,0.3c0.3,0.1,0.6,0.1,1,0.1c0.5,0,1-0.1,1.4-0.2c0.4-0.2,0.7-0.4,1-0.6c0.3-0.3,0.5-0.6,0.6-1
		c0.1-0.4,0.2-0.8,0.2-1.2c0-0.5-0.1-0.8-0.3-1.1c-0.2-0.3-0.4-0.5-0.7-0.7c-0.3-0.2-0.7-0.4-1-0.5c-0.4-0.1-0.8-0.3-1.2-0.4
		c-0.4-0.1-0.8-0.3-1.2-0.4c-0.4-0.2-0.7-0.4-1-0.6c-0.3-0.2-0.6-0.6-0.7-0.9c-0.2-0.4-0.3-0.8-0.3-1.4c0-0.4,0.1-0.9,0.2-1.3
		c0.2-0.4,0.4-0.8,0.7-1.1c0.3-0.3,0.7-0.6,1.2-0.7c0.5-0.2,1-0.3,1.6-0.3c0.7,0,1.3,0.1,1.8,0.3c0.5,0.2,1,0.5,1.5,1L77.3,528.1z"
		/>
	<path class="st10" d="M81.8,534.2v5.2h-0.9v-13h3.4c1.5,0,2.7,0.3,3.4,1c0.8,0.7,1.2,1.6,1.2,2.9c0,0.6-0.1,1.1-0.3,1.6
		c-0.2,0.5-0.5,0.9-0.9,1.2c-0.4,0.3-0.9,0.6-1.5,0.8c-0.6,0.2-1.2,0.3-1.9,0.3H81.8z M81.8,533.5h2.4c0.6,0,1.1-0.1,1.5-0.2
		c0.5-0.2,0.8-0.4,1.2-0.7c0.3-0.3,0.6-0.6,0.7-1c0.2-0.4,0.3-0.8,0.3-1.3c0-1-0.3-1.8-0.9-2.3c-0.6-0.5-1.5-0.8-2.8-0.8h-2.4V533.5
		z"/>
	<path class="st10" d="M92.7,533.6v5.9h-0.9v-13h3.3c1.5,0,2.6,0.3,3.4,0.9c0.7,0.6,1.1,1.4,1.1,2.5c0,0.5-0.1,0.9-0.3,1.4
		c-0.2,0.4-0.4,0.8-0.7,1.1c-0.3,0.3-0.7,0.6-1.2,0.8c-0.5,0.2-1,0.3-1.5,0.4c0.1,0.1,0.3,0.2,0.4,0.4l4.5,5.6h-0.8
		c-0.1,0-0.2,0-0.3-0.1c-0.1,0-0.1-0.1-0.2-0.2l-4.2-5.3c-0.1-0.1-0.2-0.2-0.3-0.3c-0.1-0.1-0.3-0.1-0.6-0.1H92.7z M92.7,532.9H95
		c0.6,0,1.1-0.1,1.5-0.2c0.5-0.1,0.8-0.3,1.2-0.6c0.3-0.3,0.6-0.6,0.7-0.9c0.2-0.4,0.2-0.8,0.2-1.2c0-0.9-0.3-1.6-0.9-2.1
		c-0.6-0.4-1.5-0.7-2.6-0.7h-2.4V532.9z"/>
	<path class="st10" d="M104.4,539.5h-0.9v-13h0.9V539.5z"/>
	<path class="st10" d="M109.2,526.5c0,0,0.1,0.1,0.2,0.1l8.4,11.3c0-0.2,0-0.4,0-0.5v-10.9h0.8v13h-0.4c-0.1,0-0.3-0.1-0.3-0.2
		l-8.4-11.3c0,0.2,0,0.4,0,0.5v10.9h-0.8v-13h0.5C109.1,526.5,109.2,526.5,109.2,526.5z"/>
	<path class="st10" d="M128.1,538.9c0.4,0,0.9,0,1.2-0.1c0.4,0,0.7-0.1,1-0.2c0.3-0.1,0.6-0.2,0.9-0.3c0.3-0.1,0.6-0.3,0.9-0.4v-3.5
		h-2.5c-0.1,0-0.1,0-0.2-0.1c0,0-0.1-0.1-0.1-0.1v-0.5h3.6v4.6c-0.3,0.2-0.7,0.4-1,0.6c-0.3,0.2-0.7,0.3-1.1,0.4
		c-0.4,0.1-0.8,0.2-1.3,0.3c-0.5,0.1-1,0.1-1.5,0.1c-0.9,0-1.8-0.2-2.6-0.5c-0.8-0.3-1.4-0.8-2-1.3c-0.6-0.6-1-1.3-1.3-2.1
		c-0.3-0.8-0.5-1.7-0.5-2.7c0-1,0.2-1.9,0.5-2.7c0.3-0.8,0.7-1.5,1.3-2.1c0.6-0.6,1.2-1,2.1-1.3c0.8-0.3,1.7-0.5,2.7-0.5
		c0.5,0,1,0,1.4,0.1c0.4,0.1,0.8,0.2,1.2,0.3c0.4,0.1,0.7,0.3,1,0.5c0.3,0.2,0.6,0.4,0.9,0.7l-0.2,0.4c-0.1,0.1-0.1,0.1-0.2,0.1
		c-0.1,0-0.1,0-0.2,0c-0.1,0-0.2-0.1-0.4-0.3c-0.2-0.1-0.4-0.3-0.7-0.4c-0.3-0.1-0.7-0.3-1.1-0.4c-0.4-0.1-1-0.2-1.6-0.2
		c-0.8,0-1.6,0.1-2.3,0.4c-0.7,0.3-1.3,0.7-1.7,1.2c-0.5,0.5-0.9,1.1-1.1,1.8c-0.3,0.7-0.4,1.5-0.4,2.4c0,0.9,0.1,1.7,0.4,2.5
		c0.3,0.7,0.6,1.3,1.1,1.9c0.5,0.5,1,0.9,1.7,1.2C126.5,538.7,127.3,538.9,128.1,538.9z"/>
</g>
<g>
	<path class="st10" d="M28.4,388c0.5,0,1,0.1,1.4,0.2c0.5,0.1,0.8,0.4,1.2,0.7c0.3,0.3,0.6,0.7,0.8,1.1c0.2,0.4,0.3,1,0.3,1.5
		c0,0.5-0.1,0.9-0.2,1.4c-0.1,0.4-0.4,0.8-0.6,1.2c-0.3,0.4-0.6,0.8-0.9,1.1c-0.3,0.4-0.7,0.7-1.1,1.1l-4.1,4.2
		c0.2,0,0.4-0.1,0.6-0.1c0.2,0,0.4,0,0.6,0h5.6c0.1,0,0.2,0,0.2,0.1c0.1,0.1,0.1,0.1,0.1,0.2v0.5h-8.4v-0.3c0-0.1,0-0.1,0.1-0.2
		c0-0.1,0.1-0.1,0.1-0.2l4.4-4.5c0.4-0.4,0.7-0.7,1-1.1c0.3-0.3,0.6-0.7,0.8-1.1c0.2-0.4,0.4-0.7,0.5-1.1c0.1-0.4,0.2-0.8,0.2-1.2
		c0-0.5-0.1-0.9-0.2-1.2c-0.2-0.4-0.4-0.6-0.6-0.9s-0.6-0.4-0.9-0.5c-0.3-0.1-0.7-0.2-1.1-0.2c-0.4,0-0.8,0.1-1.1,0.2
		c-0.3,0.1-0.7,0.3-0.9,0.5c-0.3,0.2-0.5,0.5-0.7,0.8c-0.2,0.3-0.3,0.6-0.4,1c-0.1,0.2-0.2,0.3-0.4,0.3c0,0,0,0,0,0c0,0,0,0,0,0
		l-0.4-0.1c0.1-0.6,0.2-1.1,0.5-1.5c0.2-0.4,0.5-0.8,0.9-1.1c0.3-0.3,0.8-0.5,1.2-0.7C27.4,388,27.9,388,28.4,388z"/>
	<path class="st10" d="M43.6,394.6c0,1.1-0.1,2.1-0.4,3c-0.2,0.8-0.6,1.5-1,2.1c-0.4,0.5-0.9,1-1.5,1.2c-0.6,0.3-1.2,0.4-1.8,0.4
		c-0.6,0-1.2-0.1-1.8-0.4c-0.6-0.3-1.1-0.7-1.5-1.2c-0.4-0.5-0.8-1.2-1-2.1c-0.2-0.8-0.4-1.8-0.4-3s0.1-2.1,0.4-3
		c0.2-0.8,0.6-1.5,1-2.1c0.4-0.5,0.9-1,1.5-1.2c0.6-0.3,1.2-0.4,1.8-0.4c0.6,0,1.2,0.1,1.8,0.4c0.6,0.3,1.1,0.7,1.5,1.2
		c0.4,0.5,0.8,1.2,1,2.1C43.4,392.5,43.6,393.5,43.6,394.6z M42.6,394.6c0-1.1-0.1-2-0.3-2.7c-0.2-0.7-0.5-1.4-0.8-1.8
		c-0.3-0.5-0.7-0.8-1.2-1c-0.5-0.2-0.9-0.3-1.4-0.3c-0.5,0-1,0.1-1.4,0.3c-0.5,0.2-0.9,0.6-1.2,1c-0.3,0.5-0.6,1.1-0.8,1.8
		c-0.2,0.7-0.3,1.6-0.3,2.7c0,1.1,0.1,2,0.3,2.7c0.2,0.7,0.5,1.4,0.8,1.8c0.3,0.5,0.7,0.8,1.2,1c0.5,0.2,0.9,0.3,1.4,0.3
		c0.5,0,1-0.1,1.4-0.3c0.5-0.2,0.9-0.6,1.2-1c0.3-0.5,0.6-1.1,0.8-1.8C42.5,396.6,42.6,395.7,42.6,394.6z"/>
	<path class="st10" d="M47.1,400.4h3v-10.6c0-0.2,0-0.4,0-0.7l-2.9,2.5c-0.1,0.1-0.1,0.1-0.2,0.1c-0.1,0-0.2,0-0.2-0.1l-0.3-0.4
		l3.8-3.3h0.7v12.4h2.8v0.7h-6.7V400.4z"/>
	<path class="st10" d="M60.6,393.3c0.6,0,1.1,0.1,1.5,0.3c0.5,0.2,0.9,0.4,1.2,0.8s0.6,0.7,0.8,1.2c0.2,0.5,0.3,1,0.3,1.6
		c0,0.6-0.1,1.1-0.3,1.6c-0.2,0.5-0.5,0.9-0.9,1.3c-0.4,0.4-0.8,0.6-1.4,0.8c-0.5,0.2-1.1,0.3-1.7,0.3c-0.6,0-1.2-0.1-1.7-0.3
		c-0.5-0.2-0.9-0.5-1.3-0.8c-0.4-0.4-0.6-0.8-0.8-1.3c-0.2-0.5-0.3-1.1-0.3-1.8c0-0.5,0.1-1.1,0.4-1.7c0.3-0.6,0.7-1.4,1.3-2.2
		l3.5-4.8c0.1-0.1,0.3-0.2,0.5-0.2h0.8l-3.9,5.1c-0.2,0.3-0.4,0.5-0.5,0.7c-0.2,0.2-0.3,0.4-0.4,0.7c0.4-0.4,0.8-0.7,1.3-0.9
		C59.5,393.4,60.1,393.3,60.6,393.3z M57,397.2c0,0.5,0.1,0.9,0.2,1.3c0.1,0.4,0.4,0.8,0.6,1.1c0.3,0.3,0.6,0.5,1,0.7
		c0.4,0.2,0.8,0.2,1.3,0.2c0.5,0,1-0.1,1.4-0.2c0.4-0.2,0.8-0.4,1.1-0.7c0.3-0.3,0.5-0.6,0.7-1s0.2-0.8,0.2-1.3
		c0-0.5-0.1-0.9-0.2-1.3c-0.2-0.4-0.4-0.7-0.7-1c-0.3-0.3-0.6-0.5-1-0.6c-0.4-0.1-0.8-0.2-1.3-0.2c-0.5,0-1,0.1-1.4,0.3
		c-0.4,0.2-0.8,0.4-1.1,0.7c-0.3,0.3-0.5,0.6-0.7,1C57.1,396.4,57,396.8,57,397.2z"/>
	<path class="st10" d="M77.3,389.7c-0.1,0.1-0.1,0.2-0.2,0.2c-0.1,0-0.2-0.1-0.3-0.2c-0.1-0.1-0.3-0.2-0.5-0.4
		c-0.2-0.1-0.5-0.3-0.8-0.4c-0.3-0.1-0.7-0.2-1.2-0.2c-0.5,0-0.9,0.1-1.2,0.2c-0.4,0.1-0.7,0.3-0.9,0.6c-0.2,0.2-0.4,0.5-0.6,0.8
		c-0.1,0.3-0.2,0.6-0.2,1c0,0.4,0.1,0.8,0.3,1.1c0.2,0.3,0.4,0.5,0.7,0.7c0.3,0.2,0.7,0.4,1,0.5c0.4,0.1,0.8,0.3,1.2,0.4
		c0.4,0.1,0.8,0.3,1.2,0.4c0.4,0.2,0.7,0.4,1,0.6c0.3,0.2,0.6,0.5,0.7,0.9c0.2,0.4,0.3,0.8,0.3,1.3c0,0.5-0.1,1.1-0.3,1.5
		c-0.2,0.5-0.5,0.9-0.8,1.3c-0.4,0.4-0.8,0.6-1.3,0.8c-0.5,0.2-1.1,0.3-1.8,0.3c-0.9,0-1.6-0.2-2.2-0.5c-0.6-0.3-1.2-0.7-1.6-1.2
		l0.3-0.4c0.1-0.1,0.2-0.1,0.3-0.1c0.1,0,0.1,0,0.2,0.1c0.1,0.1,0.2,0.2,0.3,0.3c0.1,0.1,0.3,0.2,0.4,0.3c0.2,0.1,0.4,0.2,0.6,0.3
		c0.2,0.1,0.5,0.2,0.8,0.3c0.3,0.1,0.6,0.1,1,0.1c0.5,0,1-0.1,1.4-0.2c0.4-0.2,0.7-0.4,1-0.6c0.3-0.3,0.5-0.6,0.6-1
		c0.1-0.4,0.2-0.8,0.2-1.2c0-0.5-0.1-0.8-0.3-1.1c-0.2-0.3-0.4-0.5-0.7-0.7c-0.3-0.2-0.7-0.4-1-0.5c-0.4-0.1-0.8-0.3-1.2-0.4
		c-0.4-0.1-0.8-0.3-1.2-0.4c-0.4-0.2-0.7-0.4-1-0.6c-0.3-0.2-0.6-0.6-0.7-0.9c-0.2-0.4-0.3-0.8-0.3-1.4c0-0.4,0.1-0.9,0.2-1.3
		c0.2-0.4,0.4-0.8,0.7-1.1c0.3-0.3,0.7-0.6,1.2-0.7c0.5-0.2,1-0.3,1.6-0.3c0.7,0,1.3,0.1,1.8,0.3c0.5,0.2,1,0.5,1.5,1L77.3,389.7z"
		/>
	<path class="st10" d="M81.8,395.9v5.2h-0.9v-13h3.4c1.5,0,2.7,0.3,3.4,1c0.8,0.7,1.2,1.6,1.2,2.9c0,0.6-0.1,1.1-0.3,1.6
		c-0.2,0.5-0.5,0.9-0.9,1.2s-0.9,0.6-1.5,0.8s-1.2,0.3-1.9,0.3H81.8z M81.8,395.1h2.4c0.6,0,1.1-0.1,1.5-0.2
		c0.5-0.2,0.8-0.4,1.2-0.7c0.3-0.3,0.6-0.6,0.7-1c0.2-0.4,0.3-0.8,0.3-1.3c0-1-0.3-1.8-0.9-2.3c-0.6-0.5-1.5-0.8-2.8-0.8h-2.4V395.1
		z"/>
	<path class="st10" d="M92.7,395.2v5.9h-0.9v-13h3.3c1.5,0,2.6,0.3,3.4,0.9c0.7,0.6,1.1,1.4,1.1,2.5c0,0.5-0.1,0.9-0.3,1.4
		c-0.2,0.4-0.4,0.8-0.7,1.1c-0.3,0.3-0.7,0.6-1.2,0.8c-0.5,0.2-1,0.3-1.5,0.4c0.1,0.1,0.3,0.2,0.4,0.4l4.5,5.6h-0.8
		c-0.1,0-0.2,0-0.3-0.1c-0.1,0-0.1-0.1-0.2-0.2l-4.2-5.3c-0.1-0.1-0.2-0.2-0.3-0.3c-0.1-0.1-0.3-0.1-0.6-0.1H92.7z M92.7,394.5H95
		c0.6,0,1.1-0.1,1.5-0.2c0.5-0.1,0.8-0.3,1.2-0.6c0.3-0.3,0.6-0.6,0.7-0.9c0.2-0.4,0.2-0.8,0.2-1.2c0-0.9-0.3-1.6-0.9-2.1
		c-0.6-0.4-1.5-0.7-2.6-0.7h-2.4V394.5z"/>
	<path class="st10" d="M104.4,401.1h-0.9v-13h0.9V401.1z"/>
	<path class="st10" d="M109.2,388.1c0,0,0.1,0.1,0.2,0.1l8.4,11.3c0-0.2,0-0.4,0-0.5v-10.9h0.8v13h-0.4c-0.1,0-0.3-0.1-0.3-0.2
		l-8.4-11.3c0,0.2,0,0.4,0,0.5v10.9h-0.8v-13h0.5C109.1,388.1,109.2,388.1,109.2,388.1z"/>
	<path class="st10" d="M128.1,400.5c0.4,0,0.9,0,1.2-0.1c0.4,0,0.7-0.1,1-0.2c0.3-0.1,0.6-0.2,0.9-0.3c0.3-0.1,0.6-0.3,0.9-0.4v-3.5
		h-2.5c-0.1,0-0.1,0-0.2-0.1c0,0-0.1-0.1-0.1-0.1v-0.5h3.6v4.6c-0.3,0.2-0.7,0.4-1,0.6c-0.3,0.2-0.7,0.3-1.1,0.4
		c-0.4,0.1-0.8,0.2-1.3,0.3c-0.5,0.1-1,0.1-1.5,0.1c-0.9,0-1.8-0.2-2.6-0.5c-0.8-0.3-1.4-0.8-2-1.3c-0.6-0.6-1-1.3-1.3-2.1
		c-0.3-0.8-0.5-1.7-0.5-2.7c0-1,0.2-1.9,0.5-2.7c0.3-0.8,0.7-1.5,1.3-2.1c0.6-0.6,1.2-1,2.1-1.3c0.8-0.3,1.7-0.5,2.7-0.5
		c0.5,0,1,0,1.4,0.1c0.4,0.1,0.8,0.2,1.2,0.3c0.4,0.1,0.7,0.3,1,0.5c0.3,0.2,0.6,0.4,0.9,0.7l-0.2,0.4c-0.1,0.1-0.1,0.1-0.2,0.1
		c-0.1,0-0.1,0-0.2,0c-0.1,0-0.2-0.1-0.4-0.3c-0.2-0.1-0.4-0.3-0.7-0.4c-0.3-0.1-0.7-0.3-1.1-0.4c-0.4-0.1-1-0.2-1.6-0.2
		c-0.8,0-1.6,0.1-2.3,0.4c-0.7,0.3-1.3,0.7-1.7,1.2c-0.5,0.5-0.9,1.1-1.1,1.8s-0.4,1.5-0.4,2.4c0,0.9,0.1,1.7,0.4,2.5
		c0.3,0.7,0.6,1.3,1.1,1.9c0.5,0.5,1,0.9,1.7,1.2C126.5,400.3,127.3,400.5,128.1,400.5z"/>
</g>
</svg>
