<?xml version="1.0" encoding="utf-8"?>
<!-- Generator: Adobe Illustrator 20.0.0, SVG Export Plug-In . SVG Version: 6.00 Build 0)  -->
<svg version="1.1" id="Objects" xmlns="http://www.w3.org/2000/svg" xmlns:xlink="http://www.w3.org/1999/xlink" x="0px" y="0px"
	 viewBox="0 0 743.6 585.9" style="enable-background:new 0 0 743.6 585.9;" xml:space="preserve">
<style type="text/css">
	.st0{display:none;fill:#3F2E51;}
	.st1{display:none;fill:#FFFFFF;stroke:#3F2E51;stroke-width:3;stroke-miterlimit:10;}
	.st2{fill:#FFFFFF;}
	.st3{fill:#92AF1F;stroke:#FFFFFF;stroke-width:3;stroke-miterlimit:10;}
	.st4{fill:#FFFFFF;stroke:#92AF1F;stroke-width:3;stroke-miterlimit:10;}
	.st5{fill:none;}
	.st6{fill:#3F2E51;}
	.st7{font-family:'Lato-Regular';}
	.st8{font-size:18px;}
	.st9{font-size:17px;}
</style>
<rect x="-86.6" class="st0" width="800" height="599.9"/>
<circle class="st1" cx="324.4" cy="77.9" r="21.9"/>
<circle class="st1" cx="324.4" cy="169.9" r="21.9"/>
<circle class="st1" cx="324.4" cy="262" r="21.9"/>
<circle class="st1" cx="324.4" cy="354" r="21.9"/>
<circle class="st1" cx="324.4" cy="446" r="21.9"/>
<circle class="st1" cx="324.4" cy="538" r="21.9"/>
<circle class="st1" cx="324.4" cy="630.1" r="21.9"/>
<circle class="st1" cx="324.4" cy="722.1" r="21.9"/>
<rect x="188.9" y="19.5" class="st2" width="2.2" height="547.2"/>
<circle class="st3" cx="190" cy="53.2" r="7.4"/>
<circle class="st3" cx="190" cy="120.9" r="7.4"/>
<circle class="st3" cx="190" cy="189.7" r="7.4"/>
<circle class="st3" cx="190" cy="257.5" r="7.4"/>
<circle class="st3" cx="190" cy="326.9" r="7.4"/>
<circle class="st3" cx="190" cy="394.6" r="7.4"/>
<circle class="st3" cx="190" cy="464.1" r="7.4"/>
<circle class="st3" cx="190" cy="531.8" r="7.4"/>
<rect x="248.1" y="36.3" class="st4" width="477.4" height="34"/>
<rect x="248.1" y="104.9" class="st4" width="477.4" height="31.9"/>
<rect x="248.1" y="173.5" class="st4" width="477.4" height="31.9"/>
<rect x="248.1" y="242.2" class="st4" width="477.4" height="31.9"/>
<rect x="248.1" y="310.8" class="st4" width="477.4" height="31.9"/>
<rect x="248.1" y="379.5" class="st4" width="477.4" height="31.9"/>
<rect x="248.1" y="448.1" class="st4" width="477.4" height="31.9"/>
<rect x="248.1" y="516.7" class="st4" width="477.4" height="31.9"/>
<circle class="st2" cx="208.7" cy="54.3" r="2.1"/>
<circle class="st2" cx="215.8" cy="54.3" r="2.1"/>
<circle class="st2" cx="222.8" cy="54.3" r="2.1"/>
<circle class="st2" cx="229.6" cy="54.3" r="2.1"/>
<circle class="st2" cx="236" cy="54.3" r="2.1"/>
<circle class="st2" cx="208.7" cy="122.1" r="2.1"/>
<circle class="st2" cx="215.8" cy="122.1" r="2.1"/>
<circle class="st2" cx="222.8" cy="122.1" r="2.1"/>
<circle class="st2" cx="229.6" cy="122.1" r="2.1"/>
<circle class="st2" cx="236" cy="122.1" r="2.1"/>
<circle class="st2" cx="210.3" cy="188.7" r="2.1"/>
<circle class="st2" cx="217.5" cy="188.7" r="2.1"/>
<circle class="st2" cx="224.5" cy="188.7" r="2.1"/>
<circle class="st2" cx="231.2" cy="188.7" r="2.1"/>
<circle class="st2" cx="237.6" cy="188.7" r="2.1"/>
<circle class="st2" cx="211" cy="326.4" r="2.1"/>
<circle class="st2" cx="218.1" cy="326.4" r="2.1"/>
<circle class="st2" cx="225.1" cy="326.4" r="2.1"/>
<circle class="st2" cx="231.8" cy="326.4" r="2.1"/>
<circle class="st2" cx="238.2" cy="326.4" r="2.1"/>
<circle class="st2" cx="211.3" cy="532.3" r="2.1"/>
<circle class="st2" cx="218.4" cy="532.3" r="2.1"/>
<circle class="st2" cx="225.4" cy="532.3" r="2.1"/>
<circle class="st2" cx="232.1" cy="532.3" r="2.1"/>
<circle class="st2" cx="238.5" cy="532.3" r="2.1"/>
<circle class="st2" cx="209.7" cy="257.9" r="2.1"/>
<circle class="st2" cx="216.8" cy="257.9" r="2.1"/>
<circle class="st2" cx="223.8" cy="257.9" r="2.1"/>
<circle class="st2" cx="230.6" cy="257.9" r="2.1"/>
<circle class="st2" cx="237" cy="257.9" r="2.1"/>
<circle class="st2" cx="210" cy="396" r="2.1"/>
<circle class="st2" cx="217.1" cy="396" r="2.1"/>
<circle class="st2" cx="224.1" cy="396" r="2.1"/>
<circle class="st2" cx="230.8" cy="396" r="2.1"/>
<circle class="st2" cx="237.2" cy="396" r="2.1"/>
<circle class="st2" cx="210" cy="465.1" r="2.1"/>
<circle class="st2" cx="217.1" cy="465.1" r="2.1"/>
<circle class="st2" cx="224.1" cy="465.1" r="2.1"/>
<circle class="st2" cx="230.8" cy="465.1" r="2.1"/>
<circle class="st2" cx="237.2" cy="465.1" r="2.1"/>
<rect x="243.4" y="46.1" class="st5" width="482.1" height="16.5"/>
<text transform="matrix(1 0 0 1 253.2721 59.3334)" class="st6 st7 st8">Experiencing issues in IT contracting, team comes together.</text>
<rect x="243.4" y="113.8" class="st5" width="484.1" height="16.5"/>
<text transform="matrix(1 0 0 1 277.4489 127.0724)" class="st6 st7 st8">Starts research and analysis of wider industry impact.</text>
<rect x="242.8" y="182.6" class="st5" width="487.2" height="16.5"/>
<text transform="matrix(1 0 0 1 260.9136 195.1247)" class="st6 st7 st9">Pathway set for Ideas: Design, Solutions and Implementation.</text>
<rect x="243.4" y="250.3" class="st5" width="486.8" height="18.4"/>
<text transform="matrix(1 0 0 1 250.3375 263.5896)" class="st6 st7 st8">Team forms an entity &amp; starts running pilots with companies.</text>
<rect x="243.4" y="319.3" class="st5" width="482.1" height="18.4"/>
<text transform="matrix(1 0 0 1 401.6619 332.6128)" class="st6 st7 st8">Development begins.</text>
<rect x="243.4" y="386.8" class="st5" width="484.1" height="18.4"/>
<text transform="matrix(1 0 0 1 257.074 400.1097)" class="st6 st7 st8">Right Comply goes into Beta and welcomes early adopters.</text>
<rect x="243.8" y="456.4" class="st5" width="481.6" height="18.4"/>
<text transform="matrix(1 0 0 1 341.7878 469.6636)" class="st6 st7 st8">Right Comply formally incorporated.</text>
<rect x="249.5" y="525.2" class="st5" width="476" height="18.4"/>
<text transform="matrix(1 0 0 1 394.7706 538.4869)" class="st6 st7 st8">Right Comply launched.</text>
<g>
	<path class="st2" d="M73.6,59.5h-6.8c-0.1,0-0.2-0.1-0.2-0.2v-0.2c0-0.1,0-0.2,0.1-0.3c0.5-0.9,1.2-1.8,2-2.9
		c0.8-1.1,1.4-1.9,1.8-2.5c0.4-0.6,0.8-1.2,1.1-1.9c0.3-0.7,0.5-1.4,0.5-2c0-0.6-0.2-1.2-0.6-1.6c-0.4-0.4-0.9-0.6-1.5-0.6
		c-0.6,0-1.1,0.2-1.5,0.6c-0.4,0.4-0.6,0.9-0.8,1.4c-0.1,0.2-0.2,0.3-0.4,0.3c-0.1,0-0.2,0-0.2-0.1C67,49.4,67,49.3,67,49.2v-1.4
		c0-0.3,0.3-0.5,0.9-0.8c0.6-0.3,1.3-0.4,2.2-0.4c1.1,0,2,0.3,2.7,0.9c0.6,0.6,1,1.3,1,2.3c0,0.6-0.1,1.2-0.4,1.8
		c-0.3,0.6-0.6,1.2-1,1.6c-0.4,0.5-1,1.2-1.8,2.2c-0.8,1-1.5,1.9-2.1,2.7h4.5c0.4,0,0.7-0.1,0.8-0.3c0.1-0.2,0.2-0.3,0.3-0.3
		c0.2,0,0.3,0.1,0.2,0.3l-0.1,1.2c0,0.2-0.1,0.3-0.2,0.4C73.8,59.5,73.7,59.5,73.6,59.5z"/>
	<path class="st2" d="M77.4,57.9c-0.8-1.2-1.2-2.8-1.2-4.7c0-1.9,0.4-3.5,1.2-4.7c0.8-1.2,2-1.8,3.5-1.8c1.5,0,2.7,0.6,3.5,1.8
		c0.8,1.2,1.2,2.8,1.2,4.7c0,1.9-0.4,3.5-1.2,4.7c-0.8,1.2-2,1.8-3.5,1.8C79.4,59.7,78.3,59.1,77.4,57.9z M81,47.3c-2,0-3,1.9-3,5.8
		s1,5.8,3,5.8s3-1.9,3-5.8S83,47.3,81,47.3z"/>
	<path class="st2" d="M93.3,59.3c0,0.1,0,0.1-0.1,0.2c-0.1,0.1-0.1,0.1-0.2,0.1l-2.5-0.1l-2.7,0.1c-0.2,0-0.3-0.1-0.3-0.3
		c0-0.2,0.1-0.3,0.2-0.3l1,0c0.2,0,0.5-0.1,0.7-0.2c0.2-0.1,0.3-0.3,0.3-0.5V48.2c0-0.5-0.2-0.7-0.7-0.7c0,0,0,0-0.1,0l-1.2,0.1
		c-0.1,0-0.2-0.1-0.2-0.2c0-0.2,0.1-0.2,0.3-0.3l3.2-0.4c0.2,0,0.3,0.1,0.3,0.2v11.5c0,0.4,0.3,0.7,0.8,0.7l1,0
		C93.2,59,93.3,59.1,93.3,59.3z"/>
	<path class="st2" d="M100.7,53.5c0.7,0.6,1,1.3,1,2.1c0,0.8-0.2,1.5-0.6,2c-0.4,0.6-0.9,1-1.5,1.3c-1.3,0.6-2.6,0.9-4.1,0.9
		c-0.3,0-0.5-0.1-0.5-0.4c0-0.1,0-0.2,0.1-0.2s0.2-0.1,0.3-0.1c1.3-0.1,2.4-0.4,3.2-1c0.8-0.5,1.2-1.3,1.2-2.3
		c0-0.8-0.3-1.4-0.8-1.8c-0.6-0.4-1.3-0.7-2.3-0.7c-0.4,0-0.6-0.1-0.6-0.3c0-0.1,0.1-0.2,0.2-0.3c1.2-0.7,2-1.3,2.5-1.9
		c0.5-0.6,0.7-1.1,0.7-1.7c0-0.6-0.2-1-0.5-1.3c-0.3-0.3-0.7-0.5-1.2-0.5c-0.5,0-0.8,0.1-1.1,0.3c-0.3,0.2-0.5,0.4-0.6,0.6
		c-0.1,0.2-0.3,0.5-0.5,0.9c-0.2,0.4-0.3,0.6-0.5,0.6c-0.1,0-0.2,0-0.2-0.1c-0.1-0.1-0.1-0.1-0.1-0.2v-1.4c0-0.3,0.3-0.5,0.9-0.8
		c0.6-0.3,1.3-0.4,2.2-0.4c0.9,0,1.7,0.2,2.3,0.6c0.7,0.4,1,1,1,1.8c0,0.8-0.4,1.5-1.1,2.1c-0.5,0.5-1.2,1-2,1.4
		C99.2,52.6,100,53,100.7,53.5z"/>
	<path class="st2" d="M116.5,56.2c0,1.1-0.4,2-1.3,2.6c-0.9,0.6-1.9,0.9-3.1,0.9c-1.2,0-2.2-0.1-3-0.4c-0.8-0.3-1.2-0.6-1.2-1v-2.1
		c0-0.3,0.1-0.4,0.3-0.4c0.2,0,0.3,0.1,0.3,0.3c0.3,0.9,0.7,1.6,1.2,2.1c0.5,0.5,1.2,0.7,2.1,0.7c0.9,0,1.6-0.2,2.2-0.6
		c0.6-0.4,0.8-1,0.8-1.7c0-0.8-0.4-1.5-1.3-2c-0.4-0.2-0.8-0.5-1.3-0.7c-0.5-0.2-1-0.5-1.5-0.7c-0.5-0.2-0.9-0.5-1.3-0.8
		c-0.9-0.7-1.3-1.5-1.3-2.5s0.4-1.8,1.2-2.4c0.8-0.6,1.7-0.9,2.7-0.9s1.9,0.1,2.7,0.4c0.7,0.3,1.1,0.6,1.1,0.9v1.8
		c0,0.2-0.1,0.4-0.3,0.4s-0.3-0.1-0.4-0.4c-0.3-0.8-0.6-1.4-1-1.7c-0.4-0.4-1-0.6-1.8-0.6c-0.8,0-1.5,0.2-1.9,0.6
		c-0.5,0.4-0.7,0.9-0.7,1.4c0,0.6,0.2,1.1,0.7,1.5c0.5,0.4,1,0.8,1.7,1.1c0.7,0.3,1.3,0.7,2,1c0.7,0.3,1.2,0.8,1.7,1.3
		C116.3,54.9,116.5,55.5,116.5,56.2z"/>
	<path class="st2" d="M123.3,46.7c1.4,0,2.5,0.3,3.3,1s1.2,1.5,1.2,2.6c0,1.1-0.4,1.9-1.1,2.7c-0.8,0.7-1.8,1.1-3.1,1.1h-2.2
		c-0.2,0-0.3,0.1-0.3,0.2v4.1c0,0.2,0.1,0.4,0.2,0.5c0.2,0.1,0.4,0.2,0.6,0.2l0.8,0c0.1,0,0.2,0.1,0.2,0.2s-0.1,0.2-0.3,0.2
		l-2.3-0.1l-2,0.1c-0.2,0-0.3-0.1-0.3-0.2c0-0.2,0.1-0.3,0.2-0.3l0.5,0c0.5,0,0.7-0.3,0.7-0.7V47.9c0-0.4-0.3-0.7-0.8-0.7l-0.5-0.1
		c-0.1,0-0.2-0.1-0.2-0.2c0-0.2,0.1-0.3,0.3-0.3l2.5,0.1H123.3z M125.2,52.4c0.5-0.5,0.8-1.2,0.8-2c0-0.8-0.3-1.5-0.8-2
		c-0.5-0.5-1.3-0.8-2.3-0.8h-1.1c-0.5,0-0.7,0.2-0.7,0.7v4.6c0,0.2,0.1,0.2,0.2,0.2h1.6C123.9,53.1,124.7,52.9,125.2,52.4z"/>
	<path class="st2" d="M135,46.7c1.2,0,2.1,0.3,2.9,0.9c0.7,0.6,1.1,1.4,1.1,2.4c0,1-0.4,1.8-1.1,2.4c-0.7,0.6-1.6,1-2.5,1l0,0
		c0.3,0.1,0.5,0.2,0.6,0.5l2.8,4.4c0.3,0.4,0.7,0.7,1.2,0.7l0.3,0c0.2,0,0.2,0.1,0.2,0.2c0,0.2-0.1,0.3-0.3,0.3
		c-1.2,0-1.9-0.1-2.2-0.1c-0.3,0-0.5-0.1-0.7-0.4l-3.1-5.1c-0.2-0.4-0.5-0.6-0.8-0.6h0h-1.3c-0.2,0-0.3,0.1-0.3,0.2v4.6
		c0,0.2,0.1,0.4,0.2,0.5c0.2,0.1,0.4,0.2,0.6,0.2l0.8,0c0.1,0,0.2,0.1,0.2,0.2s-0.1,0.2-0.3,0.2l-2.3-0.1l-2,0.1
		c-0.2,0-0.2-0.1-0.3-0.2c0-0.2,0.1-0.3,0.2-0.3l0.5,0c0.5,0,0.7-0.3,0.7-0.7V47.9c0-0.4-0.3-0.7-0.8-0.7l-0.5-0.1
		c-0.1,0-0.2-0.1-0.2-0.2c0-0.2,0.1-0.3,0.3-0.3l2.5,0.1H135z M136.5,51.9c0.6-0.5,0.8-1.1,0.8-1.8s-0.3-1.4-0.8-1.8
		c-0.6-0.5-1.3-0.7-2.1-0.7h-1.7c-0.5,0-0.7,0.2-0.7,0.7v4.1c0,0.2,0.1,0.2,0.2,0.2h2.2C135.2,52.6,135.9,52.4,136.5,51.9z"/>
	<path class="st2" d="M141.5,59.6c-0.2,0-0.3-0.1-0.3-0.2c0-0.2,0.1-0.2,0.2-0.3l0.3,0c0.5-0.1,0.7-0.3,0.7-0.7V47.9
		c0-0.4-0.3-0.7-0.8-0.7l-0.5-0.1c-0.1,0-0.2-0.1-0.2-0.2c0-0.2,0.1-0.3,0.3-0.3l2.1,0.1l1.8-0.1c0.2,0,0.3,0.1,0.3,0.2
		c0,0.2-0.1,0.3-0.2,0.3l-0.3,0.1c-0.5,0.1-0.7,0.3-0.7,0.7v10.4c0,0.2,0.1,0.4,0.2,0.5c0.2,0.1,0.4,0.2,0.6,0.2l0.5,0
		c0.1,0,0.2,0.1,0.2,0.2c0,0.1,0,0.1-0.1,0.2s-0.1,0.1-0.2,0.1l-2.1-0.1L141.5,59.6z"/>
	<path class="st2" d="M157.3,56.8v-8.8c0-0.4-0.3-0.7-0.8-0.7l-0.5-0.1c-0.1,0-0.2-0.1-0.2-0.3c0-0.1,0.1-0.2,0.3-0.2l1.8,0.1
		l1.4-0.1c0.2,0,0.3,0.1,0.3,0.2c0,0.1-0.1,0.2-0.2,0.3l-0.3,0.1c-0.5,0.1-0.7,0.3-0.7,0.7v11.5c0,0.1-0.1,0.2-0.2,0.2h-0.2
		c-0.3,0-0.6-0.1-0.8-0.4l-7.7-9.8c0,0-0.1,0-0.1,0c0,0-0.1,0.1-0.1,0.2v8.7c0,0.4,0.2,0.6,0.7,0.7l0.3,0.1c0.2,0,0.2,0.1,0.2,0.3
		s-0.1,0.2-0.3,0.2l-1.4-0.1l-1.8,0.1c-0.2,0-0.3-0.1-0.3-0.2s0.1-0.2,0.2-0.3l0.5-0.1c0.6-0.1,0.8-0.3,0.8-0.7V47.9
		c0-0.4-0.2-0.7-0.7-0.7l-0.3,0c-0.1,0-0.2-0.1-0.2-0.3c0-0.2,0.1-0.2,0.3-0.2l1.5,0.1c0.4,0,0.6,0.1,0.8,0.3l7.6,9.8
		c0,0,0.1,0.1,0.1,0.1C157.3,56.9,157.3,56.9,157.3,56.8z"/>
	<path class="st2" d="M167.6,46.5c1,0,1.9,0.1,2.8,0.4c0.8,0.3,1.2,0.6,1.2,0.8v2.1c0,0.1,0,0.2-0.1,0.2c-0.1,0.1-0.1,0.1-0.2,0.1
		c-0.2,0-0.3-0.1-0.4-0.4c-0.2-0.8-0.6-1.5-1.2-1.9c-0.6-0.5-1.3-0.7-2.1-0.7c-1.5,0-2.7,0.5-3.6,1.5c-0.9,1-1.3,2.3-1.3,3.8
		c0,1,0.2,2,0.6,3c0.4,0.9,1,1.7,1.7,2.3c0.7,0.6,1.6,0.9,2.5,0.9c0.9,0,1.7-0.2,2.3-0.6c0.6-0.4,0.9-0.8,0.9-1.2v-2.3
		c0-0.5-0.3-0.7-0.8-0.7l-1-0.1c-0.1,0-0.2-0.1-0.2-0.2c0-0.2,0.1-0.2,0.2-0.2l2.5,0.1l1.8-0.1c0.2,0,0.3,0.1,0.3,0.2
		c0,0.2-0.1,0.3-0.2,0.3l-0.3,0.1c-0.5,0.1-0.7,0.3-0.7,0.7v3.5l0.1,1c0,0.2-0.1,0.3-0.3,0.3c-0.1,0-0.2-0.1-0.3-0.2
		c-0.2-0.4-0.5-0.7-1-0.7c-0.1,0-0.3,0.1-0.5,0.2c-0.8,0.4-1.8,0.7-2.9,0.7c-1.9,0-3.4-0.6-4.6-1.9c-1.2-1.3-1.8-2.8-1.8-4.7
		c0-1.9,0.6-3.5,1.9-4.7C164,47.2,165.6,46.5,167.6,46.5z"/>
</g>
<g>
	<path class="st2" d="M57,128.4h-6.8c-0.1,0-0.2-0.1-0.2-0.2V128c0-0.1,0-0.2,0.1-0.3c0.5-0.9,1.2-1.8,2-2.9
		c0.8-1.1,1.4-1.9,1.8-2.5c0.4-0.6,0.8-1.2,1.1-1.9c0.3-0.7,0.5-1.4,0.5-2c0-0.6-0.2-1.2-0.6-1.6c-0.4-0.4-0.9-0.6-1.5-0.6
		c-0.6,0-1.1,0.2-1.5,0.6c-0.4,0.4-0.6,0.9-0.8,1.4c-0.1,0.2-0.2,0.3-0.4,0.3c-0.1,0-0.2,0-0.2-0.1c-0.1-0.1-0.1-0.1-0.1-0.2v-1.4
		c0-0.3,0.3-0.5,0.9-0.8c0.6-0.3,1.3-0.4,2.2-0.4c1.1,0,2,0.3,2.7,0.9c0.6,0.6,1,1.3,1,2.3c0,0.6-0.1,1.2-0.4,1.8
		c-0.3,0.6-0.6,1.2-1,1.6c-0.4,0.5-1,1.2-1.8,2.2c-0.8,1-1.5,1.9-2.1,2.7h4.5c0.4,0,0.7-0.1,0.8-0.3c0.1-0.2,0.2-0.3,0.3-0.3
		c0.2,0,0.3,0.1,0.2,0.3l-0.1,1.2c0,0.2-0.1,0.3-0.2,0.4C57.2,128.3,57.1,128.4,57,128.4z"/>
	<path class="st2" d="M60.8,126.7c-0.8-1.2-1.2-2.8-1.2-4.7c0-1.9,0.4-3.5,1.2-4.7c0.8-1.2,2-1.8,3.5-1.8c1.5,0,2.7,0.6,3.5,1.8
		c0.8,1.2,1.2,2.8,1.2,4.7c0,1.9-0.4,3.5-1.2,4.7c-0.8,1.2-2,1.8-3.5,1.8C62.8,128.6,61.6,128,60.8,126.7z M64.3,116.2
		c-2,0-3,1.9-3,5.8c0,3.9,1,5.8,3,5.8c2,0,3-1.9,3-5.8C67.3,118.1,66.3,116.2,64.3,116.2z"/>
	<path class="st2" d="M76.7,128.2c0,0.1,0,0.1-0.1,0.2c-0.1,0.1-0.1,0.1-0.2,0.1l-2.5-0.1l-2.7,0.1c-0.2,0-0.3-0.1-0.3-0.3
		c0-0.2,0.1-0.3,0.2-0.3l1,0c0.2,0,0.5-0.1,0.7-0.2c0.2-0.1,0.3-0.3,0.3-0.5V117c0-0.5-0.2-0.7-0.7-0.7c0,0,0,0-0.1,0l-1.2,0.1
		c-0.1,0-0.2-0.1-0.2-0.2c0-0.2,0.1-0.2,0.3-0.3l3.2-0.4c0.2,0,0.3,0.1,0.3,0.2v11.5c0,0.4,0.3,0.7,0.8,0.7l1,0
		C76.6,127.9,76.7,128,76.7,128.2z"/>
	<path class="st2" d="M84.1,122.4c0.7,0.6,1,1.3,1,2.1c0,0.8-0.2,1.5-0.6,2c-0.4,0.6-0.9,1-1.5,1.3c-1.3,0.6-2.6,0.9-4.1,0.9
		c-0.3,0-0.5-0.1-0.5-0.4c0-0.1,0-0.2,0.1-0.2s0.2-0.1,0.3-0.1c1.3-0.1,2.4-0.4,3.2-1c0.8-0.5,1.2-1.3,1.2-2.3
		c0-0.8-0.3-1.4-0.8-1.8c-0.6-0.4-1.3-0.7-2.3-0.7c-0.4,0-0.6-0.1-0.6-0.3c0-0.1,0.1-0.2,0.2-0.3c1.2-0.7,2-1.3,2.5-1.9
		c0.5-0.6,0.7-1.1,0.7-1.7c0-0.6-0.2-1-0.5-1.3c-0.3-0.3-0.7-0.5-1.2-0.5c-0.5,0-0.8,0.1-1.1,0.3c-0.3,0.2-0.5,0.4-0.6,0.6
		c-0.1,0.2-0.3,0.5-0.5,0.9c-0.2,0.4-0.3,0.6-0.5,0.6c-0.1,0-0.2,0-0.2-0.1c-0.1-0.1-0.1-0.1-0.1-0.2v-1.4c0-0.3,0.3-0.5,0.9-0.8
		c0.6-0.3,1.3-0.4,2.2-0.4c0.9,0,1.7,0.2,2.3,0.6c0.7,0.4,1,1,1,1.8c0,0.8-0.4,1.5-1.1,2.1c-0.5,0.5-1.2,1-2,1.4
		C82.6,121.5,83.4,121.8,84.1,122.4z"/>
	<path class="st2" d="M99.9,125.1c0,1.1-0.4,2-1.3,2.6s-1.9,0.9-3.1,0.9c-1.2,0-2.2-0.1-3-0.4c-0.8-0.3-1.2-0.6-1.2-1V125
		c0-0.3,0.1-0.4,0.3-0.4c0.2,0,0.3,0.1,0.3,0.3c0.3,0.9,0.7,1.6,1.2,2.1c0.5,0.5,1.2,0.7,2.1,0.7c0.9,0,1.6-0.2,2.2-0.6
		c0.6-0.4,0.8-1,0.8-1.7c0-0.8-0.4-1.5-1.3-2c-0.4-0.2-0.8-0.5-1.3-0.7c-0.5-0.2-1-0.5-1.5-0.7c-0.5-0.2-0.9-0.5-1.3-0.8
		c-0.9-0.7-1.3-1.5-1.3-2.5c0-1,0.4-1.8,1.2-2.4c0.8-0.6,1.7-0.9,2.7-0.9s1.9,0.1,2.7,0.4c0.7,0.3,1.1,0.6,1.1,0.9v1.8
		c0,0.2-0.1,0.4-0.3,0.4s-0.3-0.1-0.4-0.4c-0.3-0.8-0.6-1.4-1-1.7c-0.4-0.4-1-0.6-1.8-0.6c-0.8,0-1.5,0.2-1.9,0.6
		c-0.5,0.4-0.7,0.9-0.7,1.4c0,0.6,0.2,1.1,0.7,1.5c0.5,0.4,1,0.8,1.7,1.1c0.7,0.3,1.3,0.7,2,1c0.7,0.3,1.2,0.8,1.7,1.3
		C99.6,123.7,99.9,124.4,99.9,125.1z"/>
	<path class="st2" d="M102.7,123.7v-6.9c0-0.4-0.3-0.7-0.8-0.7l-0.5-0.1c-0.1,0-0.2-0.1-0.2-0.2c0-0.2,0.1-0.3,0.3-0.3l2.1,0.1
		l1.8-0.1c0.2,0,0.3,0.1,0.3,0.2c0,0.2-0.1,0.3-0.2,0.3l-0.3,0.1c-0.5,0.1-0.7,0.3-0.7,0.7v6.9c0,1.1,0.3,2,1,2.6
		c0.7,0.6,1.6,0.9,2.7,0.9c1.1,0,2-0.3,2.7-1c0.7-0.6,1-1.5,1-2.6v-6.9c0-0.4-0.2-0.6-0.7-0.7l-0.3-0.1c-0.2,0-0.2-0.1-0.2-0.3
		c0-0.1,0.1-0.2,0.3-0.2l1.4,0.1l1.8-0.1c0.2,0,0.3,0.1,0.3,0.2c0,0.1-0.1,0.2-0.2,0.3l-0.5,0.1c-0.6,0.1-0.8,0.3-0.8,0.7v6.9
		c0,1.5-0.5,2.7-1.4,3.6c-0.9,0.9-2.1,1.3-3.5,1.3c-1.4,0-2.6-0.5-3.6-1.4C103.2,126.3,102.7,125.1,102.7,123.7z"/>
	<path class="st2" d="M131.7,128.2c0,0.1,0,0.1-0.1,0.2c-0.1,0-0.1,0.1-0.2,0.1l-2.1-0.1l-1.8,0.1c-0.2,0-0.3-0.1-0.3-0.2
		c0-0.2,0.1-0.2,0.2-0.3l0.3,0c0.5-0.1,0.8-0.3,0.8-0.7l-0.1-8.6c0-0.1,0-0.2-0.1-0.2c0,0-0.1,0-0.1,0.1l-5,9.9
		c-0.1,0.1-0.1,0.2-0.2,0.2c-0.1,0-0.2-0.1-0.2-0.2l-5-9.6c0,0,0-0.1-0.1-0.1c-0.1,0-0.1,0.1-0.1,0.2l-0.1,8.3
		c0,0.4,0.2,0.6,0.7,0.7l0.3,0.1c0.2,0,0.2,0.1,0.2,0.3s-0.1,0.2-0.3,0.2l-1.5-0.1l-1.8,0.1c-0.2,0-0.3-0.1-0.3-0.2s0.1-0.2,0.2-0.3
		l0.5-0.1c0.6-0.1,0.8-0.3,0.8-0.7l0.2-10.4c0-0.4-0.2-0.7-0.7-0.7l-0.3,0c-0.1,0-0.2-0.1-0.2-0.3s0.1-0.2,0.3-0.2l1.6,0.1
		c0.4,0,0.7,0.1,0.8,0.4l5.2,10.2l5-10.2c0.1-0.2,0.4-0.3,0.8-0.4l1.6-0.1c0.2,0,0.3,0.1,0.3,0.2s-0.1,0.2-0.2,0.3l-0.3,0
		c-0.5,0-0.7,0.3-0.7,0.7l0.2,10.4c0,0.2,0.1,0.4,0.2,0.5c0.2,0.1,0.3,0.2,0.6,0.2l0.5,0C131.6,127.9,131.7,128,131.7,128.2z"/>
	<path class="st2" d="M149.2,128.2c0,0.1,0,0.1-0.1,0.2c-0.1,0-0.1,0.1-0.2,0.1l-2.1-0.1l-1.8,0.1c-0.2,0-0.3-0.1-0.3-0.2
		c0-0.2,0.1-0.2,0.2-0.3l0.3,0c0.5-0.1,0.8-0.3,0.8-0.7l-0.1-8.6c0-0.1,0-0.2-0.1-0.2c0,0-0.1,0-0.1,0.1l-5,9.9
		c-0.1,0.1-0.1,0.2-0.2,0.2c-0.1,0-0.2-0.1-0.2-0.2l-5-9.6c0,0,0-0.1-0.1-0.1c-0.1,0-0.1,0.1-0.1,0.2l-0.1,8.3
		c0,0.4,0.2,0.6,0.7,0.7l0.3,0.1c0.2,0,0.2,0.1,0.2,0.3s-0.1,0.2-0.3,0.2l-1.5-0.1l-1.8,0.1c-0.2,0-0.3-0.1-0.3-0.2s0.1-0.2,0.2-0.3
		l0.5-0.1c0.6-0.1,0.8-0.3,0.8-0.7l0.2-10.4c0-0.4-0.2-0.7-0.7-0.7l-0.3,0c-0.1,0-0.2-0.1-0.2-0.3s0.1-0.2,0.3-0.2l1.6,0.1
		c0.4,0,0.7,0.1,0.8,0.4l5.2,10.2l5-10.2c0.1-0.2,0.4-0.3,0.8-0.4l1.6-0.1c0.2,0,0.3,0.1,0.3,0.2s-0.1,0.2-0.2,0.3l-0.3,0
		c-0.5,0-0.7,0.3-0.7,0.7l0.2,10.4c0,0.2,0.1,0.4,0.2,0.5c0.2,0.1,0.3,0.2,0.6,0.2l0.5,0C149.1,127.9,149.2,128,149.2,128.2z"/>
	<path class="st2" d="M159.4,128.4h-6.8l-2.1,0.1c-0.2,0-0.3-0.1-0.3-0.2s0.1-0.2,0.2-0.2l0.5,0c0.2,0,0.4-0.1,0.6-0.2
		c0.2-0.1,0.2-0.3,0.2-0.5v-10.4c0-0.4-0.3-0.7-0.8-0.7l-0.5-0.1c-0.1,0-0.2-0.1-0.2-0.2s0.1-0.2,0.3-0.2l2.1,0.1h6.5
		c0.2,0,0.4,0.1,0.6,0.2c0.1,0.1,0.2,0.3,0.3,0.5l0.3,1.7c0,0.2-0.1,0.3-0.3,0.3c-0.2,0-0.3-0.1-0.4-0.3c-0.2-0.6-0.5-1-0.8-1.2
		c-0.4-0.2-0.9-0.4-1.5-0.4h-2.9c-0.3,0-0.5,0.1-0.6,0.2c-0.2,0.2-0.2,0.4-0.2,0.6v3.8c0,0.2,0.1,0.2,0.2,0.2h3.4
		c0.2,0,0.3,0,0.4-0.1s0.2-0.2,0.2-0.2c0-0.1,0.1-0.2,0.1-0.4l0.1-0.2c0-0.1,0.1-0.2,0.3-0.2c0.1,0,0.2,0.1,0.2,0.3l-0.1,1.5
		l0.1,1.5c0,0.2-0.1,0.2-0.2,0.3c-0.1,0-0.2-0.1-0.3-0.2l-0.1-0.3c-0.1-0.6-0.4-0.9-0.7-0.9h-3.4c-0.1,0-0.2,0.1-0.2,0.3v4.2
		c0,0.3,0.1,0.5,0.2,0.6s0.4,0.2,0.6,0.2h3c0.6,0,1.2-0.2,1.6-0.5c0.5-0.3,0.8-0.8,1-1.4c0.1-0.2,0.2-0.3,0.3-0.3
		c0.1,0,0.2,0,0.3,0.1c0.1,0.1,0.1,0.1,0.1,0.2l-0.3,1.9c0,0.2-0.1,0.4-0.3,0.5C159.8,128.3,159.6,128.4,159.4,128.4z"/>
	<path class="st2" d="M167.9,115.6c1.2,0,2.1,0.3,2.9,0.9c0.7,0.6,1.1,1.4,1.1,2.4c0,1-0.4,1.8-1.1,2.4c-0.7,0.6-1.6,1-2.5,1l0,0
		c0.3,0.1,0.5,0.2,0.6,0.5l2.8,4.4c0.3,0.4,0.7,0.7,1.2,0.7l0.3,0c0.2,0,0.2,0.1,0.2,0.2c0,0.2-0.1,0.3-0.3,0.3
		c-1.2,0-1.9-0.1-2.2-0.1c-0.3,0-0.5-0.1-0.7-0.4l-3.1-5.1c-0.2-0.4-0.5-0.6-0.8-0.6h0h-1.3c-0.2,0-0.3,0.1-0.3,0.2v4.6
		c0,0.2,0.1,0.4,0.2,0.5c0.2,0.1,0.4,0.2,0.6,0.2l0.8,0c0.1,0,0.2,0.1,0.2,0.2s-0.1,0.2-0.3,0.2l-2.3-0.1l-2,0.1
		c-0.2,0-0.2-0.1-0.3-0.2c0-0.2,0.1-0.3,0.2-0.3l0.5,0c0.5,0,0.7-0.3,0.7-0.7v-10.4c0-0.4-0.3-0.7-0.8-0.7L162,116
		c-0.1,0-0.2-0.1-0.2-0.2c0-0.2,0.1-0.3,0.3-0.3l2.5,0.1H167.9z M169.4,120.8c0.6-0.5,0.8-1.1,0.8-1.8s-0.3-1.4-0.8-1.8
		c-0.6-0.5-1.3-0.7-2.1-0.7h-1.7c-0.5,0-0.7,0.2-0.7,0.7v4.1c0,0.2,0.1,0.2,0.2,0.2h2.2C168.2,121.5,168.9,121.3,169.4,120.8z"/>
</g>
<g>
	<path class="st2" d="M93.8,197.2H87c-0.1,0-0.2-0.1-0.2-0.2v-0.2c0-0.1,0-0.2,0.1-0.3c0.5-0.9,1.2-1.8,2-2.9
		c0.8-1.1,1.4-1.9,1.8-2.5c0.4-0.6,0.8-1.2,1.1-1.9c0.3-0.7,0.5-1.4,0.5-2c0-0.6-0.2-1.2-0.6-1.6c-0.4-0.4-0.9-0.6-1.5-0.6
		c-0.6,0-1.1,0.2-1.5,0.6c-0.4,0.4-0.6,0.9-0.8,1.4c-0.1,0.2-0.2,0.3-0.4,0.3c-0.1,0-0.2,0-0.2-0.1c-0.1-0.1-0.1-0.1-0.1-0.2v-1.4
		c0-0.3,0.3-0.5,0.9-0.8c0.6-0.3,1.3-0.4,2.2-0.4c1.1,0,2,0.3,2.7,0.9c0.6,0.6,1,1.3,1,2.3c0,0.6-0.1,1.2-0.4,1.8
		c-0.3,0.6-0.6,1.2-1,1.6c-0.4,0.5-1,1.2-1.8,2.2c-0.8,1-1.5,1.9-2.1,2.7H93c0.4,0,0.7-0.1,0.8-0.3c0.1-0.2,0.2-0.3,0.3-0.3
		c0.2,0,0.3,0.1,0.2,0.3l-0.1,1.2c0,0.2-0.1,0.3-0.2,0.4C94,197.1,93.9,197.2,93.8,197.2z"/>
	<path class="st2" d="M97.6,195.5c-0.8-1.2-1.2-2.8-1.2-4.7c0-1.9,0.4-3.5,1.2-4.7c0.8-1.2,2-1.8,3.5-1.8c1.5,0,2.7,0.6,3.5,1.8
		c0.8,1.2,1.2,2.8,1.2,4.7c0,1.9-0.4,3.5-1.2,4.7c-0.8,1.2-2,1.8-3.5,1.8C99.6,197.4,98.4,196.7,97.6,195.5z M101.1,185
		c-2,0-3,1.9-3,5.8c0,3.9,1,5.8,3,5.8s3-1.9,3-5.8C104.1,186.9,103.1,185,101.1,185z"/>
	<path class="st2" d="M113.5,197c0,0.1,0,0.1-0.1,0.2c-0.1,0.1-0.1,0.1-0.2,0.1l-2.5-0.1l-2.7,0.1c-0.2,0-0.3-0.1-0.3-0.3
		c0-0.2,0.1-0.3,0.2-0.3l1,0c0.2,0,0.5-0.1,0.7-0.2c0.2-0.1,0.3-0.3,0.3-0.5v-10.1c0-0.5-0.2-0.7-0.7-0.7c0,0,0,0-0.1,0l-1.2,0.1
		c-0.1,0-0.2-0.1-0.2-0.2c0-0.2,0.1-0.2,0.3-0.3l3.2-0.4c0.2,0,0.3,0.1,0.3,0.2v11.5c0,0.4,0.3,0.7,0.8,0.7l1,0
		C113.4,196.7,113.5,196.8,113.5,197z"/>
	<path class="st2" d="M120.9,191.2c0.7,0.6,1,1.3,1,2.1c0,0.8-0.2,1.5-0.6,2c-0.4,0.6-0.9,1-1.5,1.3c-1.3,0.6-2.6,0.9-4.1,0.9
		c-0.3,0-0.5-0.1-0.5-0.4c0-0.1,0-0.2,0.1-0.2s0.2-0.1,0.3-0.1c1.3-0.1,2.4-0.4,3.2-1c0.8-0.5,1.2-1.3,1.2-2.3
		c0-0.8-0.3-1.4-0.8-1.8c-0.6-0.4-1.3-0.7-2.3-0.7c-0.4,0-0.6-0.1-0.6-0.3c0-0.1,0.1-0.2,0.2-0.3c1.2-0.7,2-1.3,2.5-1.9
		c0.5-0.6,0.7-1.1,0.7-1.7c0-0.6-0.2-1-0.5-1.3c-0.3-0.3-0.7-0.5-1.2-0.5c-0.5,0-0.8,0.1-1.1,0.3c-0.3,0.2-0.5,0.4-0.6,0.6
		c-0.1,0.2-0.3,0.5-0.5,0.9c-0.2,0.4-0.3,0.6-0.5,0.6c-0.1,0-0.2,0-0.2-0.1c-0.1-0.1-0.1-0.1-0.1-0.2v-1.4c0-0.3,0.3-0.5,0.9-0.8
		c0.6-0.3,1.3-0.4,2.2-0.4c0.9,0,1.7,0.2,2.3,0.6c0.7,0.4,1,1,1,1.8c0,0.8-0.4,1.5-1.1,2.1c-0.5,0.5-1.2,1-2,1.4
		C119.4,190.3,120.2,190.6,120.9,191.2z"/>
	<path class="st2" d="M137.4,186.8c0,0.2-0.1,0.3-0.3,0.3c-0.2,0-0.3-0.1-0.4-0.3c-0.2-0.6-0.5-1-0.8-1.2c-0.4-0.2-0.9-0.4-1.5-0.4
		h-2.7c-0.3,0-0.5,0.1-0.6,0.2c-0.2,0.2-0.2,0.4-0.2,0.6v4c0,0.2,0.1,0.2,0.2,0.2h3.2c0.2,0,0.3,0,0.4-0.1c0.1-0.1,0.2-0.2,0.2-0.2
		c0-0.1,0.1-0.2,0.1-0.4l0.1-0.2c0-0.1,0.1-0.2,0.2-0.2c0.2,0,0.3,0.1,0.3,0.2l-0.1,1.6l0.1,1.5c0,0.2-0.1,0.3-0.2,0.3
		c-0.2,0-0.2-0.1-0.3-0.2l-0.1-0.3c0-0.3-0.1-0.6-0.2-0.7c-0.1-0.2-0.3-0.2-0.5-0.2H131c-0.1,0-0.2,0.1-0.2,0.3v4.5
		c0,0.4,0.3,0.7,0.8,0.7l0.5,0c0.1,0,0.2,0.1,0.2,0.2c0,0.2-0.1,0.3-0.3,0.3l-2.1-0.1l-2.1,0.1c-0.2,0-0.3-0.1-0.3-0.2
		s0.1-0.2,0.2-0.2l0.5,0c0.2,0,0.4-0.1,0.6-0.2c0.2-0.1,0.2-0.3,0.2-0.5v-10.4c0-0.4-0.3-0.7-0.8-0.7l-0.5-0.1
		c-0.1,0-0.2-0.1-0.2-0.2s0.1-0.2,0.3-0.2l2.1,0.1h6.3c0.2,0,0.4,0.1,0.6,0.2c0.1,0.1,0.2,0.3,0.3,0.5L137.4,186.8z"/>
	<path class="st2" d="M139.3,196c0,0.1,0,0.2,0,0.2s0,0.2,0.1,0.3c0.1,0.1,0.2,0.2,0.4,0.2l0.4,0c0.2,0,0.2,0.1,0.2,0.2
		c0,0.2-0.1,0.3-0.3,0.3l-1.6-0.1l-1.7,0.1c-0.2,0-0.3-0.1-0.3-0.2s0.1-0.2,0.2-0.2l0.3,0c0.5-0.1,0.9-0.3,1.1-0.7l4.7-11.5
		c0-0.1,0.2-0.2,0.4-0.2s0.4,0.1,0.4,0.2l4.7,11.5c0.2,0.4,0.5,0.7,1,0.7l0.4,0c0,0,0.1,0,0.1,0.1c0,0,0.1,0.1,0.1,0.1
		c0,0.2-0.1,0.3-0.3,0.3l-2.1-0.1l-1.9,0.1c-0.2,0-0.3-0.1-0.3-0.2c0-0.2,0.1-0.3,0.2-0.3l0.4,0c0.2,0,0.3-0.1,0.4-0.2
		c0.1-0.1,0.2-0.2,0.2-0.3s0-0.2-0.1-0.3l-1.1-2.8c0-0.1-0.1-0.2-0.3-0.2h-4.7c-0.1,0-0.2,0.1-0.3,0.2L139.3,196z M141,192.1h4.1
		c0.1,0,0.2-0.1,0.1-0.2l-2.2-5.6l-2.2,5.6C140.8,192.1,140.9,192.1,141,192.1z"/>
	<path class="st2" d="M153.6,185.6v9.9c0,0.3,0.1,0.5,0.2,0.6s0.4,0.2,0.6,0.2h2.6c0.6,0,1.2-0.2,1.7-0.5c0.5-0.3,0.8-0.8,0.9-1.4
		c0.1-0.2,0.2-0.3,0.4-0.3s0.3,0.1,0.3,0.3l-0.3,1.9c0,0.2-0.1,0.4-0.3,0.5c-0.1,0.1-0.3,0.2-0.6,0.2h-6.5l-2.1,0.1
		c-0.2,0-0.3-0.1-0.3-0.2s0.1-0.2,0.2-0.2l0.5,0c0.2,0,0.4-0.1,0.6-0.2c0.2-0.1,0.2-0.3,0.2-0.5v-10.4c0-0.4-0.3-0.7-0.8-0.7
		l-0.5-0.1c-0.1,0-0.2-0.1-0.2-0.2c0-0.2,0.1-0.3,0.3-0.3l2.1,0.1l1.8-0.1c0.2,0,0.3,0.1,0.3,0.2c0,0.2-0.1,0.3-0.2,0.3l-0.3,0.1
		C153.8,185,153.6,185.2,153.6,185.6z"/>
	<path class="st2" d="M164.4,185.6v9.9c0,0.3,0.1,0.5,0.2,0.6s0.4,0.2,0.6,0.2h2.6c0.6,0,1.2-0.2,1.7-0.5c0.5-0.3,0.8-0.8,0.9-1.4
		c0.1-0.2,0.2-0.3,0.4-0.3c0.2,0,0.3,0.1,0.3,0.3l-0.3,1.9c0,0.2-0.1,0.4-0.3,0.5c-0.1,0.1-0.3,0.2-0.6,0.2h-6.5l-2.1,0.1
		c-0.2,0-0.3-0.1-0.3-0.2s0.1-0.2,0.2-0.2l0.5,0c0.2,0,0.4-0.1,0.6-0.2c0.2-0.1,0.2-0.3,0.2-0.5v-10.4c0-0.4-0.3-0.7-0.8-0.7
		l-0.5-0.1c-0.1,0-0.2-0.1-0.2-0.2c0-0.2,0.1-0.3,0.3-0.3l2.1,0.1l1.8-0.1c0.2,0,0.3,0.1,0.3,0.2c0,0.2-0.1,0.3-0.2,0.3l-0.3,0.1
		C164.7,185,164.4,185.2,164.4,185.6z"/>
</g>
<g>
	<path class="st2" d="M141.1,264.3h-6.8c-0.1,0-0.2-0.1-0.2-0.2v-0.2c0-0.1,0-0.2,0.1-0.3c0.5-0.9,1.2-1.8,2-2.9
		c0.8-1.1,1.4-1.9,1.8-2.5c0.4-0.6,0.8-1.2,1.1-1.9c0.3-0.7,0.5-1.4,0.5-2c0-0.6-0.2-1.2-0.6-1.6c-0.4-0.4-0.9-0.6-1.5-0.6
		c-0.6,0-1.1,0.2-1.5,0.6c-0.4,0.4-0.6,0.9-0.8,1.4c-0.1,0.2-0.2,0.3-0.4,0.3c-0.1,0-0.2,0-0.2-0.1c-0.1-0.1-0.1-0.1-0.1-0.2v-1.4
		c0-0.3,0.3-0.5,0.9-0.8c0.6-0.3,1.3-0.4,2.2-0.4c1.1,0,2,0.3,2.7,0.9c0.6,0.6,1,1.3,1,2.3c0,0.6-0.1,1.2-0.4,1.8
		c-0.3,0.6-0.6,1.2-1,1.6s-1,1.2-1.8,2.2c-0.8,1-1.5,1.9-2.1,2.7h4.5c0.4,0,0.7-0.1,0.8-0.3c0.1-0.2,0.2-0.3,0.3-0.3
		c0.2,0,0.3,0.1,0.2,0.3l-0.1,1.2c0,0.2-0.1,0.3-0.2,0.4C141.3,264.2,141.2,264.3,141.1,264.3z"/>
	<path class="st2" d="M144.9,262.6c-0.8-1.2-1.2-2.8-1.2-4.7c0-1.9,0.4-3.5,1.2-4.7c0.8-1.2,2-1.8,3.5-1.8c1.5,0,2.7,0.6,3.5,1.8
		c0.8,1.2,1.2,2.8,1.2,4.7c0,1.9-0.4,3.5-1.2,4.7c-0.8,1.2-2,1.8-3.5,1.8C146.9,264.5,145.7,263.9,144.9,262.6z M148.4,252.1
		c-2,0-3,1.9-3,5.8c0,3.9,1,5.8,3,5.8c2,0,3-1.9,3-5.8C151.4,254,150.4,252.1,148.4,252.1z"/>
	<path class="st2" d="M160.7,264.1c0,0.1,0,0.1-0.1,0.2c-0.1,0.1-0.1,0.1-0.2,0.1l-2.5-0.1l-2.7,0.1c-0.2,0-0.3-0.1-0.3-0.3
		c0-0.2,0.1-0.3,0.2-0.3l1,0c0.2,0,0.5-0.1,0.7-0.2c0.2-0.1,0.3-0.3,0.3-0.5v-10.1c0-0.5-0.2-0.7-0.7-0.7c0,0,0,0-0.1,0l-1.2,0.1
		c-0.1,0-0.2-0.1-0.2-0.2s0.1-0.2,0.3-0.3l3.2-0.4c0.2,0,0.3,0.1,0.3,0.2V263c0,0.4,0.3,0.7,0.8,0.7l1,0
		C160.7,263.8,160.7,263.9,160.7,264.1z"/>
	<path class="st2" d="M170.9,260.4c0,0.3-0.1,0.4-0.3,0.4h-1.3v3.2c0,0.3-0.1,0.4-0.4,0.4h-0.8c-0.3,0-0.4-0.1-0.4-0.4v-3.2h-5.7
		c-0.1,0-0.2-0.1-0.2-0.2v-0.2c0-0.1,0-0.2,0.1-0.3l6.1-8.4c0.1-0.2,0.3-0.3,0.5-0.3h0.3c0.2,0,0.3,0,0.3,0.1s0.1,0.2,0.1,0.3v7.9
		h1.3c0.2,0,0.3,0.1,0.3,0.3V260.4z M167.7,259.7v-6.3l-4.2,6c0,0.1-0.1,0.2-0.1,0.2c0,0.1,0,0.1,0.1,0.1H167.7z"/>
</g>
<g>
	<path class="st2" d="M142.1,334.8h-6.8c-0.1,0-0.2-0.1-0.2-0.2v-0.2c0-0.1,0-0.2,0.1-0.3c0.5-0.9,1.2-1.8,2-2.9
		c0.8-1.1,1.4-1.9,1.8-2.5c0.4-0.6,0.8-1.2,1.1-1.9c0.3-0.7,0.5-1.4,0.5-2c0-0.6-0.2-1.2-0.6-1.6c-0.4-0.4-0.9-0.6-1.5-0.6
		s-1.1,0.2-1.5,0.6c-0.4,0.4-0.6,0.9-0.8,1.4c-0.1,0.2-0.2,0.3-0.4,0.3c-0.1,0-0.2,0-0.2-0.1c-0.1-0.1-0.1-0.1-0.1-0.2v-1.4
		c0-0.3,0.3-0.5,0.9-0.8c0.6-0.3,1.3-0.4,2.2-0.4c1.1,0,2,0.3,2.7,0.9c0.6,0.6,1,1.3,1,2.3c0,0.6-0.1,1.2-0.4,1.8
		c-0.3,0.6-0.6,1.2-1,1.6s-1,1.2-1.8,2.2c-0.8,1-1.5,1.9-2.1,2.7h4.5c0.4,0,0.7-0.1,0.8-0.3c0.1-0.2,0.2-0.3,0.3-0.3
		c0.2,0,0.3,0.1,0.2,0.3l-0.1,1.2c0,0.2-0.1,0.3-0.2,0.4C142.3,334.8,142.2,334.8,142.1,334.8z"/>
	<path class="st2" d="M145.9,333.2c-0.8-1.2-1.2-2.8-1.2-4.7c0-1.9,0.4-3.5,1.2-4.7c0.8-1.2,2-1.8,3.5-1.8c1.5,0,2.7,0.6,3.5,1.8
		c0.8,1.2,1.2,2.8,1.2,4.7c0,1.9-0.4,3.5-1.2,4.7c-0.8,1.2-2,1.8-3.5,1.8C147.9,335,146.8,334.4,145.9,333.2z M149.5,322.7
		c-2,0-3,1.9-3,5.8c0,3.9,1,5.8,3,5.8c2,0,3-1.9,3-5.8C152.5,324.6,151.5,322.7,149.5,322.7z"/>
	<path class="st2" d="M161.8,334.6c0,0.1,0,0.1-0.1,0.2c-0.1,0.1-0.1,0.1-0.2,0.1l-2.5-0.1l-2.7,0.1c-0.2,0-0.3-0.1-0.3-0.3
		c0-0.2,0.1-0.3,0.2-0.3l1,0c0.2,0,0.5-0.1,0.7-0.2c0.2-0.1,0.3-0.3,0.3-0.5v-10.1c0-0.5-0.2-0.7-0.7-0.7c0,0,0,0-0.1,0l-1.2,0.1
		c-0.1,0-0.2-0.1-0.2-0.2s0.1-0.2,0.3-0.3l3.2-0.4c0.2,0,0.3,0.1,0.3,0.2v11.5c0,0.4,0.3,0.7,0.8,0.7l1,0
		C161.7,334.4,161.8,334.5,161.8,334.6z"/>
	<path class="st2" d="M169.5,323.6h-4.1l-0.3,2.8c1.5,0.2,2.7,0.7,3.6,1.4c0.9,0.7,1.3,1.6,1.3,2.8c0,0.7-0.2,1.4-0.6,2
		c-0.4,0.6-0.9,1.1-1.5,1.4c-1.2,0.7-2.5,1.1-3.9,1.1c-0.3,0-0.5-0.1-0.5-0.4c0-0.2,0.2-0.3,0.5-0.4c1.2-0.1,2.2-0.5,3-1.1
		c0.9-0.6,1.3-1.4,1.3-2.3c0-0.9-0.4-1.6-1.1-2.2c-0.7-0.5-1.7-0.9-2.9-1c-0.2,0-0.3,0-0.3-0.1c0-0.1-0.1-0.2,0-0.3l0.6-5.2
		c0-0.1,0.1-0.2,0.2-0.2h4.8c0.1,0,0.1,0,0.1,0.1c0,0,0,0.1,0,0.1l-0.1,1.1C169.7,323.6,169.7,323.6,169.5,323.6z"/>
</g>
<g>
	<path class="st2" d="M69.5,401.8h-6.8c-0.1,0-0.2-0.1-0.2-0.2v-0.2c0-0.1,0-0.2,0.1-0.3c0.5-0.9,1.2-1.8,2-2.9
		c0.8-1.1,1.4-1.9,1.8-2.5c0.4-0.6,0.8-1.2,1.1-1.9c0.3-0.7,0.5-1.4,0.5-2c0-0.6-0.2-1.2-0.6-1.6c-0.4-0.4-0.9-0.6-1.5-0.6
		s-1.1,0.2-1.5,0.6c-0.4,0.4-0.6,0.9-0.8,1.4c-0.1,0.2-0.2,0.3-0.4,0.3c-0.1,0-0.2,0-0.2-0.1c-0.1-0.1-0.1-0.1-0.1-0.2v-1.4
		c0-0.3,0.3-0.5,0.9-0.8c0.6-0.3,1.3-0.4,2.2-0.4c1.1,0,2,0.3,2.7,0.9c0.6,0.6,1,1.3,1,2.3c0,0.6-0.1,1.2-0.4,1.8
		c-0.3,0.6-0.6,1.2-1,1.6c-0.4,0.5-1,1.2-1.8,2.2c-0.8,1-1.5,1.9-2.1,2.7h4.5c0.4,0,0.7-0.1,0.8-0.3c0.1-0.2,0.2-0.3,0.3-0.3
		c0.2,0,0.3,0.1,0.2,0.3l-0.1,1.2c0,0.2-0.1,0.3-0.2,0.4C69.7,401.7,69.6,401.8,69.5,401.8z"/>
	<path class="st2" d="M73.3,400.1c-0.8-1.2-1.2-2.8-1.2-4.7c0-1.9,0.4-3.5,1.2-4.7c0.8-1.2,2-1.8,3.5-1.8c1.5,0,2.7,0.6,3.5,1.8
		c0.8,1.2,1.2,2.8,1.2,4.7c0,1.9-0.4,3.5-1.2,4.7c-0.8,1.2-2,1.8-3.5,1.8C75.3,402,74.1,401.4,73.3,400.1z M76.8,389.6
		c-2,0-3,1.9-3,5.8c0,3.9,1,5.8,3,5.8s3-1.9,3-5.8C79.8,391.5,78.8,389.6,76.8,389.6z"/>
	<path class="st2" d="M89.2,401.6c0,0.1,0,0.1-0.1,0.2c-0.1,0.1-0.1,0.1-0.2,0.1l-2.5-0.1l-2.7,0.1c-0.2,0-0.3-0.1-0.3-0.3
		c0-0.2,0.1-0.3,0.2-0.3l1,0c0.2,0,0.5-0.1,0.7-0.2c0.2-0.1,0.3-0.3,0.3-0.5v-10.1c0-0.5-0.2-0.7-0.7-0.7c0,0,0,0-0.1,0l-1.2,0.1
		c-0.1,0-0.2-0.1-0.2-0.2s0.1-0.2,0.3-0.3l3.2-0.4c0.2,0,0.3,0.1,0.3,0.2v11.5c0,0.4,0.3,0.7,0.8,0.7l1,0
		C89.1,401.3,89.2,401.4,89.2,401.6z"/>
	<path class="st2" d="M99.3,398.1c0,1.1-0.4,2-1.1,2.8c-0.8,0.8-1.8,1.2-3,1.2c-1.2,0-2.2-0.4-2.9-1.2c-0.7-0.8-1.1-2-1.1-3.5
		c0-1.5,0.5-3.1,1.6-4.7c1.1-1.6,2.5-2.9,4.3-3.7c0,0,0.1,0,0.2,0c0.1,0,0.2,0,0.3,0.1c0.1,0.1,0.2,0.2,0.2,0.3
		c0,0.2-0.1,0.3-0.3,0.4c-2.3,1.4-3.7,3.2-4.4,5.5c0.6-0.6,1.5-0.9,2.4-0.9c1.2,0,2.2,0.4,2.9,1.1C99,396.1,99.3,397,99.3,398.1z
		 M93.5,400.3c0.4,0.6,1,0.9,1.8,0.9c0.7,0,1.3-0.3,1.8-0.9c0.4-0.6,0.7-1.3,0.7-2.3c0-0.9-0.2-1.7-0.7-2.2c-0.5-0.5-1-0.8-1.8-0.8
		c-0.7,0-1.3,0.3-1.8,0.8c-0.4,0.5-0.7,1.2-0.7,2.2C92.8,399,93,399.8,93.5,400.3z"/>
	<path class="st2" d="M113.9,398.5c0,1.1-0.4,2-1.3,2.6c-0.9,0.6-1.9,0.9-3.1,0.9c-1.2,0-2.2-0.1-3-0.4c-0.8-0.3-1.2-0.6-1.2-1v-2.1
		c0-0.3,0.1-0.4,0.3-0.4c0.2,0,0.3,0.1,0.3,0.3c0.3,0.9,0.7,1.6,1.2,2.1c0.5,0.5,1.2,0.7,2.1,0.7s1.6-0.2,2.2-0.6
		c0.6-0.4,0.8-1,0.8-1.7c0-0.8-0.5-1.5-1.3-2c-0.4-0.2-0.8-0.5-1.3-0.7c-0.5-0.2-1-0.5-1.5-0.7c-0.5-0.2-0.9-0.5-1.3-0.8
		c-0.9-0.7-1.3-1.5-1.3-2.5s0.4-1.8,1.2-2.4c0.8-0.6,1.7-0.9,2.7-0.9c1,0,1.9,0.1,2.7,0.4c0.7,0.3,1.1,0.6,1.1,0.9v1.8
		c0,0.2-0.1,0.4-0.3,0.4c-0.2,0-0.3-0.1-0.4-0.4c-0.3-0.8-0.6-1.4-1-1.7c-0.4-0.4-1-0.6-1.8-0.6s-1.5,0.2-1.9,0.6
		c-0.5,0.4-0.7,0.9-0.7,1.4c0,0.6,0.2,1.1,0.7,1.5c0.5,0.4,1,0.8,1.7,1.1c0.7,0.3,1.3,0.7,2,1c0.7,0.3,1.2,0.8,1.7,1.3
		C113.7,397.1,113.9,397.8,113.9,398.5z"/>
	<path class="st2" d="M120.7,389c1.4,0,2.5,0.3,3.3,1c0.8,0.6,1.2,1.5,1.2,2.6c0,1.1-0.4,1.9-1.1,2.7c-0.8,0.7-1.8,1.1-3.1,1.1h-2.2
		c-0.2,0-0.3,0.1-0.3,0.2v4.1c0,0.2,0.1,0.4,0.2,0.5c0.2,0.1,0.4,0.2,0.6,0.2l0.8,0c0.1,0,0.2,0.1,0.2,0.2c0,0.2-0.1,0.2-0.3,0.2
		l-2.3-0.1l-2,0.1c-0.2,0-0.3-0.1-0.3-0.2c0-0.2,0.1-0.3,0.2-0.3l0.5,0c0.5,0,0.7-0.3,0.7-0.7v-10.4c0-0.4-0.3-0.7-0.8-0.7l-0.5-0.1
		c-0.1,0-0.2-0.1-0.2-0.2c0-0.2,0.1-0.3,0.3-0.3l2.5,0.1H120.7z M122.7,394.6c0.5-0.5,0.8-1.2,0.8-2c0-0.8-0.3-1.5-0.8-2
		c-0.5-0.5-1.3-0.8-2.3-0.8h-1.1c-0.5,0-0.7,0.2-0.7,0.7v4.6c0,0.2,0.1,0.2,0.2,0.2h1.6C121.3,395.4,122.1,395.2,122.7,394.6z"/>
	<path class="st2" d="M132.4,389c1.2,0,2.1,0.3,2.9,0.9c0.7,0.6,1.1,1.4,1.1,2.4c0,1-0.4,1.8-1.1,2.4s-1.6,1-2.5,1l0,0
		c0.3,0.1,0.5,0.2,0.6,0.5l2.8,4.4c0.3,0.4,0.7,0.7,1.2,0.7l0.3,0c0.2,0,0.2,0.1,0.2,0.2c0,0.2-0.1,0.3-0.3,0.3
		c-1.2,0-1.9-0.1-2.2-0.1s-0.5-0.1-0.7-0.4l-3.1-5.1c-0.2-0.4-0.5-0.6-0.8-0.6h0h-1.3c-0.2,0-0.3,0.1-0.3,0.2v4.6
		c0,0.2,0.1,0.4,0.2,0.5c0.2,0.1,0.4,0.2,0.6,0.2l0.8,0c0.1,0,0.2,0.1,0.2,0.2c0,0.2-0.1,0.2-0.3,0.2l-2.3-0.1l-2,0.1
		c-0.2,0-0.2-0.1-0.3-0.2c0-0.2,0.1-0.3,0.2-0.3l0.5,0c0.5,0,0.7-0.3,0.7-0.7v-10.4c0-0.4-0.3-0.7-0.8-0.7l-0.5-0.1
		c-0.1,0-0.2-0.1-0.2-0.2c0-0.2,0.1-0.3,0.3-0.3l2.5,0.1H132.4z M133.9,394.2c0.6-0.5,0.8-1.1,0.8-1.8s-0.3-1.4-0.8-1.8
		c-0.6-0.5-1.3-0.7-2.1-0.7h-1.7c-0.5,0-0.7,0.2-0.7,0.7v4.1c0,0.2,0.1,0.2,0.2,0.2h2.2C132.7,394.9,133.4,394.7,133.9,394.2z"/>
	<path class="st2" d="M138.9,401.9c-0.2,0-0.3-0.1-0.3-0.2c0-0.2,0.1-0.2,0.2-0.3l0.3,0c0.5-0.1,0.7-0.3,0.7-0.7v-10.4
		c0-0.4-0.3-0.7-0.8-0.7l-0.5-0.1c-0.1,0-0.2-0.1-0.2-0.2c0-0.2,0.1-0.3,0.3-0.3l2.1,0.1l1.8-0.1c0.2,0,0.3,0.1,0.3,0.2
		c0,0.2-0.1,0.3-0.2,0.3l-0.3,0.1c-0.5,0.1-0.7,0.3-0.7,0.7v10.4c0,0.2,0.1,0.4,0.2,0.5c0.2,0.1,0.4,0.2,0.6,0.2l0.5,0
		c0.1,0,0.2,0.1,0.2,0.2c0,0.1,0,0.1-0.1,0.2c-0.1,0-0.1,0.1-0.2,0.1l-2.1-0.1L138.9,401.9z"/>
	<path class="st2" d="M154.7,399.1v-8.8c0-0.4-0.3-0.7-0.8-0.7l-0.5-0.1c-0.1,0-0.2-0.1-0.2-0.3s0.1-0.2,0.3-0.2l1.8,0.1l1.4-0.1
		c0.2,0,0.3,0.1,0.3,0.2s-0.1,0.2-0.2,0.3l-0.3,0.1c-0.5,0.1-0.7,0.3-0.7,0.7v11.5c0,0.1-0.1,0.2-0.2,0.2h-0.2
		c-0.3,0-0.6-0.1-0.8-0.4l-7.7-9.8c0,0-0.1,0-0.1,0c0,0-0.1,0.1-0.1,0.2v8.7c0,0.4,0.2,0.6,0.7,0.7l0.3,0.1c0.2,0,0.2,0.1,0.2,0.3
		s-0.1,0.2-0.3,0.2l-1.4-0.1l-1.8,0.1c-0.2,0-0.3-0.1-0.3-0.2s0.1-0.2,0.2-0.3l0.5-0.1c0.6-0.1,0.8-0.3,0.8-0.7v-10.4
		c0-0.4-0.2-0.7-0.7-0.7l-0.3,0c-0.1,0-0.2-0.1-0.2-0.3c0-0.2,0.1-0.2,0.3-0.2l1.5,0.1c0.4,0,0.6,0.1,0.8,0.3l7.6,9.8
		c0,0,0.1,0.1,0.1,0.1S154.7,399.1,154.7,399.1z"/>
	<path class="st2" d="M165.1,388.8c1,0,1.9,0.1,2.8,0.4c0.8,0.3,1.2,0.6,1.2,0.8v2.1c0,0.1,0,0.2-0.1,0.2s-0.1,0.1-0.2,0.1
		c-0.2,0-0.3-0.1-0.4-0.4c-0.2-0.8-0.6-1.5-1.2-1.9c-0.6-0.5-1.3-0.7-2.1-0.7c-1.5,0-2.7,0.5-3.6,1.5c-0.9,1-1.3,2.3-1.3,3.8
		c0,1,0.2,2,0.6,3c0.4,0.9,1,1.7,1.7,2.3c0.7,0.6,1.6,0.9,2.5,0.9c0.9,0,1.7-0.2,2.3-0.6c0.6-0.4,0.9-0.8,0.9-1.2v-2.3
		c0-0.5-0.3-0.7-0.8-0.7l-1-0.1c-0.1,0-0.2-0.1-0.2-0.2c0-0.2,0.1-0.2,0.2-0.2l2.5,0.1l1.8-0.1c0.2,0,0.3,0.1,0.3,0.2
		c0,0.2-0.1,0.3-0.2,0.3l-0.3,0.1c-0.5,0.1-0.7,0.3-0.7,0.7v3.5l0.1,1c0,0.2-0.1,0.3-0.3,0.3c-0.1,0-0.2-0.1-0.3-0.2
		c-0.2-0.4-0.5-0.7-1-0.7c-0.1,0-0.3,0.1-0.5,0.2c-0.8,0.4-1.8,0.7-2.9,0.7c-1.9,0-3.4-0.6-4.6-1.9c-1.2-1.3-1.8-2.8-1.8-4.7
		s0.6-3.5,1.9-4.7S163.1,388.8,165.1,388.8z"/>
</g>
<g>
	<path class="st2" d="M89.3,471.3h-6.8c-0.1,0-0.2-0.1-0.2-0.2V471c0-0.1,0-0.2,0.1-0.3c0.5-0.9,1.2-1.8,2-2.9
		c0.8-1.1,1.4-1.9,1.8-2.5c0.4-0.6,0.8-1.2,1.1-1.9c0.3-0.7,0.5-1.4,0.5-2c0-0.6-0.2-1.2-0.6-1.6s-0.9-0.6-1.5-0.6
		c-0.6,0-1.1,0.2-1.5,0.6c-0.4,0.4-0.6,0.9-0.8,1.4c-0.1,0.2-0.2,0.3-0.4,0.3c-0.1,0-0.2,0-0.2-0.1c-0.1-0.1-0.1-0.1-0.1-0.2v-1.4
		c0-0.3,0.3-0.5,0.9-0.8c0.6-0.3,1.3-0.4,2.2-0.4c1.1,0,2,0.3,2.7,0.9c0.6,0.6,1,1.3,1,2.3c0,0.6-0.1,1.2-0.4,1.8
		c-0.3,0.6-0.6,1.2-1,1.6s-1,1.2-1.8,2.2c-0.8,1-1.5,1.9-2.1,2.7h4.5c0.4,0,0.7-0.1,0.8-0.3c0.1-0.2,0.2-0.3,0.3-0.3
		c0.2,0,0.3,0.1,0.2,0.3l-0.1,1.2c0,0.2-0.1,0.3-0.2,0.4C89.6,471.3,89.5,471.3,89.3,471.3z"/>
	<path class="st2" d="M93.2,469.7c-0.8-1.2-1.2-2.8-1.2-4.7c0-1.9,0.4-3.5,1.2-4.7c0.8-1.2,2-1.8,3.5-1.8c1.5,0,2.7,0.6,3.5,1.8
		c0.8,1.2,1.2,2.8,1.2,4.7c0,1.9-0.4,3.5-1.2,4.7c-0.8,1.2-2,1.8-3.5,1.8C95.2,471.5,94,470.9,93.2,469.7z M96.7,459.1
		c-2,0-3,1.9-3,5.8c0,3.9,1,5.8,3,5.8s3-1.9,3-5.8C99.7,461.1,98.7,459.1,96.7,459.1z"/>
	<path class="st2" d="M109,471.1c0,0.1,0,0.1-0.1,0.2c-0.1,0.1-0.1,0.1-0.2,0.1l-2.5-0.1l-2.7,0.1c-0.2,0-0.3-0.1-0.3-0.3
		c0-0.2,0.1-0.3,0.2-0.3l1,0c0.2,0,0.5-0.1,0.7-0.2c0.2-0.1,0.3-0.3,0.3-0.5V460c0-0.5-0.2-0.7-0.7-0.7c0,0,0,0-0.1,0l-1.2,0.1
		c-0.1,0-0.2-0.1-0.2-0.2s0.1-0.2,0.3-0.3l3.2-0.4c0.2,0,0.3,0.1,0.3,0.2v11.5c0,0.4,0.3,0.7,0.8,0.7l1,0
		C109,470.9,109,471,109,471.1z"/>
	<path class="st2" d="M119.2,467.6c0,1.1-0.4,2-1.1,2.8c-0.8,0.8-1.8,1.2-3,1.2c-1.2,0-2.2-0.4-2.9-1.2c-0.7-0.8-1.1-2-1.1-3.5
		c0-1.5,0.5-3.1,1.6-4.7c1.1-1.6,2.5-2.9,4.3-3.7c0,0,0.1,0,0.2,0s0.2,0,0.3,0.1c0.1,0.1,0.2,0.2,0.2,0.3c0,0.2-0.1,0.3-0.3,0.4
		c-2.3,1.4-3.7,3.2-4.4,5.5c0.6-0.6,1.5-0.9,2.4-0.9c1.2,0,2.2,0.4,2.9,1.1C118.9,465.6,119.2,466.5,119.2,467.6z M113.3,469.9
		c0.4,0.6,1,0.9,1.8,0.9s1.3-0.3,1.8-0.9c0.4-0.6,0.7-1.3,0.7-2.3c0-0.9-0.2-1.7-0.7-2.2c-0.5-0.5-1-0.8-1.8-0.8
		c-0.7,0-1.3,0.3-1.8,0.8c-0.4,0.5-0.7,1.2-0.7,2.2C112.7,468.6,112.9,469.3,113.3,469.9z"/>
	<path class="st2" d="M134.5,461c0,0.2-0.1,0.3-0.3,0.3s-0.3-0.1-0.4-0.3c-0.2-0.6-0.5-1-0.8-1.2c-0.4-0.2-0.9-0.4-1.5-0.4h-2.7
		c-0.3,0-0.5,0.1-0.6,0.2c-0.2,0.2-0.2,0.4-0.2,0.6v4c0,0.2,0.1,0.2,0.2,0.2h3.2c0.2,0,0.3,0,0.4-0.1s0.2-0.2,0.2-0.2
		c0-0.1,0.1-0.2,0.1-0.4l0.1-0.2c0-0.1,0.1-0.2,0.2-0.2c0.2,0,0.3,0.1,0.3,0.2l-0.1,1.6l0.1,1.5c0,0.2-0.1,0.3-0.2,0.3
		c-0.2,0-0.2-0.1-0.3-0.2l-0.1-0.3c0-0.3-0.1-0.6-0.2-0.7s-0.3-0.2-0.5-0.2h-3.2c-0.1,0-0.2,0.1-0.2,0.3v4.5c0,0.4,0.3,0.7,0.8,0.7
		l0.5,0c0.1,0,0.2,0.1,0.2,0.2c0,0.2-0.1,0.3-0.3,0.3l-2.1-0.1l-2.1,0.1c-0.2,0-0.3-0.1-0.3-0.2c0-0.2,0.1-0.2,0.2-0.2l0.5,0
		c0.2,0,0.4-0.1,0.6-0.2c0.2-0.1,0.2-0.3,0.2-0.5v-10.4c0-0.4-0.3-0.7-0.8-0.7l-0.5-0.1c-0.1,0-0.2-0.1-0.2-0.2
		c0-0.2,0.1-0.2,0.3-0.2l2.1,0.1h6.3c0.2,0,0.4,0.1,0.6,0.2c0.1,0.1,0.2,0.3,0.3,0.5L134.5,461z"/>
	<path class="st2" d="M136.5,470.1c0,0.1,0,0.2,0,0.2s0,0.2,0.1,0.3c0.1,0.1,0.2,0.2,0.4,0.2l0.4,0c0.2,0,0.2,0.1,0.2,0.2
		c0,0.2-0.1,0.3-0.3,0.3l-1.6-0.1l-1.7,0.1c-0.2,0-0.3-0.1-0.3-0.2c0-0.2,0.1-0.2,0.2-0.2l0.3,0c0.5-0.1,0.9-0.3,1.1-0.7l4.7-11.5
		c0-0.1,0.2-0.2,0.4-0.2s0.4,0.1,0.4,0.2l4.7,11.5c0.2,0.4,0.5,0.7,1,0.7l0.4,0c0,0,0.1,0,0.1,0.1c0,0,0.1,0.1,0.1,0.1
		c0,0.2-0.1,0.3-0.3,0.3l-2.1-0.1l-1.9,0.1c-0.2,0-0.3-0.1-0.3-0.2c0-0.2,0.1-0.3,0.2-0.3l0.4,0c0.2,0,0.3-0.1,0.4-0.2
		c0.1-0.1,0.2-0.2,0.2-0.3c0-0.1,0-0.2-0.1-0.3l-1.1-2.8c0-0.1-0.1-0.2-0.3-0.2h-4.7c-0.1,0-0.2,0.1-0.3,0.2L136.5,470.1z
		 M138.1,466.3h4.1c0.1,0,0.2-0.1,0.1-0.2l-2.2-5.6l-2.2,5.6C138,466.3,138,466.3,138.1,466.3z"/>
	<path class="st2" d="M150.7,459.8v9.9c0,0.3,0.1,0.5,0.2,0.6c0.2,0.2,0.4,0.2,0.6,0.2h2.6c0.6,0,1.2-0.2,1.7-0.5
		c0.5-0.3,0.8-0.8,0.9-1.4c0.1-0.2,0.2-0.3,0.4-0.3c0.2,0,0.3,0.1,0.3,0.3l-0.3,1.9c0,0.2-0.1,0.4-0.3,0.5c-0.1,0.1-0.3,0.2-0.6,0.2
		h-6.5l-2.1,0.1c-0.2,0-0.3-0.1-0.3-0.2c0-0.2,0.1-0.2,0.2-0.2l0.5,0c0.2,0,0.4-0.1,0.6-0.2c0.2-0.1,0.2-0.3,0.2-0.5v-10.4
		c0-0.4-0.3-0.7-0.8-0.7l-0.5-0.1c-0.1,0-0.2-0.1-0.2-0.2c0-0.2,0.1-0.3,0.3-0.3l2.1,0.1l1.8-0.1c0.2,0,0.3,0.1,0.3,0.2
		c0,0.2-0.1,0.3-0.2,0.3l-0.3,0.1C151,459.1,150.7,459.4,150.7,459.8z"/>
	<path class="st2" d="M161.6,459.8v9.9c0,0.3,0.1,0.5,0.2,0.6c0.2,0.2,0.4,0.2,0.6,0.2h2.6c0.6,0,1.2-0.2,1.7-0.5
		c0.5-0.3,0.8-0.8,0.9-1.4c0.1-0.2,0.2-0.3,0.4-0.3c0.2,0,0.3,0.1,0.3,0.3l-0.3,1.9c0,0.2-0.1,0.4-0.3,0.5c-0.1,0.1-0.3,0.2-0.6,0.2
		h-6.5l-2.1,0.1c-0.2,0-0.3-0.1-0.3-0.2c0-0.2,0.1-0.2,0.2-0.2l0.5,0c0.2,0,0.4-0.1,0.6-0.2c0.2-0.1,0.2-0.3,0.2-0.5v-10.4
		c0-0.4-0.3-0.7-0.8-0.7l-0.5-0.1c-0.1,0-0.2-0.1-0.2-0.2c0-0.2,0.1-0.3,0.3-0.3l2.1,0.1l1.8-0.1c0.2,0,0.3,0.1,0.3,0.2
		c0,0.2-0.1,0.3-0.2,0.3l-0.3,0.1C161.8,459.1,161.6,459.4,161.6,459.8z"/>
</g>
<g>
	<path class="st2" d="M67.5,537.1h-6.8c-0.1,0-0.2-0.1-0.2-0.2v-0.2c0-0.1,0-0.2,0.1-0.3c0.5-0.9,1.2-1.8,2-2.9
		c0.8-1.1,1.4-1.9,1.8-2.5c0.4-0.6,0.8-1.2,1.1-1.9s0.5-1.4,0.5-2c0-0.6-0.2-1.2-0.6-1.6c-0.4-0.4-0.9-0.6-1.5-0.6
		c-0.6,0-1.1,0.2-1.5,0.6c-0.4,0.4-0.6,0.9-0.8,1.4c-0.1,0.2-0.2,0.3-0.4,0.3c-0.1,0-0.2,0-0.2-0.1c-0.1-0.1-0.1-0.1-0.1-0.2v-1.4
		c0-0.3,0.3-0.5,0.9-0.8c0.6-0.3,1.3-0.4,2.2-0.4c1.1,0,2,0.3,2.7,0.9c0.6,0.6,1,1.3,1,2.3c0,0.6-0.1,1.2-0.4,1.8
		c-0.3,0.6-0.6,1.2-1,1.6c-0.4,0.5-1,1.2-1.8,2.2c-0.8,1-1.5,1.9-2.1,2.7h4.5c0.4,0,0.7-0.1,0.8-0.3c0.1-0.2,0.2-0.3,0.3-0.3
		c0.2,0,0.3,0.1,0.2,0.3l-0.1,1.2c0,0.2-0.1,0.3-0.2,0.4C67.7,537.1,67.6,537.1,67.5,537.1z"/>
	<path class="st2" d="M71.3,535.5c-0.8-1.2-1.2-2.8-1.2-4.7c0-1.9,0.4-3.5,1.2-4.7c0.8-1.2,2-1.8,3.5-1.8c1.5,0,2.7,0.6,3.5,1.8
		c0.8,1.2,1.2,2.8,1.2,4.7c0,1.9-0.4,3.5-1.2,4.7c-0.8,1.2-2,1.8-3.5,1.8C73.3,537.3,72.1,536.7,71.3,535.5z M74.8,525
		c-2,0-3,1.9-3,5.8c0,3.9,1,5.8,3,5.8s3-1.9,3-5.8C77.8,526.9,76.8,525,74.8,525z"/>
	<path class="st2" d="M87.1,536.9c0,0.1,0,0.1-0.1,0.2c-0.1,0.1-0.1,0.1-0.2,0.1l-2.5-0.1l-2.7,0.1c-0.2,0-0.3-0.1-0.3-0.3
		c0-0.2,0.1-0.3,0.2-0.3l1,0c0.2,0,0.5-0.1,0.7-0.2c0.2-0.1,0.3-0.3,0.3-0.5v-10.1c0-0.5-0.2-0.7-0.7-0.7c0,0,0,0-0.1,0l-1.2,0.1
		c-0.1,0-0.2-0.1-0.2-0.2c0-0.2,0.1-0.2,0.3-0.3l3.2-0.4c0.2,0,0.3,0.1,0.3,0.2v11.5c0,0.4,0.3,0.7,0.8,0.7l1,0
		C87.1,536.7,87.1,536.8,87.1,536.9z"/>
	<path class="st2" d="M95.5,524.4c0.1,0,0.2,0.1,0.2,0.2c0,0,0,0.1,0,0.1c-1.8,5.4-3.1,9.5-3.8,12.3c0,0.1-0.1,0.2-0.3,0.2h-1.2
		c-0.1,0-0.1,0-0.2-0.1c0,0-0.1-0.1,0-0.2c0.5-1.6,1.9-5.3,4.1-11h-4.6c-0.4,0-0.7,0.1-0.8,0.3c-0.1,0.2-0.2,0.3-0.4,0.3
		c-0.1,0-0.2-0.1-0.2-0.3c0,0,0-0.4,0.1-1.2c0-0.2,0.1-0.3,0.2-0.4c0.1-0.1,0.2-0.2,0.3-0.2H95.5z"/>
	<path class="st2" d="M109.9,533.8c0,1.1-0.4,2-1.3,2.6s-1.9,0.9-3.1,0.9c-1.2,0-2.2-0.1-3-0.4c-0.8-0.3-1.2-0.6-1.2-1v-2.1
		c0-0.3,0.1-0.4,0.3-0.4c0.2,0,0.3,0.1,0.3,0.3c0.3,0.9,0.7,1.6,1.2,2.1c0.5,0.5,1.2,0.7,2.1,0.7c0.9,0,1.6-0.2,2.2-0.6
		c0.6-0.4,0.8-1,0.8-1.7c0-0.8-0.5-1.5-1.3-2c-0.4-0.2-0.8-0.5-1.3-0.7c-0.5-0.2-1-0.5-1.5-0.7c-0.5-0.2-0.9-0.5-1.3-0.8
		c-0.9-0.7-1.3-1.5-1.3-2.5c0-1,0.4-1.8,1.2-2.4c0.8-0.6,1.7-0.9,2.7-0.9c1,0,1.9,0.1,2.7,0.4c0.7,0.3,1.1,0.6,1.1,0.9v1.8
		c0,0.2-0.1,0.4-0.3,0.4c-0.2,0-0.3-0.1-0.4-0.4c-0.3-0.8-0.6-1.4-1-1.7c-0.4-0.4-1-0.6-1.8-0.6c-0.8,0-1.5,0.2-1.9,0.6
		c-0.5,0.4-0.7,0.9-0.7,1.4c0,0.6,0.2,1.1,0.7,1.5c0.5,0.4,1,0.8,1.7,1.1c0.7,0.3,1.3,0.7,2,1c0.7,0.3,1.2,0.8,1.7,1.3
		C109.7,532.5,109.9,533.1,109.9,533.8z"/>
	<path class="st2" d="M116.7,524.4c1.4,0,2.5,0.3,3.3,1c0.8,0.6,1.2,1.5,1.2,2.6c0,1.1-0.4,1.9-1.1,2.7c-0.8,0.7-1.8,1.1-3.1,1.1
		h-2.2c-0.2,0-0.3,0.1-0.3,0.2v4.1c0,0.2,0.1,0.4,0.2,0.5c0.2,0.1,0.4,0.2,0.6,0.2l0.8,0c0.1,0,0.2,0.1,0.2,0.2
		c0,0.2-0.1,0.2-0.3,0.2l-2.3-0.1l-2,0.1c-0.2,0-0.3-0.1-0.3-0.2c0-0.2,0.1-0.3,0.2-0.3l0.5,0c0.5,0,0.7-0.3,0.7-0.7v-10.4
		c0-0.4-0.3-0.7-0.8-0.7l-0.5-0.1c-0.1,0-0.2-0.1-0.2-0.2c0-0.2,0.1-0.3,0.3-0.3l2.5,0.1H116.7z M118.6,530c0.5-0.5,0.8-1.2,0.8-2
		c0-0.8-0.3-1.5-0.8-2c-0.5-0.5-1.3-0.8-2.3-0.8h-1.1c-0.5,0-0.7,0.2-0.7,0.7v4.6c0,0.2,0.1,0.2,0.2,0.2h1.6
		C117.3,530.8,118.1,530.5,118.6,530z"/>
	<path class="st2" d="M128.4,524.4c1.2,0,2.1,0.3,2.9,0.9c0.7,0.6,1.1,1.4,1.1,2.4c0,1-0.4,1.8-1.1,2.4s-1.6,1-2.5,1l0,0
		c0.3,0.1,0.5,0.2,0.6,0.5l2.8,4.4c0.3,0.4,0.7,0.7,1.2,0.7l0.3,0c0.2,0,0.2,0.1,0.2,0.2c0,0.2-0.1,0.3-0.3,0.3
		c-1.2,0-1.9-0.1-2.2-0.1c-0.3,0-0.5-0.1-0.7-0.4l-3.1-5.1c-0.2-0.4-0.5-0.6-0.8-0.6h0h-1.3c-0.2,0-0.3,0.1-0.3,0.2v4.6
		c0,0.2,0.1,0.4,0.2,0.5c0.2,0.1,0.4,0.2,0.6,0.2l0.8,0c0.1,0,0.2,0.1,0.2,0.2c0,0.2-0.1,0.2-0.3,0.2l-2.3-0.1l-2,0.1
		c-0.2,0-0.2-0.1-0.3-0.2c0-0.2,0.1-0.3,0.2-0.3l0.5,0c0.5,0,0.7-0.3,0.7-0.7v-10.4c0-0.4-0.3-0.7-0.8-0.7l-0.5-0.1
		c-0.1,0-0.2-0.1-0.2-0.2c0-0.2,0.1-0.3,0.3-0.3l2.5,0.1H128.4z M129.9,529.6c0.6-0.5,0.8-1.1,0.8-1.8s-0.3-1.4-0.8-1.8
		c-0.6-0.5-1.3-0.7-2.1-0.7h-1.7c-0.5,0-0.7,0.2-0.7,0.7v4.1c0,0.2,0.1,0.2,0.2,0.2h2.2C128.6,530.3,129.3,530,129.9,529.6z"/>
	<path class="st2" d="M134.9,537.2c-0.2,0-0.3-0.1-0.3-0.2c0-0.2,0.1-0.2,0.2-0.3l0.3,0c0.5-0.1,0.7-0.3,0.7-0.7v-10.4
		c0-0.4-0.3-0.7-0.8-0.7l-0.5-0.1c-0.1,0-0.2-0.1-0.2-0.2c0-0.2,0.1-0.3,0.3-0.3l2.1,0.1l1.8-0.1c0.2,0,0.3,0.1,0.3,0.2
		c0,0.2-0.1,0.3-0.2,0.3l-0.3,0.1c-0.5,0.1-0.7,0.3-0.7,0.7v10.4c0,0.2,0.1,0.4,0.2,0.5c0.2,0.1,0.4,0.2,0.6,0.2l0.5,0
		c0.1,0,0.2,0.1,0.2,0.2c0,0.1,0,0.1-0.1,0.2c-0.1,0-0.1,0.1-0.2,0.1l-2.1-0.1L134.9,537.2z"/>
	<path class="st2" d="M150.7,534.4v-8.8c0-0.4-0.3-0.7-0.8-0.7l-0.5-0.1c-0.1,0-0.2-0.1-0.2-0.3c0-0.1,0.1-0.2,0.3-0.2l1.8,0.1
		l1.4-0.1c0.2,0,0.3,0.1,0.3,0.2c0,0.1-0.1,0.2-0.2,0.3l-0.3,0.1c-0.5,0.1-0.7,0.3-0.7,0.7v11.5c0,0.1-0.1,0.2-0.2,0.2h-0.2
		c-0.3,0-0.6-0.1-0.8-0.4l-7.7-9.8c0,0-0.1,0-0.1,0c0,0-0.1,0.1-0.1,0.2v8.7c0,0.4,0.2,0.6,0.7,0.7l0.3,0.1c0.2,0,0.2,0.1,0.2,0.3
		c0,0.1-0.1,0.2-0.3,0.2l-1.4-0.1l-1.8,0.1c-0.2,0-0.3-0.1-0.3-0.2c0-0.1,0.1-0.2,0.2-0.3l0.5-0.1c0.6-0.1,0.8-0.3,0.8-0.7v-10.4
		c0-0.4-0.2-0.7-0.7-0.7l-0.3,0c-0.1,0-0.2-0.1-0.2-0.3s0.1-0.2,0.3-0.2l1.5,0.1c0.4,0,0.6,0.1,0.8,0.3l7.6,9.8c0,0,0.1,0.1,0.1,0.1
		C150.7,534.5,150.7,534.5,150.7,534.4z"/>
	<path class="st2" d="M161,524.2c1,0,1.9,0.1,2.8,0.4c0.8,0.3,1.2,0.6,1.2,0.8v2.1c0,0.1,0,0.2-0.1,0.2c-0.1,0.1-0.1,0.1-0.2,0.1
		c-0.2,0-0.3-0.1-0.4-0.4c-0.2-0.8-0.6-1.5-1.2-1.9c-0.6-0.5-1.3-0.7-2.1-0.7c-1.5,0-2.7,0.5-3.6,1.5c-0.9,1-1.3,2.3-1.3,3.8
		c0,1,0.2,2,0.6,3c0.4,0.9,1,1.7,1.7,2.3c0.7,0.6,1.6,0.9,2.5,0.9c0.9,0,1.7-0.2,2.3-0.6c0.6-0.4,0.9-0.8,0.9-1.2v-2.3
		c0-0.5-0.3-0.7-0.8-0.7l-1-0.1c-0.1,0-0.2-0.1-0.2-0.2s0.1-0.2,0.2-0.2l2.5,0.1l1.8-0.1c0.2,0,0.3,0.1,0.3,0.2
		c0,0.2-0.1,0.3-0.2,0.3l-0.3,0.1c-0.5,0.1-0.7,0.3-0.7,0.7v3.5l0.1,1c0,0.2-0.1,0.3-0.3,0.3c-0.1,0-0.2-0.1-0.3-0.2
		c-0.2-0.4-0.5-0.7-1-0.7c-0.1,0-0.3,0.1-0.5,0.2c-0.8,0.4-1.8,0.7-2.9,0.7c-1.9,0-3.4-0.6-4.6-1.9c-1.2-1.3-1.8-2.8-1.8-4.7
		s0.6-3.5,1.9-4.7C157.4,524.8,159,524.2,161,524.2z"/>
</g>
</svg>
