<svg id="Objects" xmlns="http://www.w3.org/2000/svg" viewBox="0 0 629.83 547.23"><defs><style>.cls-1,.cls-2{fill:#fff;}.cls-2{stroke:#92af1f;stroke-miterlimit:10;}.cls-3{font-size:14px;fill:#3f2e51;font-family:Lustria-Regular, Lustria;}.cls-4{font-family:MyriadPro-Regular, Myriad Pro;}.cls-5{letter-spacing:-0.04em;}</style></defs><title>timeline</title><rect class="cls-1" x="139.67" width="2.2" height="547.23"/><circle class="cls-1" cx="140.77" cy="33.68" r="7.38"/><circle class="cls-1" cx="140.77" cy="101.41" r="7.38"/><circle class="cls-1" cx="140.77" cy="170.2" r="7.38"/><circle class="cls-1" cx="140.77" cy="237.93" r="7.38"/><circle class="cls-1" cx="140.77" cy="307.37" r="7.38"/><circle class="cls-1" cx="140.77" cy="375.1" r="7.38"/><circle class="cls-1" cx="140.77" cy="444.53" r="7.38"/><circle class="cls-1" cx="140.77" cy="512.26" r="7.38"/><rect class="cls-2" x="198.82" y="16.75" width="426.32" height="34.05"/><rect class="cls-2" x="198.82" y="85.38" width="426.32" height="31.86"/><rect class="cls-2" x="198.82" y="154.02" width="426.32" height="31.86"/><rect class="cls-2" x="198.82" y="222.66" width="426.32" height="31.86"/><rect class="cls-2" x="198.82" y="291.3" width="426.32" height="31.86"/><rect class="cls-2" x="198.82" y="359.93" width="426.32" height="31.86"/><rect class="cls-2" x="198.82" y="428.57" width="426.32" height="31.86"/><rect class="cls-2" x="198.82" y="497.21" width="426.32" height="31.86"/><circle class="cls-1" cx="159.45" cy="34.81" r="2.13"/><circle class="cls-1" cx="166.57" cy="34.81" r="2.13"/><circle class="cls-1" cx="173.57" cy="34.81" r="2.13"/><circle class="cls-1" cx="180.29" cy="34.81" r="2.13"/><circle class="cls-1" cx="186.69" cy="34.81" r="2.13"/><circle class="cls-1" cx="159.45" cy="102.54" r="2.13"/><circle class="cls-1" cx="166.57" cy="102.54" r="2.13"/><circle class="cls-1" cx="173.57" cy="102.54" r="2.13"/><circle class="cls-1" cx="180.29" cy="102.54" r="2.13"/><circle class="cls-1" cx="186.69" cy="102.54" r="2.13"/><circle class="cls-1" cx="161.07" cy="169.2" r="2.13"/><circle class="cls-1" cx="168.2" cy="169.2" r="2.13"/><circle class="cls-1" cx="175.2" cy="169.2" r="2.13"/><circle class="cls-1" cx="181.92" cy="169.2" r="2.13"/><circle class="cls-1" cx="188.32" cy="169.2" r="2.13"/><circle class="cls-1" cx="161.74" cy="306.89" r="2.13"/><circle class="cls-1" cx="168.86" cy="306.89" r="2.13"/><circle class="cls-1" cx="175.87" cy="306.89" r="2.13"/><circle class="cls-1" cx="182.59" cy="306.89" r="2.13"/><circle class="cls-1" cx="188.98" cy="306.89" r="2.13"/><circle class="cls-1" cx="162" cy="512.76" r="2.13"/><circle class="cls-1" cx="169.13" cy="512.76" r="2.13"/><circle class="cls-1" cx="176.13" cy="512.76" r="2.13"/><circle class="cls-1" cx="182.85" cy="512.76" r="2.13"/><circle class="cls-1" cx="189.24" cy="512.76" r="2.13"/><circle class="cls-1" cx="160.45" cy="238.37" r="2.13"/><circle class="cls-1" cx="167.57" cy="238.37" r="2.13"/><circle class="cls-1" cx="174.57" cy="238.37" r="2.13"/><circle class="cls-1" cx="181.29" cy="238.37" r="2.13"/><circle class="cls-1" cx="187.69" cy="238.37" r="2.13"/><circle class="cls-1" cx="160.74" cy="376.52" r="2.13"/><circle class="cls-1" cx="167.86" cy="376.52" r="2.13"/><circle class="cls-1" cx="174.87" cy="376.52" r="2.13"/><circle class="cls-1" cx="181.59" cy="376.52" r="2.13"/><circle class="cls-1" cx="187.98" cy="376.52" r="2.13"/><circle class="cls-1" cx="160.74" cy="445.59" r="2.13"/><circle class="cls-1" cx="167.86" cy="445.59" r="2.13"/><circle class="cls-1" cx="174.87" cy="445.59" r="2.13"/><circle class="cls-1" cx="181.59" cy="445.59" r="2.13"/><circle class="cls-1" cx="187.98" cy="445.59" r="2.13"/><text class="cls-3" transform="translate(217.56 37.74)">Experiencing issues in IT contracting, team comes together.</text><text class="cls-3" transform="translate(239.02 105.48)">Starts research and analysis of wider industry impact.</text><text class="cls-3" transform="translate(213.89 174.27)">Pathway set for Ideas: Design, Solutions <tspan class="cls-4" x="260.9" y="0">and </tspan><tspan x="286.28" y="0">Implementation.</tspan></text><text class="cls-3" transform="translate(214.21 242)"><tspan class="cls-5">T</tspan><tspan x="8.13" y="0">eam forms an entity &amp; starts running pilots with companies.</tspan></text><text class="cls-3" transform="translate(342.39 311.02)">Development begins.</text><text class="cls-3" transform="translate(221.4 378.52)">Right Comply goes into Beta and welcomes early adopters.</text><text class="cls-3" transform="translate(292.29 448.07)">Right Comply formally incorporated.</text><text class="cls-3" transform="translate(333.96 516.89)">Right Comply launched.</text><path class="cls-1" d="M13.8,116.11a4.64,4.64,0,0,1,1.42.22,3.44,3.44,0,0,1,1.19.65,3.14,3.14,0,0,1,.82,1.09,3.64,3.64,0,0,1,.3,1.54A4,4,0,0,1,17.3,121a5.5,5.5,0,0,1-.61,1.21,8.77,8.77,0,0,1-.9,1.12q-.51.55-1.07,1.12l-4.07,4.15a4.82,4.82,0,0,1,.61-.11,5.56,5.56,0,0,1,.64,0h5.61a.32.32,0,0,1,.23.09.3.3,0,0,1,.09.22v.51H9.46v-.31a.48.48,0,0,1,.05-.21.65.65,0,0,1,.12-.18l4.44-4.49q.55-.56,1-1.08a8.53,8.53,0,0,0,.81-1.06,5.21,5.21,0,0,0,.54-1.09,3.57,3.57,0,0,0,.2-1.19,3,3,0,0,0-.24-1.24,2.43,2.43,0,0,0-.64-.87,2.64,2.64,0,0,0-.92-.51,3.56,3.56,0,0,0-1.09-.17,3.32,3.32,0,0,0-1.13.19,3,3,0,0,0-.92.52,2.9,2.9,0,0,0-.66.8,3.23,3.23,0,0,0-.36,1c-.06.21-.18.32-.37.32h-.09l-.44-.07a4.39,4.39,0,0,1,.45-1.49,3.74,3.74,0,0,1,.87-1.1,3.63,3.63,0,0,1,1.21-.68A4.59,4.59,0,0,1,13.8,116.11Z" transform="translate(-9.46 -19.53)"/><path class="cls-1" d="M28.91,122.75a10.55,10.55,0,0,1-.37,3,6.2,6.2,0,0,1-1,2.07A4,4,0,0,1,26.06,129a4.31,4.31,0,0,1-3.62,0A4.06,4.06,0,0,1,21,127.77a6.13,6.13,0,0,1-1-2.07,12.24,12.24,0,0,1,0-5.91,6.13,6.13,0,0,1,1-2.07,4.08,4.08,0,0,1,1.48-1.22,4.31,4.31,0,0,1,3.62,0,4.06,4.06,0,0,1,1.48,1.22,6.2,6.2,0,0,1,1,2.07A10.55,10.55,0,0,1,28.91,122.75Zm-.92,0a10.47,10.47,0,0,0-.3-2.7,5.7,5.7,0,0,0-.81-1.83,3.18,3.18,0,0,0-1.19-1,3.28,3.28,0,0,0-2.87,0,3.23,3.23,0,0,0-1.19,1A5.62,5.62,0,0,0,20.8,120a12.18,12.18,0,0,0,0,5.4,5.62,5.62,0,0,0,.82,1.83,3.18,3.18,0,0,0,1.19,1,3.32,3.32,0,0,0,2.87,0,3.13,3.13,0,0,0,1.19-1,5.7,5.7,0,0,0,.81-1.83A10.45,10.45,0,0,0,28,122.75Z" transform="translate(-9.46 -19.53)"/><path class="cls-1" d="M32.42,128.58h3V118q0-.31,0-.66l-2.87,2.55a.32.32,0,0,1-.22.08.28.28,0,0,1-.24-.11l-.27-.37,3.76-3.32h.68v12.38h2.84v.67h-6.7Z" transform="translate(-9.46 -19.53)"/><path class="cls-1" d="M45.86,116.11a4.68,4.68,0,0,1,1.4.21,3.4,3.4,0,0,1,1.16.62,3,3,0,0,1,.79,1,3.28,3.28,0,0,1,.29,1.42,3.13,3.13,0,0,1-.2,1.14,2.91,2.91,0,0,1-.54.9,3.13,3.13,0,0,1-.81.65,4.12,4.12,0,0,1-1,.4,3.63,3.63,0,0,1,2.16,1.11,3.08,3.08,0,0,1,.73,2.1,3.45,3.45,0,0,1-.32,1.48,3.61,3.61,0,0,1-.88,1.18,4.11,4.11,0,0,1-1.32.78,4.75,4.75,0,0,1-1.65.28,5,5,0,0,1-1.85-.3,3.49,3.49,0,0,1-2-1.85,8.52,8.52,0,0,1-.43-1.18l.35-.15a.56.56,0,0,1,.21,0,.43.43,0,0,1,.19,0,.3.3,0,0,1,.14.17l.06.18c0,.11.09.25.16.41a3.54,3.54,0,0,0,.26.51,3.5,3.5,0,0,0,.4.52,2.58,2.58,0,0,0,.58.47,3.23,3.23,0,0,0,.81.34,4,4,0,0,0,1.07.13,3.53,3.53,0,0,0,1.45-.28,3.31,3.31,0,0,0,1-.7,2.9,2.9,0,0,0,.83-2,3.23,3.23,0,0,0-.19-1.11,2.09,2.09,0,0,0-.63-.89,3.22,3.22,0,0,0-1.16-.59,6.29,6.29,0,0,0-1.78-.22v-.63A5.25,5.25,0,0,0,46.7,122a3.19,3.19,0,0,0,1.07-.57,2.33,2.33,0,0,0,.65-.85,2.66,2.66,0,0,0,.22-1.09,2.87,2.87,0,0,0-.23-1.19,2.38,2.38,0,0,0-.62-.84,2.48,2.48,0,0,0-.9-.49,3.69,3.69,0,0,0-1.07-.16,3.34,3.34,0,0,0-1.13.18,2.89,2.89,0,0,0-1.57,1.31,3.7,3.7,0,0,0-.4,1c0,.21-.16.32-.34.32h-.1l-.45-.07a4.6,4.6,0,0,1,.46-1.49,3.58,3.58,0,0,1,2.08-1.79A4.58,4.58,0,0,1,45.86,116.11Z" transform="translate(-9.46 -19.53)"/><path class="cls-1" d="M62.65,117.83a.26.26,0,0,1-.24.16.53.53,0,0,1-.31-.17,4,4,0,0,0-1.32-.76,4.06,4.06,0,0,0-2.44,0,2.6,2.6,0,0,0-.9.55,2.34,2.34,0,0,0-.55.81,2.51,2.51,0,0,0-.19,1A2,2,0,0,0,57,120.5a2.52,2.52,0,0,0,.74.73,4.79,4.79,0,0,0,1,.51l1.2.41q.62.2,1.2.45a4.33,4.33,0,0,1,1,.61,2.81,2.81,0,0,1,.74.9,2.87,2.87,0,0,1,.28,1.34,4.22,4.22,0,0,1-.28,1.54,3.59,3.59,0,0,1-.81,1.25,3.81,3.81,0,0,1-1.3.84,4.73,4.73,0,0,1-1.76.31,5,5,0,0,1-2.21-.45,5.21,5.21,0,0,1-1.63-1.24l.26-.4a.32.32,0,0,1,.26-.14.37.37,0,0,1,.21.11l.31.27q.18.16.44.35a3.63,3.63,0,0,0,.6.35,4.23,4.23,0,0,0,.78.27,4.17,4.17,0,0,0,1,.11,3.81,3.81,0,0,0,1.38-.23,3,3,0,0,0,1-.64,2.71,2.71,0,0,0,.64-1,3.19,3.19,0,0,0,.22-1.19,2.09,2.09,0,0,0-.28-1.13,2.41,2.41,0,0,0-.74-.74,4.78,4.78,0,0,0-1-.5l-1.2-.39q-.62-.19-1.2-.43a4.12,4.12,0,0,1-1-.61,2.79,2.79,0,0,1-.74-.93,3.07,3.07,0,0,1-.28-1.39,3.28,3.28,0,0,1,.25-1.26,3.12,3.12,0,0,1,.73-1.07,3.56,3.56,0,0,1,1.18-.74,4.32,4.32,0,0,1,1.6-.28,4.87,4.87,0,0,1,1.82.32,4.36,4.36,0,0,1,1.47,1Z" transform="translate(-9.46 -19.53)"/><path class="cls-1" d="M70.76,128.58a4.12,4.12,0,0,0,1.68-.33,3.59,3.59,0,0,0,1.25-.91,4,4,0,0,0,.79-1.36,5.16,5.16,0,0,0,.27-1.69v-8h.94v8a5.82,5.82,0,0,1-.34,2,4.8,4.8,0,0,1-1,1.63A4.51,4.51,0,0,1,72.81,129a5.53,5.53,0,0,1-4.11,0,4.51,4.51,0,0,1-1.55-1.09,4.79,4.79,0,0,1-1-1.63,5.81,5.81,0,0,1-.34-2v-8h.95v8a5.16,5.16,0,0,0,.27,1.69,4,4,0,0,0,.78,1.36,3.6,3.6,0,0,0,1.25.91A4.06,4.06,0,0,0,70.76,128.58Z" transform="translate(-9.46 -19.53)"/><path class="cls-1" d="M85.91,126l.11-.29a2.42,2.42,0,0,1,.13-.27l5.11-9a.33.33,0,0,1,.15-.15.59.59,0,0,1,.2,0h.65v13h-.83V118.17a4.87,4.87,0,0,1,0-.51l-5.12,9.08A.4.4,0,0,1,86,127h-.15a.41.41,0,0,1-.37-.24l-5.25-9.09a4.94,4.94,0,0,1,0,.51v11.08h-.82v-13h.64a.63.63,0,0,1,.21,0,.32.32,0,0,1,.15.15l5.24,9A3.8,3.8,0,0,1,85.91,126Z" transform="translate(-9.46 -19.53)"/><path class="cls-1" d="M102.61,126l.11-.29a2.42,2.42,0,0,1,.13-.27l5.11-9a.33.33,0,0,1,.15-.15.59.59,0,0,1,.2,0H109v13h-.83V118.17a4.87,4.87,0,0,1,0-.51L103,126.75a.4.4,0,0,1-.37.24h-.15a.41.41,0,0,1-.37-.24l-5.25-9.09a4.94,4.94,0,0,1,0,.51v11.08h-.82v-13h.64a.63.63,0,0,1,.21,0,.32.32,0,0,1,.15.15l5.24,9A3.8,3.8,0,0,1,102.61,126Z" transform="translate(-9.46 -19.53)"/><path class="cls-1" d="M120.61,116.25V117h-6.84v5.25h5.69V123h-5.69v5.42h6.84v.78h-7.79v-13Z" transform="translate(-9.46 -19.53)"/><path class="cls-1" d="M124.89,123.37v5.88H124v-13h3.32a5.42,5.42,0,0,1,3.36.87,3,3,0,0,1,1.11,2.55,3.48,3.48,0,0,1-.26,1.36,3.19,3.19,0,0,1-.74,1.08,4,4,0,0,1-1.16.76,5.18,5.18,0,0,1-1.53.39,1.49,1.49,0,0,1,.4.37l4.47,5.62h-.82a.54.54,0,0,1-.25-.06.66.66,0,0,1-.21-.18l-4.16-5.27a.92.92,0,0,0-.34-.28,1.4,1.4,0,0,0-.56-.08Zm0-.7h2.26a5.35,5.35,0,0,0,1.55-.21,3.33,3.33,0,0,0,1.16-.59,2.56,2.56,0,0,0,.72-.93,2.9,2.9,0,0,0,.25-1.22,2.39,2.39,0,0,0-.91-2.06,4.42,4.42,0,0,0-2.65-.67h-2.38Z" transform="translate(-9.46 -19.53)"/><path class="cls-1" d="M28.45,46.24a4.64,4.64,0,0,1,1.42.22,3.44,3.44,0,0,1,1.19.65,3.14,3.14,0,0,1,.82,1.09,3.64,3.64,0,0,1,.3,1.54A4,4,0,0,1,32,51.1a5.5,5.5,0,0,1-.61,1.21,8.77,8.77,0,0,1-.9,1.12q-.51.55-1.07,1.12L25.31,58.7a4.82,4.82,0,0,1,.61-.11,5.56,5.56,0,0,1,.64,0h5.61a.32.32,0,0,1,.23.09.3.3,0,0,1,.09.22v.51H24.11v-.31a.48.48,0,0,1,.05-.21.65.65,0,0,1,.12-.18l4.44-4.49q.55-.56,1-1.08a8.53,8.53,0,0,0,.81-1.06A5.21,5.21,0,0,0,31.09,51a3.57,3.57,0,0,0,.2-1.19A3,3,0,0,0,31,48.52a2.43,2.43,0,0,0-.64-.87,2.64,2.64,0,0,0-.92-.51A3.56,3.56,0,0,0,28.4,47a3.32,3.32,0,0,0-1.13.19,3,3,0,0,0-.92.52,2.9,2.9,0,0,0-.66.8,3.23,3.23,0,0,0-.36,1c-.06.21-.18.32-.37.32h-.09l-.44-.07a4.39,4.39,0,0,1,.45-1.49,3.74,3.74,0,0,1,.87-1.1A3.63,3.63,0,0,1,27,46.47,4.59,4.59,0,0,1,28.45,46.24Z" transform="translate(-9.46 -19.53)"/><path class="cls-1" d="M43.56,52.88a10.55,10.55,0,0,1-.37,3,6.2,6.2,0,0,1-1,2.07,4,4,0,0,1-1.48,1.22,4.31,4.31,0,0,1-3.62,0A4.06,4.06,0,0,1,35.6,57.9a6.13,6.13,0,0,1-1-2.07,12.24,12.24,0,0,1,0-5.91,6.13,6.13,0,0,1,1-2.07,4.08,4.08,0,0,1,1.48-1.22,4.31,4.31,0,0,1,3.62,0,4.06,4.06,0,0,1,1.48,1.22,6.2,6.2,0,0,1,1,2.07A10.55,10.55,0,0,1,43.56,52.88Zm-.92,0a10.47,10.47,0,0,0-.3-2.7,5.7,5.7,0,0,0-.81-1.83,3.18,3.18,0,0,0-1.19-1,3.28,3.28,0,0,0-2.87,0,3.23,3.23,0,0,0-1.19,1,5.62,5.62,0,0,0-.82,1.83,12.18,12.18,0,0,0,0,5.4,5.62,5.62,0,0,0,.82,1.83,3.18,3.18,0,0,0,1.19,1,3.32,3.32,0,0,0,2.87,0,3.13,3.13,0,0,0,1.19-1,5.7,5.7,0,0,0,.81-1.83A10.45,10.45,0,0,0,42.64,52.88Z" transform="translate(-9.46 -19.53)"/><path class="cls-1" d="M47.07,58.71h3V48.16q0-.31,0-.66L47.21,50a.32.32,0,0,1-.22.08.28.28,0,0,1-.24-.11l-.27-.37,3.76-3.32h.68V58.71h2.84v.67h-6.7Z" transform="translate(-9.46 -19.53)"/><path class="cls-1" d="M60.51,46.24a4.68,4.68,0,0,1,1.4.21,3.4,3.4,0,0,1,1.16.62,3,3,0,0,1,.79,1,3.28,3.28,0,0,1,.29,1.42,3.13,3.13,0,0,1-.2,1.14,2.91,2.91,0,0,1-.54.9,3.13,3.13,0,0,1-.81.65,4.12,4.12,0,0,1-1,.4,3.63,3.63,0,0,1,2.16,1.11,3.08,3.08,0,0,1,.73,2.1,3.45,3.45,0,0,1-.32,1.48,3.61,3.61,0,0,1-.88,1.18,4.11,4.11,0,0,1-1.32.78,4.75,4.75,0,0,1-1.65.28,5,5,0,0,1-1.85-.3,3.49,3.49,0,0,1-2-1.85,8.52,8.52,0,0,1-.43-1.18l.35-.15a.56.56,0,0,1,.21,0,.43.43,0,0,1,.19,0,.3.3,0,0,1,.14.17l.06.18c0,.11.09.25.16.41a3.54,3.54,0,0,0,.26.51,3.5,3.5,0,0,0,.4.52,2.58,2.58,0,0,0,.58.47,3.23,3.23,0,0,0,.81.34,4,4,0,0,0,1.07.13,3.53,3.53,0,0,0,1.45-.28,3.31,3.31,0,0,0,1-.7,2.9,2.9,0,0,0,.83-2,3.23,3.23,0,0,0-.19-1.11,2.09,2.09,0,0,0-.63-.89,3.22,3.22,0,0,0-1.16-.59A6.29,6.29,0,0,0,59.86,53v-.63a5.25,5.25,0,0,0,1.49-.22,3.19,3.19,0,0,0,1.07-.57,2.33,2.33,0,0,0,.65-.85,2.66,2.66,0,0,0,.22-1.09,2.87,2.87,0,0,0-.23-1.19,2.38,2.38,0,0,0-.62-.84,2.48,2.48,0,0,0-.9-.49A3.69,3.69,0,0,0,60.47,47a3.34,3.34,0,0,0-1.13.18,2.89,2.89,0,0,0-1.57,1.31,3.7,3.7,0,0,0-.4,1c0,.21-.16.32-.34.32h-.1l-.45-.07a4.6,4.6,0,0,1,.46-1.49A3.58,3.58,0,0,1,59,46.47,4.58,4.58,0,0,1,60.51,46.24Z" transform="translate(-9.46 -19.53)"/><path class="cls-1" d="M77.3,48a.26.26,0,0,1-.24.16.53.53,0,0,1-.31-.17,4,4,0,0,0-1.32-.76,4.06,4.06,0,0,0-2.44,0,2.6,2.6,0,0,0-.9.55,2.34,2.34,0,0,0-.55.81,2.51,2.51,0,0,0-.19,1,2,2,0,0,0,.28,1.09,2.52,2.52,0,0,0,.74.73,4.79,4.79,0,0,0,1,.51l1.2.41q.62.2,1.2.45a4.33,4.33,0,0,1,1,.61,2.81,2.81,0,0,1,.74.9,2.87,2.87,0,0,1,.28,1.34,4.22,4.22,0,0,1-.28,1.54,3.59,3.59,0,0,1-.81,1.25,3.81,3.81,0,0,1-1.3.84,4.73,4.73,0,0,1-1.76.31,5,5,0,0,1-2.21-.45,5.21,5.21,0,0,1-1.63-1.24l.26-.4a.32.32,0,0,1,.26-.14.37.37,0,0,1,.21.11l.31.27q.18.16.44.35a3.63,3.63,0,0,0,.6.35,4.23,4.23,0,0,0,.78.27,4.17,4.17,0,0,0,1,.11,3.81,3.81,0,0,0,1.38-.23,3,3,0,0,0,1-.64,2.71,2.71,0,0,0,.64-1A3.19,3.19,0,0,0,77,55.73a2.09,2.09,0,0,0-.28-1.13,2.41,2.41,0,0,0-.74-.74,4.78,4.78,0,0,0-1-.5L73.74,53q-.62-.19-1.2-.43a4.12,4.12,0,0,1-1-.61,2.79,2.79,0,0,1-.74-.93,3.07,3.07,0,0,1-.28-1.39,3.28,3.28,0,0,1,.25-1.26,3.12,3.12,0,0,1,.73-1.07,3.56,3.56,0,0,1,1.18-.74,4.32,4.32,0,0,1,1.6-.28,4.87,4.87,0,0,1,1.82.32,4.36,4.36,0,0,1,1.47,1Z" transform="translate(-9.46 -19.53)"/><path class="cls-1" d="M81.82,54.15v5.24h-.94v-13h3.35a5.16,5.16,0,0,1,3.45,1,3.57,3.57,0,0,1,1.16,2.86,3.83,3.83,0,0,1-.32,1.57A3.48,3.48,0,0,1,87.61,53a4.27,4.27,0,0,1-1.45.81,6,6,0,0,1-1.93.29Zm0-.75h2.42a4.63,4.63,0,0,0,1.54-.24,3.39,3.39,0,0,0,1.15-.66,2.87,2.87,0,0,0,.73-1,3.08,3.08,0,0,0,.25-1.25A2.9,2.9,0,0,0,87,47.94a4.07,4.07,0,0,0-2.75-.81H81.82Z" transform="translate(-9.46 -19.53)"/><path class="cls-1" d="M92.72,53.5v5.88h-.94v-13H95.1a5.42,5.42,0,0,1,3.36.87,3,3,0,0,1,1.11,2.55,3.48,3.48,0,0,1-.26,1.36,3.19,3.19,0,0,1-.74,1.08,4,4,0,0,1-1.16.76,5.18,5.18,0,0,1-1.53.39,1.49,1.49,0,0,1,.4.37l4.47,5.62h-.82a.54.54,0,0,1-.25-.06.66.66,0,0,1-.21-.18l-4.16-5.27a.92.92,0,0,0-.34-.28,1.4,1.4,0,0,0-.56-.08Zm0-.7H95a5.35,5.35,0,0,0,1.55-.21A3.33,3.33,0,0,0,97.68,52a2.56,2.56,0,0,0,.72-.93,2.9,2.9,0,0,0,.25-1.22,2.39,2.39,0,0,0-.91-2.06,4.42,4.42,0,0,0-2.65-.67H92.72Z" transform="translate(-9.46 -19.53)"/><path class="cls-1" d="M104.38,59.38h-.95v-13h.95Z" transform="translate(-9.46 -19.53)"/><path class="cls-1" d="M109.25,46.42a.43.43,0,0,1,.16.14l8.41,11.26c0-.18,0-.36,0-.53V46.39h.83v13h-.45a.39.39,0,0,1-.34-.18l-8.45-11.28a5.2,5.2,0,0,1,0,.52V59.38h-.82v-13H109A.51.51,0,0,1,109.25,46.42Z" transform="translate(-9.46 -19.53)"/><path class="cls-1" d="M128.06,58.77a9.88,9.88,0,0,0,1.22-.07,6.56,6.56,0,0,0,1-.21,6.34,6.34,0,0,0,.9-.34q.43-.2.86-.45v-3.5h-2.5a.24.24,0,0,1-.17-.06.19.19,0,0,1-.07-.15v-.51h3.59v4.62a8.5,8.5,0,0,1-1,.61,6.73,6.73,0,0,1-1.12.45,8.76,8.76,0,0,1-1.29.28,10.94,10.94,0,0,1-1.51.1,6.75,6.75,0,0,1-2.57-.47,5.69,5.69,0,0,1-2-1.34,6,6,0,0,1-1.29-2.1,8.38,8.38,0,0,1,0-5.47,6,6,0,0,1,1.3-2.09,5.74,5.74,0,0,1,2.05-1.34,7.37,7.37,0,0,1,2.7-.47,8.68,8.68,0,0,1,1.37.1,6.32,6.32,0,0,1,1.17.3,5.47,5.47,0,0,1,1,.49,6.78,6.78,0,0,1,.9.67l-.25.4a.26.26,0,0,1-.23.14.34.34,0,0,1-.16,0,1.94,1.94,0,0,1-.4-.26,4.28,4.28,0,0,0-.71-.42,5.9,5.9,0,0,0-1.12-.4,6.56,6.56,0,0,0-1.63-.17,6.15,6.15,0,0,0-2.29.4,4.84,4.84,0,0,0-1.74,1.16A5.12,5.12,0,0,0,123,50.45a7.15,7.15,0,0,0-.39,2.43,7.23,7.23,0,0,0,.39,2.47,5.28,5.28,0,0,0,1.11,1.85,4.77,4.77,0,0,0,1.71,1.16A5.81,5.81,0,0,0,128.06,58.77Z" transform="translate(-9.46 -19.53)"/><path class="cls-1" d="M52.58,182.85a4.64,4.64,0,0,1,1.42.22,3.44,3.44,0,0,1,1.19.65,3.14,3.14,0,0,1,.82,1.09,3.64,3.64,0,0,1,.3,1.54,4,4,0,0,1-.23,1.36,5.5,5.5,0,0,1-.61,1.21,8.77,8.77,0,0,1-.9,1.12q-.51.55-1.07,1.12l-4.07,4.15a4.82,4.82,0,0,1,.61-.11,5.56,5.56,0,0,1,.64,0H56.3a.32.32,0,0,1,.23.09.3.3,0,0,1,.09.22V196H48.23v-.31a.48.48,0,0,1,.05-.21.65.65,0,0,1,.12-.18l4.44-4.49q.55-.56,1-1.08a8.53,8.53,0,0,0,.81-1.06,5.21,5.21,0,0,0,.54-1.09,3.57,3.57,0,0,0,.2-1.19,3,3,0,0,0-.24-1.24,2.43,2.43,0,0,0-.64-.87,2.64,2.64,0,0,0-.92-.51,3.56,3.56,0,0,0-1.09-.17,3.32,3.32,0,0,0-1.13.19,3,3,0,0,0-.92.52,2.9,2.9,0,0,0-.66.8,3.23,3.23,0,0,0-.36,1c-.06.21-.18.32-.37.32H49l-.44-.07a4.39,4.39,0,0,1,.45-1.49,3.74,3.74,0,0,1,.87-1.1,3.63,3.63,0,0,1,1.21-.68A4.59,4.59,0,0,1,52.58,182.85Z" transform="translate(-9.46 -19.53)"/><path class="cls-1" d="M67.68,189.49a10.55,10.55,0,0,1-.37,3,6.2,6.2,0,0,1-1,2.07,4,4,0,0,1-1.48,1.22,4.31,4.31,0,0,1-3.62,0,4.06,4.06,0,0,1-1.48-1.22,6.13,6.13,0,0,1-1-2.07,12.24,12.24,0,0,1,0-5.91,6.13,6.13,0,0,1,1-2.07,4.08,4.08,0,0,1,1.48-1.22,4.31,4.31,0,0,1,3.62,0,4.06,4.06,0,0,1,1.48,1.22,6.2,6.2,0,0,1,1,2.07A10.55,10.55,0,0,1,67.68,189.49Zm-.92,0a10.47,10.47,0,0,0-.3-2.7,5.7,5.7,0,0,0-.81-1.83,3.18,3.18,0,0,0-1.19-1,3.28,3.28,0,0,0-2.87,0,3.23,3.23,0,0,0-1.19,1,5.62,5.62,0,0,0-.82,1.83,12.18,12.18,0,0,0,0,5.4,5.62,5.62,0,0,0,.82,1.83,3.18,3.18,0,0,0,1.19,1,3.32,3.32,0,0,0,2.87,0,3.13,3.13,0,0,0,1.19-1,5.7,5.7,0,0,0,.81-1.83A10.45,10.45,0,0,0,66.77,189.49Z" transform="translate(-9.46 -19.53)"/><path class="cls-1" d="M71.19,195.32h3V184.77q0-.31,0-.66l-2.87,2.55a.32.32,0,0,1-.22.08.28.28,0,0,1-.24-.11l-.27-.37,3.76-3.32H75v12.38h2.84V196h-6.7Z" transform="translate(-9.46 -19.53)"/><path class="cls-1" d="M84.64,182.85a4.68,4.68,0,0,1,1.4.21,3.4,3.4,0,0,1,1.16.62,3,3,0,0,1,.79,1,3.28,3.28,0,0,1,.29,1.42,3.13,3.13,0,0,1-.2,1.14,2.91,2.91,0,0,1-.54.9,3.13,3.13,0,0,1-.81.65,4.12,4.12,0,0,1-1,.4,3.63,3.63,0,0,1,2.16,1.11,3.08,3.08,0,0,1,.73,2.1,3.45,3.45,0,0,1-.32,1.48,3.61,3.61,0,0,1-.88,1.18,4.11,4.11,0,0,1-1.32.78,4.75,4.75,0,0,1-1.65.28,5,5,0,0,1-1.85-.3,3.49,3.49,0,0,1-2-1.85,8.52,8.52,0,0,1-.43-1.18l.35-.15a.56.56,0,0,1,.21,0,.43.43,0,0,1,.19,0,.3.3,0,0,1,.14.17l.06.18c0,.11.09.25.16.41a3.54,3.54,0,0,0,.26.51,3.5,3.5,0,0,0,.4.52,2.58,2.58,0,0,0,.58.47,3.23,3.23,0,0,0,.81.34,4,4,0,0,0,1.07.13,3.53,3.53,0,0,0,1.45-.28,3.31,3.31,0,0,0,1-.7,2.9,2.9,0,0,0,.83-2,3.23,3.23,0,0,0-.19-1.11,2.09,2.09,0,0,0-.63-.89,3.22,3.22,0,0,0-1.16-.59,6.29,6.29,0,0,0-1.78-.22V189a5.25,5.25,0,0,0,1.49-.22,3.19,3.19,0,0,0,1.07-.57,2.33,2.33,0,0,0,.65-.85,2.66,2.66,0,0,0,.22-1.09,2.87,2.87,0,0,0-.23-1.19,2.38,2.38,0,0,0-.62-.84,2.48,2.48,0,0,0-.9-.49,3.69,3.69,0,0,0-1.07-.16,3.34,3.34,0,0,0-1.13.18,2.89,2.89,0,0,0-1.57,1.31,3.7,3.7,0,0,0-.4,1c0,.21-.16.32-.34.32h-.1l-.45-.07a4.6,4.6,0,0,1,.46-1.49,3.58,3.58,0,0,1,2.08-1.79A4.58,4.58,0,0,1,84.64,182.85Z" transform="translate(-9.46 -19.53)"/><path class="cls-1" d="M102.92,183v.78H96.08v5.46H102V190H96.08v6h-.95V183Z" transform="translate(-9.46 -19.53)"/><path class="cls-1" d="M114.36,196h-.73a.32.32,0,0,1-.21-.07.45.45,0,0,1-.13-.18L111.77,192h-6.38l-1.52,3.77a.39.39,0,0,1-.13.17.34.34,0,0,1-.22.07h-.72l5.32-13H109Zm-8.7-4.72h5.82l-2.65-6.57q-.06-.16-.13-.35l-.13-.42-.13.42c0,.13-.09.25-.13.36Z" transform="translate(-9.46 -19.53)"/><path class="cls-1" d="M117.36,195.19h6.16v.8h-7.1V183h.94Z" transform="translate(-9.46 -19.53)"/><path class="cls-1" d="M126.75,195.19h6.16v.8h-7.1V183h.94Z" transform="translate(-9.46 -19.53)"/><path class="cls-1" d="M96.22,251.95a4.64,4.64,0,0,1,1.42.22,3.44,3.44,0,0,1,1.19.65,3.14,3.14,0,0,1,.82,1.09,3.64,3.64,0,0,1,.3,1.54,4,4,0,0,1-.23,1.36,5.5,5.5,0,0,1-.61,1.21,8.77,8.77,0,0,1-.9,1.12q-.51.55-1.07,1.12l-4.07,4.15a4.82,4.82,0,0,1,.61-.11,5.56,5.56,0,0,1,.64,0h5.61a.32.32,0,0,1,.23.09.3.3,0,0,1,.09.22v.51H91.87v-.31a.48.48,0,0,1,.05-.21.65.65,0,0,1,.12-.18l4.44-4.49q.55-.56,1-1.08a8.53,8.53,0,0,0,.81-1.06,5.21,5.21,0,0,0,.54-1.09,3.57,3.57,0,0,0,.2-1.19,3,3,0,0,0-.24-1.24,2.43,2.43,0,0,0-.64-.87,2.64,2.64,0,0,0-.92-.51,3.56,3.56,0,0,0-1.09-.17,3.32,3.32,0,0,0-1.13.19,3,3,0,0,0-.92.52,2.9,2.9,0,0,0-.66.8,3.23,3.23,0,0,0-.36,1c-.06.21-.18.32-.37.32h-.09l-.44-.07a4.39,4.39,0,0,1,.45-1.49,3.74,3.74,0,0,1,.87-1.1,3.63,3.63,0,0,1,1.21-.68A4.59,4.59,0,0,1,96.22,251.95Z" transform="translate(-9.46 -19.53)"/><path class="cls-1" d="M111.33,258.59a10.55,10.55,0,0,1-.37,3,6.2,6.2,0,0,1-1,2.07,4,4,0,0,1-1.48,1.22,4.31,4.31,0,0,1-3.62,0,4.06,4.06,0,0,1-1.48-1.22,6.13,6.13,0,0,1-1-2.07,12.24,12.24,0,0,1,0-5.91,6.13,6.13,0,0,1,1-2.07,4.08,4.08,0,0,1,1.48-1.22,4.31,4.31,0,0,1,3.62,0,4.06,4.06,0,0,1,1.48,1.22,6.2,6.2,0,0,1,1,2.07A10.55,10.55,0,0,1,111.33,258.59Zm-.92,0a10.47,10.47,0,0,0-.3-2.7,5.7,5.7,0,0,0-.81-1.83,3.18,3.18,0,0,0-1.19-1,3.28,3.28,0,0,0-2.87,0,3.23,3.23,0,0,0-1.19,1,5.62,5.62,0,0,0-.82,1.83,12.18,12.18,0,0,0,0,5.4,5.62,5.62,0,0,0,.82,1.83,3.18,3.18,0,0,0,1.19,1,3.32,3.32,0,0,0,2.87,0,3.13,3.13,0,0,0,1.19-1,5.7,5.7,0,0,0,.81-1.83A10.45,10.45,0,0,0,110.41,258.59Z" transform="translate(-9.46 -19.53)"/><path class="cls-1" d="M114.83,264.42h3V253.87q0-.31,0-.66L115,255.75a.32.32,0,0,1-.22.08.28.28,0,0,1-.24-.11l-.27-.37L118,252h.68v12.38h2.84v.67h-6.7Z" transform="translate(-9.46 -19.53)"/><path class="cls-1" d="M130.54,260.66h2.38v.48a.21.21,0,0,1-.06.16.25.25,0,0,1-.19.06h-2.13v3.73h-.79v-3.73h-6.13a.32.32,0,0,1-.21-.06.3.3,0,0,1-.1-.16l-.08-.43,6.53-8.63h.78Zm-.79-6.81c0-.1,0-.21,0-.33s0-.24,0-.36l-5.61,7.49h5.57Z" transform="translate(-9.46 -19.53)"/><path class="cls-1" d="M97.27,320.46a4.64,4.64,0,0,1,1.42.22,3.44,3.44,0,0,1,1.19.65,3.14,3.14,0,0,1,.82,1.09A3.64,3.64,0,0,1,101,324a4,4,0,0,1-.23,1.36,5.5,5.5,0,0,1-.61,1.21,8.77,8.77,0,0,1-.9,1.12q-.51.55-1.07,1.12l-4.07,4.15a4.82,4.82,0,0,1,.61-.11,5.56,5.56,0,0,1,.64,0H101a.32.32,0,0,1,.23.09.3.3,0,0,1,.09.22v.51H92.92v-.31a.48.48,0,0,1,.05-.21.65.65,0,0,1,.12-.18l4.44-4.49q.55-.56,1-1.08a8.53,8.53,0,0,0,.81-1.06,5.21,5.21,0,0,0,.54-1.09,3.57,3.57,0,0,0,.2-1.19,3,3,0,0,0-.24-1.24,2.43,2.43,0,0,0-.64-.87,2.64,2.64,0,0,0-.92-.51,3.56,3.56,0,0,0-1.09-.17,3.32,3.32,0,0,0-1.13.19,3,3,0,0,0-.92.52,2.9,2.9,0,0,0-.66.8,3.23,3.23,0,0,0-.36,1c-.06.21-.18.32-.37.32h-.09l-.44-.07a4.39,4.39,0,0,1,.45-1.49,3.74,3.74,0,0,1,.87-1.1,3.63,3.63,0,0,1,1.21-.68A4.59,4.59,0,0,1,97.27,320.46Z" transform="translate(-9.46 -19.53)"/><path class="cls-1" d="M112.37,327.1a10.55,10.55,0,0,1-.37,3,6.2,6.2,0,0,1-1,2.07,4,4,0,0,1-1.48,1.22,4.31,4.31,0,0,1-3.62,0,4.06,4.06,0,0,1-1.48-1.22,6.13,6.13,0,0,1-1-2.07,12.24,12.24,0,0,1,0-5.91,6.13,6.13,0,0,1,1-2.07,4.08,4.08,0,0,1,1.48-1.22,4.31,4.31,0,0,1,3.62,0,4.06,4.06,0,0,1,1.48,1.22,6.2,6.2,0,0,1,1,2.07A10.55,10.55,0,0,1,112.37,327.1Zm-.92,0a10.47,10.47,0,0,0-.3-2.7,5.7,5.7,0,0,0-.81-1.83,3.18,3.18,0,0,0-1.19-1,3.28,3.28,0,0,0-2.87,0,3.23,3.23,0,0,0-1.19,1,5.62,5.62,0,0,0-.82,1.83,12.18,12.18,0,0,0,0,5.4,5.62,5.62,0,0,0,.82,1.83,3.18,3.18,0,0,0,1.19,1,3.32,3.32,0,0,0,2.87,0,3.13,3.13,0,0,0,1.19-1,5.7,5.7,0,0,0,.81-1.83A10.45,10.45,0,0,0,111.45,327.1Z" transform="translate(-9.46 -19.53)"/><path class="cls-1" d="M115.88,332.93h3V322.38q0-.31,0-.66L116,324.26a.32.32,0,0,1-.22.08.28.28,0,0,1-.24-.11l-.27-.37,3.76-3.32h.68v12.38h2.84v.67h-6.7Z" transform="translate(-9.46 -19.53)"/><path class="cls-1" d="M132.57,321a.42.42,0,0,1-.12.31.53.53,0,0,1-.39.12h-4.7l-.78,4.34a9.56,9.56,0,0,1,1.17-.23,8.6,8.6,0,0,1,1.06-.07,5,5,0,0,1,1.78.29,3.57,3.57,0,0,1,1.29.81,3.41,3.41,0,0,1,.79,1.24,4.45,4.45,0,0,1,.27,1.56,4.52,4.52,0,0,1-.36,1.84,4.15,4.15,0,0,1-1,1.38,4.22,4.22,0,0,1-1.43.87,5,5,0,0,1-1.74.3,5.31,5.31,0,0,1-1-.1,5.93,5.93,0,0,1-.92-.26,4.92,4.92,0,0,1-.79-.37,5.42,5.42,0,0,1-.63-.43l.26-.36a.3.3,0,0,1,.27-.14.76.76,0,0,1,.34.14,6.13,6.13,0,0,0,.58.3,5.59,5.59,0,0,0,.84.3,4.12,4.12,0,0,0,1.12.14,4,4,0,0,0,1.41-.24A3.29,3.29,0,0,0,131,332a3.17,3.17,0,0,0,.75-1.13,4.07,4.07,0,0,0,.27-1.53,3.85,3.85,0,0,0-.21-1.29,2.64,2.64,0,0,0-.62-1,2.86,2.86,0,0,0-1.06-.65,4.37,4.37,0,0,0-1.5-.23,8,8,0,0,0-1.11.08,9.8,9.8,0,0,0-1.25.27l-.57-.17,1-5.76h5.84Z" transform="translate(-9.46 -19.53)"/><path class="cls-1" d="M52.58,458a4.64,4.64,0,0,1,1.42.22,3.44,3.44,0,0,1,1.19.65A3.14,3.14,0,0,1,56,460a3.64,3.64,0,0,1,.3,1.54,4,4,0,0,1-.23,1.36,5.5,5.5,0,0,1-.61,1.21,8.77,8.77,0,0,1-.9,1.12q-.51.55-1.07,1.12l-4.07,4.15a4.82,4.82,0,0,1,.61-.11,5.56,5.56,0,0,1,.64,0H56.3a.32.32,0,0,1,.23.09.3.3,0,0,1,.09.22v.51H48.23v-.31a.48.48,0,0,1,.05-.21.65.65,0,0,1,.12-.18L52.84,466q.55-.56,1-1.08a8.53,8.53,0,0,0,.81-1.06,5.21,5.21,0,0,0,.54-1.09,3.57,3.57,0,0,0,.2-1.19,3,3,0,0,0-.24-1.24,2.43,2.43,0,0,0-.64-.87,2.64,2.64,0,0,0-.92-.51,3.56,3.56,0,0,0-1.09-.17,3.32,3.32,0,0,0-1.13.19,3,3,0,0,0-.92.52,2.9,2.9,0,0,0-.66.8,3.23,3.23,0,0,0-.36,1c-.06.21-.18.32-.37.32H49l-.44-.07A4.39,4.39,0,0,1,49,460a3.74,3.74,0,0,1,.87-1.1,3.63,3.63,0,0,1,1.21-.68A4.59,4.59,0,0,1,52.58,458Z" transform="translate(-9.46 -19.53)"/><path class="cls-1" d="M67.68,464.67a10.55,10.55,0,0,1-.37,3,6.2,6.2,0,0,1-1,2.07,4,4,0,0,1-1.48,1.22,4.31,4.31,0,0,1-3.62,0,4.06,4.06,0,0,1-1.48-1.22,6.13,6.13,0,0,1-1-2.07,12.24,12.24,0,0,1,0-5.91,6.13,6.13,0,0,1,1-2.07,4.08,4.08,0,0,1,1.48-1.22,4.31,4.31,0,0,1,3.62,0,4.06,4.06,0,0,1,1.48,1.22,6.2,6.2,0,0,1,1,2.07A10.55,10.55,0,0,1,67.68,464.67Zm-.92,0a10.47,10.47,0,0,0-.3-2.7,5.7,5.7,0,0,0-.81-1.83,3.18,3.18,0,0,0-1.19-1,3.28,3.28,0,0,0-2.87,0,3.23,3.23,0,0,0-1.19,1,5.62,5.62,0,0,0-.82,1.83,12.18,12.18,0,0,0,0,5.4,5.62,5.62,0,0,0,.82,1.83,3.18,3.18,0,0,0,1.19,1,3.32,3.32,0,0,0,2.87,0,3.13,3.13,0,0,0,1.19-1,5.7,5.7,0,0,0,.81-1.83A10.45,10.45,0,0,0,66.77,464.67Z" transform="translate(-9.46 -19.53)"/><path class="cls-1" d="M71.19,470.5h3V459.95q0-.31,0-.66l-2.87,2.55a.32.32,0,0,1-.22.08.28.28,0,0,1-.24-.11l-.27-.37,3.76-3.32H75V470.5h2.84v.67h-6.7Z" transform="translate(-9.46 -19.53)"/><path class="cls-1" d="M84.77,463.4a4.21,4.21,0,0,1,1.54.28,3.47,3.47,0,0,1,2,2,4.19,4.19,0,0,1,.29,1.59,4.1,4.1,0,0,1-.32,1.63,3.85,3.85,0,0,1-.88,1.29,4,4,0,0,1-1.35.84,4.8,4.8,0,0,1-1.74.3,4.55,4.55,0,0,1-1.66-.29,3.61,3.61,0,0,1-1.29-.84,3.78,3.78,0,0,1-.83-1.35,5.14,5.14,0,0,1-.29-1.8,4.68,4.68,0,0,1,.39-1.72,10.08,10.08,0,0,1,1.27-2.15l3.55-4.78a.55.55,0,0,1,.47-.21h.77l-3.88,5.06-.52.71q-.24.33-.43.65a3.9,3.9,0,0,1,1.29-.88A4.11,4.11,0,0,1,84.77,463.4Zm-3.66,3.85a3.88,3.88,0,0,0,.22,1.34,3.1,3.1,0,0,0,.64,1.06,2.84,2.84,0,0,0,1,.69,3.47,3.47,0,0,0,1.34.25,3.88,3.88,0,0,0,1.42-.25,3.18,3.18,0,0,0,1.08-.68,3,3,0,0,0,.68-1,3.51,3.51,0,0,0,.24-1.31,3.68,3.68,0,0,0-.23-1.35,2.84,2.84,0,0,0-.66-1,2.93,2.93,0,0,0-1-.64,3.62,3.62,0,0,0-1.3-.22,3.56,3.56,0,0,0-1.45.28,3.46,3.46,0,0,0-1.08.73,3.11,3.11,0,0,0-.9,2.16Z" transform="translate(-9.46 -19.53)"/><path class="cls-1" d="M102.92,458.18V459H96.08v5.46H102v.78H96.08v6h-.95v-13Z" transform="translate(-9.46 -19.53)"/><path class="cls-1" d="M114.36,471.17h-.73a.32.32,0,0,1-.21-.07.45.45,0,0,1-.13-.18l-1.53-3.77h-6.38l-1.52,3.77a.39.39,0,0,1-.13.17.34.34,0,0,1-.22.07h-.72l5.32-13H109Zm-8.7-4.72h5.82l-2.65-6.57q-.06-.16-.13-.35l-.13-.42-.13.42c0,.13-.09.25-.13.36Z" transform="translate(-9.46 -19.53)"/><path class="cls-1" d="M117.36,470.37h6.16v.8h-7.1v-13h.94Z" transform="translate(-9.46 -19.53)"/><path class="cls-1" d="M126.75,470.37h6.16v.8h-7.1v-13h.94Z" transform="translate(-9.46 -19.53)"/><path class="cls-1" d="M28.45,526.33a4.64,4.64,0,0,1,1.42.22,3.44,3.44,0,0,1,1.19.65,3.14,3.14,0,0,1,.82,1.09,3.64,3.64,0,0,1,.3,1.54A4,4,0,0,1,32,531.2a5.5,5.5,0,0,1-.61,1.21,8.77,8.77,0,0,1-.9,1.12q-.51.55-1.07,1.12l-4.07,4.15a4.82,4.82,0,0,1,.61-.11,5.56,5.56,0,0,1,.64,0h5.61a.32.32,0,0,1,.23.09.3.3,0,0,1,.09.22v.51H24.11v-.31a.48.48,0,0,1,.05-.21.65.65,0,0,1,.12-.18l4.44-4.49q.55-.56,1-1.08a8.53,8.53,0,0,0,.81-1.06,5.21,5.21,0,0,0,.54-1.09,3.57,3.57,0,0,0,.2-1.19,3,3,0,0,0-.24-1.24,2.43,2.43,0,0,0-.64-.87,2.64,2.64,0,0,0-.92-.51,3.56,3.56,0,0,0-1.09-.17,3.32,3.32,0,0,0-1.13.19,3,3,0,0,0-.92.52,2.9,2.9,0,0,0-.66.8,3.23,3.23,0,0,0-.36,1c-.06.21-.18.32-.37.32h-.09l-.44-.07a4.39,4.39,0,0,1,.45-1.49,3.74,3.74,0,0,1,.87-1.1,3.63,3.63,0,0,1,1.21-.68A4.59,4.59,0,0,1,28.45,526.33Z" transform="translate(-9.46 -19.53)"/><path class="cls-1" d="M43.56,533a10.55,10.55,0,0,1-.37,3,6.2,6.2,0,0,1-1,2.07,4,4,0,0,1-1.48,1.22,4.31,4.31,0,0,1-3.62,0A4.06,4.06,0,0,1,35.6,538a6.13,6.13,0,0,1-1-2.07,12.24,12.24,0,0,1,0-5.91,6.13,6.13,0,0,1,1-2.07,4.08,4.08,0,0,1,1.48-1.22,4.31,4.31,0,0,1,3.62,0,4.06,4.06,0,0,1,1.48,1.22,6.2,6.2,0,0,1,1,2.07A10.55,10.55,0,0,1,43.56,533Zm-.92,0a10.47,10.47,0,0,0-.3-2.7,5.7,5.7,0,0,0-.81-1.83,3.18,3.18,0,0,0-1.19-1,3.28,3.28,0,0,0-2.87,0,3.23,3.23,0,0,0-1.19,1,5.62,5.62,0,0,0-.82,1.83,12.18,12.18,0,0,0,0,5.4,5.62,5.62,0,0,0,.82,1.83,3.18,3.18,0,0,0,1.19,1,3.32,3.32,0,0,0,2.87,0,3.13,3.13,0,0,0,1.19-1,5.7,5.7,0,0,0,.81-1.83A10.45,10.45,0,0,0,42.64,533Z" transform="translate(-9.46 -19.53)"/><path class="cls-1" d="M47.07,538.8h3V528.25q0-.31,0-.66l-2.87,2.55a.32.32,0,0,1-.22.08.28.28,0,0,1-.24-.11l-.27-.37,3.76-3.32h.68V538.8h2.84v.67h-6.7Z" transform="translate(-9.46 -19.53)"/><path class="cls-1" d="M64.72,526.48v.39a1,1,0,0,1,0,.27.92.92,0,0,1-.08.2l-6,11.8a.66.66,0,0,1-.2.24.54.54,0,0,1-.33.09h-.6l6-11.76a2.12,2.12,0,0,1,.29-.43H56.31a.22.22,0,0,1-.17-.07.25.25,0,0,1-.07-.17v-.56Z" transform="translate(-9.46 -19.53)"/><path class="cls-1" d="M77.3,528.06a.26.26,0,0,1-.24.16.53.53,0,0,1-.31-.17,4,4,0,0,0-1.32-.76,4.06,4.06,0,0,0-2.44,0,2.6,2.6,0,0,0-.9.55,2.34,2.34,0,0,0-.55.81,2.51,2.51,0,0,0-.19,1,2,2,0,0,0,.28,1.09,2.52,2.52,0,0,0,.74.73,4.79,4.79,0,0,0,1,.51l1.2.41q.62.2,1.2.45a4.33,4.33,0,0,1,1,.61,2.81,2.81,0,0,1,.74.9,2.87,2.87,0,0,1,.28,1.34,4.22,4.22,0,0,1-.28,1.54,3.59,3.59,0,0,1-.81,1.25,3.81,3.81,0,0,1-1.3.84,4.73,4.73,0,0,1-1.76.31,5,5,0,0,1-2.21-.45,5.21,5.21,0,0,1-1.63-1.24l.26-.4a.32.32,0,0,1,.26-.14.37.37,0,0,1,.21.11l.31.27q.18.16.44.35a3.63,3.63,0,0,0,.6.35,4.23,4.23,0,0,0,.78.27,4.17,4.17,0,0,0,1,.11,3.81,3.81,0,0,0,1.38-.23,3,3,0,0,0,1-.64,2.71,2.71,0,0,0,.64-1,3.19,3.19,0,0,0,.22-1.19,2.09,2.09,0,0,0-.28-1.13,2.41,2.41,0,0,0-.74-.74,4.78,4.78,0,0,0-1-.5l-1.2-.39q-.62-.19-1.2-.43a4.12,4.12,0,0,1-1-.61,2.79,2.79,0,0,1-.74-.93,3.07,3.07,0,0,1-.28-1.39,3.28,3.28,0,0,1,.25-1.26,3.12,3.12,0,0,1,.73-1.07,3.56,3.56,0,0,1,1.18-.74,4.32,4.32,0,0,1,1.6-.28,4.87,4.87,0,0,1,1.82.32,4.36,4.36,0,0,1,1.47,1Z" transform="translate(-9.46 -19.53)"/><path class="cls-1" d="M81.82,534.24v5.24h-.94v-13h3.35a5.16,5.16,0,0,1,3.45,1,3.57,3.57,0,0,1,1.16,2.86,3.83,3.83,0,0,1-.32,1.57,3.48,3.48,0,0,1-.91,1.24,4.27,4.27,0,0,1-1.45.81,6,6,0,0,1-1.93.29Zm0-.75h2.42a4.63,4.63,0,0,0,1.54-.24,3.39,3.39,0,0,0,1.15-.66,2.87,2.87,0,0,0,.73-1,3.08,3.08,0,0,0,.25-1.25A2.9,2.9,0,0,0,87,528a4.07,4.07,0,0,0-2.75-.81H81.82Z" transform="translate(-9.46 -19.53)"/><path class="cls-1" d="M92.72,533.6v5.88h-.94v-13H95.1a5.42,5.42,0,0,1,3.36.87,3,3,0,0,1,1.11,2.55,3.48,3.48,0,0,1-.26,1.36,3.19,3.19,0,0,1-.74,1.08,4,4,0,0,1-1.16.76,5.18,5.18,0,0,1-1.53.39,1.49,1.49,0,0,1,.4.37l4.47,5.62h-.82a.54.54,0,0,1-.25-.06.66.66,0,0,1-.21-.18L95.31,534a.92.92,0,0,0-.34-.28,1.4,1.4,0,0,0-.56-.08Zm0-.7H95a5.35,5.35,0,0,0,1.55-.21,3.33,3.33,0,0,0,1.16-.59,2.56,2.56,0,0,0,.72-.93,2.9,2.9,0,0,0,.25-1.22,2.39,2.39,0,0,0-.91-2.06,4.42,4.42,0,0,0-2.65-.67H92.72Z" transform="translate(-9.46 -19.53)"/><path class="cls-1" d="M104.38,539.48h-.95v-13h.95Z" transform="translate(-9.46 -19.53)"/><path class="cls-1" d="M109.25,526.51a.43.43,0,0,1,.16.14l8.41,11.26c0-.18,0-.36,0-.53v-10.9h.83v13h-.45a.39.39,0,0,1-.34-.18L109.38,528a5.2,5.2,0,0,1,0,.52v10.94h-.82v-13H109A.51.51,0,0,1,109.25,526.51Z" transform="translate(-9.46 -19.53)"/><path class="cls-1" d="M128.06,538.86a9.88,9.88,0,0,0,1.22-.07,6.56,6.56,0,0,0,1-.21,6.34,6.34,0,0,0,.9-.34q.43-.2.86-.45v-3.5h-2.5a.24.24,0,0,1-.17-.06.19.19,0,0,1-.07-.15v-.51h3.59v4.62a8.5,8.5,0,0,1-1,.61,6.73,6.73,0,0,1-1.12.45,8.76,8.76,0,0,1-1.29.28,10.94,10.94,0,0,1-1.51.1,6.75,6.75,0,0,1-2.57-.47,5.69,5.69,0,0,1-2-1.34,6,6,0,0,1-1.29-2.1,8.38,8.38,0,0,1,0-5.47,6,6,0,0,1,1.3-2.09,5.74,5.74,0,0,1,2.05-1.34,7.37,7.37,0,0,1,2.7-.47,8.68,8.68,0,0,1,1.37.1,6.32,6.32,0,0,1,1.17.3,5.47,5.47,0,0,1,1,.49,6.78,6.78,0,0,1,.9.67l-.25.4a.26.26,0,0,1-.23.14.34.34,0,0,1-.16,0,1.94,1.94,0,0,1-.4-.26,4.28,4.28,0,0,0-.71-.42,5.9,5.9,0,0,0-1.12-.4,6.56,6.56,0,0,0-1.63-.17,6.15,6.15,0,0,0-2.29.4,4.84,4.84,0,0,0-1.74,1.16,5.12,5.12,0,0,0-1.11,1.84,7.15,7.15,0,0,0-.39,2.43,7.23,7.23,0,0,0,.39,2.47,5.28,5.28,0,0,0,1.11,1.85,4.77,4.77,0,0,0,1.71,1.16A5.81,5.81,0,0,0,128.06,538.86Z" transform="translate(-9.46 -19.53)"/><path class="cls-1" d="M28.45,388a4.64,4.64,0,0,1,1.42.22,3.44,3.44,0,0,1,1.19.65,3.14,3.14,0,0,1,.82,1.09,3.64,3.64,0,0,1,.3,1.54,4,4,0,0,1-.23,1.36,5.5,5.5,0,0,1-.61,1.21,8.77,8.77,0,0,1-.9,1.12q-.51.55-1.07,1.12l-4.07,4.15a4.82,4.82,0,0,1,.61-.11,5.56,5.56,0,0,1,.64,0h5.61a.32.32,0,0,1,.23.09.3.3,0,0,1,.09.22v.51H24.11v-.31a.48.48,0,0,1,.05-.21.65.65,0,0,1,.12-.18l4.44-4.49q.55-.56,1-1.08a8.53,8.53,0,0,0,.81-1.06,5.21,5.21,0,0,0,.54-1.09,3.57,3.57,0,0,0,.2-1.19,3,3,0,0,0-.24-1.24,2.43,2.43,0,0,0-.64-.87,2.64,2.64,0,0,0-.92-.51,3.56,3.56,0,0,0-1.09-.17,3.32,3.32,0,0,0-1.13.19,3,3,0,0,0-.92.52,2.9,2.9,0,0,0-.66.8,3.23,3.23,0,0,0-.36,1c-.06.21-.18.32-.37.32h-.09l-.44-.07a4.39,4.39,0,0,1,.45-1.49,3.74,3.74,0,0,1,.87-1.1,3.63,3.63,0,0,1,1.21-.68A4.59,4.59,0,0,1,28.45,388Z" transform="translate(-9.46 -19.53)"/><path class="cls-1" d="M43.56,394.6a10.55,10.55,0,0,1-.37,3,6.2,6.2,0,0,1-1,2.07,4,4,0,0,1-1.48,1.22,4.31,4.31,0,0,1-3.62,0,4.06,4.06,0,0,1-1.48-1.22,6.13,6.13,0,0,1-1-2.07,12.24,12.24,0,0,1,0-5.91,6.13,6.13,0,0,1,1-2.07,4.08,4.08,0,0,1,1.48-1.22,4.31,4.31,0,0,1,3.62,0,4.06,4.06,0,0,1,1.48,1.22,6.2,6.2,0,0,1,1,2.07A10.55,10.55,0,0,1,43.56,394.6Zm-.92,0a10.47,10.47,0,0,0-.3-2.7,5.7,5.7,0,0,0-.81-1.83,3.18,3.18,0,0,0-1.19-1,3.28,3.28,0,0,0-2.87,0,3.23,3.23,0,0,0-1.19,1,5.62,5.62,0,0,0-.82,1.83,12.18,12.18,0,0,0,0,5.4,5.62,5.62,0,0,0,.82,1.83,3.18,3.18,0,0,0,1.19,1,3.32,3.32,0,0,0,2.87,0,3.13,3.13,0,0,0,1.19-1,5.7,5.7,0,0,0,.81-1.83A10.45,10.45,0,0,0,42.64,394.6Z" transform="translate(-9.46 -19.53)"/><path class="cls-1" d="M47.07,400.43h3V389.88q0-.31,0-.66l-2.87,2.55a.32.32,0,0,1-.22.08.28.28,0,0,1-.24-.11l-.27-.37L50.24,388h.68v12.38h2.84v.67h-6.7Z" transform="translate(-9.46 -19.53)"/><path class="cls-1" d="M60.65,393.33a4.21,4.21,0,0,1,1.54.28,3.47,3.47,0,0,1,2,2,4.19,4.19,0,0,1,.29,1.59,4.1,4.1,0,0,1-.32,1.63,3.85,3.85,0,0,1-.88,1.29,4,4,0,0,1-1.35.84,4.8,4.8,0,0,1-1.74.3,4.55,4.55,0,0,1-1.66-.29,3.61,3.61,0,0,1-1.29-.84,3.78,3.78,0,0,1-.83-1.35,5.14,5.14,0,0,1-.29-1.8,4.68,4.68,0,0,1,.39-1.72,10.08,10.08,0,0,1,1.27-2.15l3.55-4.78a.55.55,0,0,1,.47-.21h.77l-3.88,5.06-.52.71q-.24.33-.43.65a3.9,3.9,0,0,1,1.29-.88A4.11,4.11,0,0,1,60.65,393.33ZM57,397.18a3.88,3.88,0,0,0,.22,1.34,3.1,3.1,0,0,0,.64,1.06,2.84,2.84,0,0,0,1,.69,3.47,3.47,0,0,0,1.34.25,3.88,3.88,0,0,0,1.42-.25,3.18,3.18,0,0,0,1.08-.68,3,3,0,0,0,.68-1,3.51,3.51,0,0,0,.24-1.31,3.68,3.68,0,0,0-.23-1.35,2.84,2.84,0,0,0-.66-1,2.93,2.93,0,0,0-1-.64,3.62,3.62,0,0,0-1.3-.22,3.56,3.56,0,0,0-1.45.28,3.46,3.46,0,0,0-1.08.73,3.11,3.11,0,0,0-.9,2.16Z" transform="translate(-9.46 -19.53)"/><path class="cls-1" d="M77.3,389.68a.26.26,0,0,1-.24.16.53.53,0,0,1-.31-.17,4,4,0,0,0-1.32-.76,4.06,4.06,0,0,0-2.44,0,2.6,2.6,0,0,0-.9.55,2.34,2.34,0,0,0-.55.81,2.51,2.51,0,0,0-.19,1,2,2,0,0,0,.28,1.09,2.52,2.52,0,0,0,.74.73,4.79,4.79,0,0,0,1,.51l1.2.41q.62.2,1.2.45a4.33,4.33,0,0,1,1,.61,2.81,2.81,0,0,1,.74.9,2.87,2.87,0,0,1,.28,1.34,4.22,4.22,0,0,1-.28,1.54,3.59,3.59,0,0,1-.81,1.25,3.81,3.81,0,0,1-1.3.84,4.73,4.73,0,0,1-1.76.31,5,5,0,0,1-2.21-.45,5.21,5.21,0,0,1-1.63-1.24l.26-.4a.32.32,0,0,1,.26-.14.37.37,0,0,1,.21.11l.31.27q.18.16.44.35a3.63,3.63,0,0,0,.6.35,4.23,4.23,0,0,0,.78.27,4.17,4.17,0,0,0,1,.11,3.81,3.81,0,0,0,1.38-.23,3,3,0,0,0,1-.64,2.71,2.71,0,0,0,.64-1,3.19,3.19,0,0,0,.22-1.19,2.09,2.09,0,0,0-.28-1.13,2.41,2.41,0,0,0-.74-.74,4.78,4.78,0,0,0-1-.5l-1.2-.39q-.62-.19-1.2-.43a4.12,4.12,0,0,1-1-.61,2.79,2.79,0,0,1-.74-.93,3.07,3.07,0,0,1-.28-1.39,3.28,3.28,0,0,1,.25-1.26,3.12,3.12,0,0,1,.73-1.07,3.56,3.56,0,0,1,1.18-.74,4.32,4.32,0,0,1,1.6-.28,4.87,4.87,0,0,1,1.82.32,4.36,4.36,0,0,1,1.47,1Z" transform="translate(-9.46 -19.53)"/><path class="cls-1" d="M81.82,395.86v5.24h-.94v-13h3.35a5.16,5.16,0,0,1,3.45,1A3.57,3.57,0,0,1,88.84,392a3.83,3.83,0,0,1-.32,1.57,3.48,3.48,0,0,1-.91,1.24,4.27,4.27,0,0,1-1.45.81,6,6,0,0,1-1.93.29Zm0-.75h2.42a4.63,4.63,0,0,0,1.54-.24,3.39,3.39,0,0,0,1.15-.66,2.87,2.87,0,0,0,.73-1,3.08,3.08,0,0,0,.25-1.25,2.9,2.9,0,0,0-.92-2.31,4.07,4.07,0,0,0-2.75-.81H81.82Z" transform="translate(-9.46 -19.53)"/><path class="cls-1" d="M92.72,395.22v5.88h-.94v-13H95.1a5.42,5.42,0,0,1,3.36.87,3,3,0,0,1,1.11,2.55,3.48,3.48,0,0,1-.26,1.36,3.19,3.19,0,0,1-.74,1.08,4,4,0,0,1-1.16.76,5.18,5.18,0,0,1-1.53.39,1.49,1.49,0,0,1,.4.37l4.47,5.62h-.82a.54.54,0,0,1-.25-.06.66.66,0,0,1-.21-.18l-4.16-5.27a.92.92,0,0,0-.34-.28,1.4,1.4,0,0,0-.56-.08Zm0-.7H95a5.35,5.35,0,0,0,1.55-.21,3.33,3.33,0,0,0,1.16-.59,2.56,2.56,0,0,0,.72-.93,2.9,2.9,0,0,0,.25-1.22,2.39,2.39,0,0,0-.91-2.06,4.42,4.42,0,0,0-2.65-.67H92.72Z" transform="translate(-9.46 -19.53)"/><path class="cls-1" d="M104.38,401.1h-.95v-13h.95Z" transform="translate(-9.46 -19.53)"/><path class="cls-1" d="M109.25,388.14a.43.43,0,0,1,.16.14l8.41,11.26c0-.18,0-.36,0-.53V388.1h.83v13h-.45a.39.39,0,0,1-.34-.18l-8.45-11.28a5.2,5.2,0,0,1,0,.52V401.1h-.82v-13H109A.51.51,0,0,1,109.25,388.14Z" transform="translate(-9.46 -19.53)"/><path class="cls-1" d="M128.06,400.48a9.88,9.88,0,0,0,1.22-.07,6.56,6.56,0,0,0,1-.21,6.34,6.34,0,0,0,.9-.34q.43-.2.86-.45v-3.5h-2.5a.24.24,0,0,1-.17-.06.19.19,0,0,1-.07-.15v-.51h3.59v4.62a8.5,8.5,0,0,1-1,.61,6.73,6.73,0,0,1-1.12.45,8.76,8.76,0,0,1-1.29.28,10.94,10.94,0,0,1-1.51.1,6.75,6.75,0,0,1-2.57-.47,5.69,5.69,0,0,1-2-1.34,6,6,0,0,1-1.29-2.1,8.38,8.38,0,0,1,0-5.47,6,6,0,0,1,1.3-2.09,5.74,5.74,0,0,1,2.05-1.34,7.37,7.37,0,0,1,2.7-.47,8.68,8.68,0,0,1,1.37.1,6.32,6.32,0,0,1,1.17.3,5.47,5.47,0,0,1,1,.49,6.78,6.78,0,0,1,.9.67l-.25.4a.26.26,0,0,1-.23.14.34.34,0,0,1-.16,0,1.94,1.94,0,0,1-.4-.26,4.28,4.28,0,0,0-.71-.42,5.9,5.9,0,0,0-1.12-.4,6.56,6.56,0,0,0-1.63-.17,6.15,6.15,0,0,0-2.29.4,4.84,4.84,0,0,0-1.74,1.16,5.12,5.12,0,0,0-1.11,1.84,7.15,7.15,0,0,0-.39,2.43,7.23,7.23,0,0,0,.39,2.47,5.28,5.28,0,0,0,1.11,1.85,4.77,4.77,0,0,0,1.71,1.16A5.81,5.81,0,0,0,128.06,400.48Z" transform="translate(-9.46 -19.53)"/></svg>